<?xml version="1.0" encoding="UTF-8"?>
<!DOCTYPE svg PUBLIC "-//W3C//DTD SVG 1.1//EN" "http://www.w3.org/Graphics/SVG/1.1/DTD/svg11.dtd">
<!-- Creator: CorelDRAW 2019 (64-Bit) -->
<svg xmlns="http://www.w3.org/2000/svg" xml:space="preserve" width="49.9302mm" height="75.2869mm" version="1.1" style="shape-rendering:geometricPrecision; text-rendering:geometricPrecision; image-rendering:optimizeQuality; fill-rule:evenodd; clip-rule:evenodd"
viewBox="0 0 277.79 418.86"
 xmlns:xlink="http://www.w3.org/1999/xlink">
 <defs>
  <style type="text/css">
   <![CDATA[
    .fil5 {fill:url(#id0);fill-opacity:0.101961}
    .fil0 {fill:url(#id1);fill-opacity:0.200000}
    .fil3 {fill:url(#id2);fill-opacity:0.231373}
    .fil2 {fill:url(#id3);fill-opacity:0.301961}
    .fil4 {fill:url(#id4);fill-opacity:0.321569}
    .fil1 {fill:url(#id5);fill-rule:nonzero;fill-opacity:0.450980}
   ]]>
  </style>
  <radialGradient id="id0" gradientUnits="userSpaceOnUse" gradientTransform="matrix(1.94513 -0 -0 2.00001 -79 -128)" cx="83.44" cy="127.74" r="21.88" fx="83.44" fy="127.74">
   <stop offset="0" style="stop-opacity:1; stop-color:white"/>
   <stop offset="1" style="stop-opacity:1; stop-color:#EE7776"/>
  </radialGradient>
  <radialGradient id="id1" gradientUnits="userSpaceOnUse" gradientTransform="matrix(1.94515 -0 -0 2.00001 -175 -29)" xlink:href="#id0" cx="185.39" cy="28.96" r="43.88" fx="185.39" fy="28.96">
  </radialGradient>
  <radialGradient id="id2" gradientUnits="userSpaceOnUse" gradientTransform="matrix(1.14802 -0 -0 1.99999 -39 -131)" xlink:href="#id0" cx="266.2" cy="130.8" r="45.88" fx="266.2" fy="130.8">
  </radialGradient>
  <radialGradient id="id3" gradientUnits="userSpaceOnUse" gradientTransform="matrix(1.9451 -0 -0 1.99999 -212 -231)" xlink:href="#id0" cx="224.36" cy="230.58" r="26.61" fx="224.36" fy="230.58">
  </radialGradient>
  <radialGradient id="id4" gradientUnits="userSpaceOnUse" gradientTransform="matrix(1.94514 -0 -0 2 -239 -346)" xlink:href="#id0" cx="252.94" cy="345.74" r="39.9" fx="252.94" fy="345.74">
  </radialGradient>
  <radialGradient id="id5" gradientUnits="userSpaceOnUse" gradientTransform="matrix(1.69049 -0 -0 2 -69 -317)" xlink:href="#id0" cx="99.94" cy="317.3" r="75.79" fx="99.94" fy="317.3">
  </radialGradient>
 </defs>
 <g id="Capa_x0020_1">
  <metadata id="CorelCorpID_0Corel-Layer"/>
  <path class="fil0" d="M161.49 0c23.57,0 42.68,19.65 42.68,43.88 0,24.23 -19.11,43.88 -42.68,43.88 -23.57,0 -42.68,-19.65 -42.68,-43.88 0,-24.23 19.11,-43.88 42.68,-43.88z"/>
  <path class="fil1" d="M54.41 267.27c40.71,0 73.71,33.93 73.71,75.79 0,41.86 -33,75.79 -73.71,75.79 -21.55,0 -40.94,-9.51 -54.41,-24.67l0 -102.26c13.48,-15.16 32.87,-24.66 54.41,-24.66z"/>
  <path class="fil2" d="M209.87 213.02c14.29,0 25.88,11.91 25.88,26.61 0,14.7 -11.59,26.61 -25.88,26.61 -14.29,0 -25.88,-11.91 -25.88,-26.61 0,-14.69 11.59,-26.61 25.88,-26.61z"/>
  <path class="fil3" d="M269.74 100.53c-24.64,0 -44.62,20.54 -44.62,45.87 0,25.34 19.98,45.88 44.62,45.88 2.75,0 5.44,-0.26 8.05,-0.75l0 -90.26c-2.61,-0.49 -5.3,-0.75 -8.05,-0.75z"/>
  <path class="fil4" d="M231.21 319.4c21.43,0 38.8,17.86 38.8,39.9 0,22.03 -17.37,39.9 -38.8,39.9 -21.43,0 -38.8,-17.86 -38.8,-39.9 0,-22.03 17.37,-39.9 38.8,-39.9z"/>
  <path class="fil5" d="M71.52 113.3c11.75,0 21.28,9.8 21.28,21.88 0,12.08 -9.53,21.88 -21.28,21.88 -11.75,0 -21.28,-9.8 -21.28,-21.88 0,-12.08 9.53,-21.88 21.28,-21.88z"/>
 </g>
</svg>
