<?xml version="1.0" encoding="UTF-8"?>
<!DOCTYPE svg PUBLIC "-//W3C//DTD SVG 1.1//EN" "http://www.w3.org/Graphics/SVG/1.1/DTD/svg11.dtd">
<!-- Creator: CorelDRAW 2019 (64-Bit) -->
<svg xmlns="http://www.w3.org/2000/svg" xml:space="preserve" width="151.553mm" height="222.25mm" version="1.1" style="shape-rendering:geometricPrecision; text-rendering:geometricPrecision; image-rendering:optimizeQuality; fill-rule:evenodd; clip-rule:evenodd"
viewBox="0 0 4393.7 6443.27"
 xmlns:xlink="http://www.w3.org/1999/xlink">
 <defs>
  <style type="text/css">
   <![CDATA[
    .fil0 {fill:#75A63D}
   ]]>
  </style>
    <mask id="id0">
  <linearGradient id="id1" gradientUnits="userSpaceOnUse" x1="1707.49" y1="2018.89" x2="2812.05" y2="300.69">
   <stop offset="0" style="stop-opacity:1; stop-color:white"/>
   <stop offset="1" style="stop-opacity:0; stop-color:white"/>
  </linearGradient>
     <rect style="fill:url(#id1)" x="1879.3" width="1350.02" height="1350.02"/>
    </mask>
    <mask id="id2">
  <linearGradient id="id3" gradientUnits="userSpaceOnUse" x1="-857.55" y1="2190.72" x2="639.75" y2="5111.66">
   <stop offset="0" style="stop-opacity:1; stop-color:white"/>
   <stop offset="1" style="stop-opacity:0; stop-color:white"/>
  </linearGradient>
     <rect style="fill:url(#id3)" y="4111.42" width="2026.58" height="2331.85"/>
    </mask>
    <mask id="id4">
  <linearGradient id="id5" gradientUnits="userSpaceOnUse" x1="5119.36" y1="3982.56" x2="3082.06" y2="3651.19">
   <stop offset="0" style="stop-opacity:1; stop-color:white"/>
   <stop offset="1" style="stop-opacity:0; stop-color:white"/>
  </linearGradient>
     <rect style="fill:url(#id5)" x="2910.23" y="3276.86" width="818.6" height="818.6"/>
    </mask>
    <mask id="id6">
  <linearGradient id="id7" gradientUnits="userSpaceOnUse" x1="2161.59" y1="3086.64" x2="597.36" y2="1788.02">
   <stop offset="0" style="stop-opacity:1; stop-color:white"/>
   <stop offset="1" style="stop-opacity:0; stop-color:white"/>
  </linearGradient>
     <rect style="fill:url(#id7)" x="512.72" y="1628" width="818.6" height="818.6"/>
    </mask>
    <mask id="id8">
  <linearGradient id="id9" gradientUnits="userSpaceOnUse" x1="4787.99" y1="4571.66" x2="3892.07" y2="1822.53">
   <stop offset="0" style="stop-opacity:1; stop-color:white"/>
   <stop offset="1" style="stop-opacity:0; stop-color:white"/>
  </linearGradient>
     <rect style="fill:url(#id9)" x="3560.69" y="1546.39" width="833.01" height="1411.39"/>
    </mask>
 </defs>
 <g id="Capa_x0020_1">
  <metadata id="CorelCorpID_0Corel-Layer"/>
  <g id="_2449409266560">
   <path class="fil0" style="mask:url(#id0)" d="M2554.31 0c372.8,0 675.01,302.21 675.01,675.01 0,372.8 -302.21,675.01 -675.01,675.01 -372.8,0 -675.01,-302.21 -675.01,-675.01 0,-372.8 302.21,-675.01 675.01,-675.01z"/>
   <path class="fil0" style="mask:url(#id2)" d="M860.65 4111.42c643.92,0 1165.93,522 1165.93,1165.93 0,643.92 -522,1165.93 -1165.93,1165.93 -340.83,0 -647.46,-146.27 -860.65,-379.42l0 -1573.01c213.19,-233.16 519.83,-379.42 860.65,-379.42z"/>
   <path class="fil0" style="mask:url(#id4)" d="M3319.53 3276.86c226.05,0 409.3,183.25 409.3,409.3 0,226.05 -183.25,409.3 -409.3,409.3 -226.05,0 -409.3,-183.25 -409.3,-409.3 0,-226.05 183.25,-409.3 409.3,-409.3z"/>
   <path class="fil0" style="mask:url(#id6)" d="M922.02 1628c226.05,0 409.3,183.25 409.3,409.3 0,226.05 -183.25,409.3 -409.3,409.3 -226.05,0 -409.3,-183.25 -409.3,-409.3 0,-226.05 183.25,-409.3 409.3,-409.3z"/>
   <path class="fil0" style="mask:url(#id8)" d="M4266.38 1546.39c-389.74,0 -705.69,315.95 -705.69,705.69 0,389.74 315.95,705.69 705.69,705.69 43.47,0 86.02,-3.95 127.32,-11.48l0 -1388.42c-41.3,-7.53 -83.85,-11.48 -127.32,-11.48z"/>
  </g>
 </g>
</svg>
