<?xml version="1.0" encoding="UTF-8"?>
<!DOCTYPE svg PUBLIC "-//W3C//DTD SVG 1.1//EN" "http://www.w3.org/Graphics/SVG/1.1/DTD/svg11.dtd">
<!-- Creator: CorelDRAW 2019 (64-Bit) -->
<svg xmlns="http://www.w3.org/2000/svg" xml:space="preserve" width="49.7417mm" height="102.129mm" version="1.1" style="shape-rendering:geometricPrecision; text-rendering:geometricPrecision; image-rendering:optimizeQuality; fill-rule:evenodd; clip-rule:evenodd"
viewBox="0 0 1008.87 2071.4"
 xmlns:xlink="http://www.w3.org/1999/xlink">
 <defs>
  <style type="text/css">
   <![CDATA[
    .fil0 {fill:url(#id0)}
    .fil1 {fill:url(#id1)}
    .fil3 {fill:url(#id2)}
    .fil2 {fill:url(#id3)}
   ]]>
  </style>
  <linearGradient id="id0" gradientUnits="userSpaceOnUse" x1="266.14" y1="266.48" x2="-0.06" y2="272.2">
   <stop offset="0" style="stop-opacity:1; stop-color:#687EEC"/>
   <stop offset="1" style="stop-opacity:1; stop-color:#8198E8"/>
  </linearGradient>
  <linearGradient id="id1" gradientUnits="userSpaceOnUse" x1="461.44" y1="404.27" x2="-3.72" y2="471.41">
   <stop offset="0" style="stop-opacity:1; stop-color:#4860E4"/>
   <stop offset="1" style="stop-opacity:1; stop-color:#4981E6"/>
  </linearGradient>
  <linearGradient id="id2" gradientUnits="userSpaceOnUse" x1="1019.41" y1="982.39" x2="120.41" y2="1089.01">
   <stop offset="0" style="stop-opacity:1; stop-color:#4E33D8"/>
   <stop offset="1" style="stop-opacity:1; stop-color:#4F6EE3"/>
  </linearGradient>
  <linearGradient id="id3" gradientUnits="userSpaceOnUse" x1="975.3" y1="785.86" x2="-96.95" y2="1285.54">
   <stop offset="0" style="stop-opacity:1; stop-color:#5755E7"/>
   <stop offset="1" style="stop-opacity:1; stop-color:#539EEF"/>
  </linearGradient>
 </defs>
 <g id="Capa_x0020_1">
  <metadata id="CorelCorpID_0Corel-Layer"/>
  <path class="fil0" d="M266.08 0l-266.08 0 0 538.67c14.26,-10.99 28.06,-22.58 41.14,-34.84 104.94,-98.38 163.38,-240.29 193.79,-352.39 15.87,-58.49 24.1,-108.85 31.15,-151.45z"/>
  <path class="fil1" d="M266.08 0c-7.05,42.6 -15.28,92.96 -31.15,151.45 -30.41,112.1 -88.84,254 -193.79,352.39 -13.08,12.26 -26.88,23.85 -41.14,34.84l0 337.01c57.75,-50.89 115.16,-105.83 163.97,-162.56 132.37,-153.84 201.54,-320.79 240.89,-472.24 23.34,-89.81 36.19,-174.17 52.86,-240.89l-191.64 0z"/>
  <path class="fil2" d="M457.72 0c-16.67,66.72 -29.52,151.08 -52.86,240.89 -39.35,151.45 -108.52,318.4 -240.89,472.24 -48.81,56.73 -106.22,111.67 -163.97,162.56l0 1195.71 130.95 0c43.62,-34.84 91.69,-75.1 141.54,-121.34 135.95,-126.11 285.01,-296.64 354.77,-542.3 69.76,-245.66 60.22,-566.45 97.49,-845.79 31.24,-234.21 95.39,-439.26 153.6,-561.97l-420.64 0z"/>
  <path class="fil3" d="M878.36 0c-58.22,122.71 -122.36,327.77 -153.6,561.97 -37.26,279.35 -27.73,600.13 -97.49,845.79 -69.76,245.66 -218.83,416.19 -354.77,542.3 -49.85,46.24 -97.92,86.5 -141.54,121.34l877.92 0 0 -2071.4 -130.51 0z"/>
 </g>
</svg>
