<?xml version="1.0" encoding="UTF-8"?>
<!DOCTYPE svg PUBLIC "-//W3C//DTD SVG 1.1//EN" "http://www.w3.org/Graphics/SVG/1.1/DTD/svg11.dtd">
<!-- Creator: CorelDRAW 2019 (64-Bit) -->
<svg xmlns="http://www.w3.org/2000/svg" xml:space="preserve" width="8.83mm" height="8.83mm" version="1.1" style="shape-rendering:geometricPrecision; text-rendering:geometricPrecision; image-rendering:optimizeQuality; fill-rule:evenodd; clip-rule:evenodd"
viewBox="0 0 11.15 11.15"
 xmlns:xlink="http://www.w3.org/1999/xlink">
 <defs>
  <style type="text/css">
   <![CDATA[
    .fil4 {fill:none}
    .fil0 {fill:#EBECEC}
    .fil3 {fill:#053100}
    .fil1 {fill:url(#id3)}
    .fil5 {fill:url(#id4)}
    .fil2 {fill:url(#id5)}
    .fil6 {fill:url(#id6)}
   ]]>
  </style>
     <clipPath id="id0">
      <path d="M4.56 2.53l4.06 0 0 4.06c0,1.12 -0.91,2.03 -2.03,2.03l-2.03 0c-1.12,0 -2.03,-0.91 -2.03,-2.03l0 -2.03c0,-1.12 0.91,-2.03 2.03,-2.03z"/>
     </clipPath>
       <mask id="id1">
  <linearGradient id="id2" gradientUnits="userSpaceOnUse" x1="5.46" y1="6.13" x2="2.97" y2="7.47">
   <stop offset="0" style="stop-opacity:1; stop-color:white"/>
   <stop offset="1" style="stop-opacity:0; stop-color:white"/>
  </linearGradient>
        <rect style="fill:url(#id2)" x="0.57" y="4.13" width="6.77" height="6.81"/>
       </mask>
  <linearGradient id="id3" gradientUnits="userSpaceOnUse" x1="0.33" y1="5.57" x2="10.82" y2="5.57">
   <stop offset="0" style="stop-opacity:1; stop-color:#D9DADA"/>
   <stop offset="1" style="stop-opacity:1; stop-color:white"/>
  </linearGradient>
  <linearGradient id="id4" gradientUnits="userSpaceOnUse" x1="5.55" y1="5.45" x2="4.99" y2="6.02">
   <stop offset="0" style="stop-opacity:1; stop-color:white"/>
   <stop offset="1" style="stop-opacity:1; stop-color:#91C796"/>
  </linearGradient>
  <linearGradient id="id5" gradientUnits="userSpaceOnUse" x1="5.05" y1="3.86" x2="5.05" y2="8.44">
   <stop offset="0" style="stop-opacity:1; stop-color:#14EA32"/>
   <stop offset="1" style="stop-opacity:1; stop-color:#08590C"/>
  </linearGradient>
  <linearGradient id="id6" gradientUnits="userSpaceOnUse" xlink:href="#id4" x1="7.07" y1="7.29" x2="6.85" y2="7.51">
  </linearGradient>
 </defs>
 <g id="Capa_x0020_1">
  <metadata id="CorelCorpID_0Corel-Layer"/>
  <g id="_2749029914224">
   <g>
    <rect class="fil0" width="11.15" height="11.15" rx="0.63" ry="0.63"/>
    <path class="fil1" d="M0.63 0.33c-0.16,0 -0.3,0.13 -0.3,0.3l0 9.9c0,0.16 0.13,0.3 0.3,0.3l9.9 0c0.16,0 0.3,-0.13 0.3,-0.3l0 -9.9c0,-0.16 -0.13,-0.3 -0.3,-0.3l-9.9 0z"/>
   </g>
   <g>
    <path class="fil2" d="M4.56 2.53l4.06 0 0 4.06c0,1.12 -0.91,2.03 -2.03,2.03l-2.03 0c-1.12,0 -2.03,-0.91 -2.03,-2.03l0 -2.03c0,-1.12 0.91,-2.03 2.03,-2.03z"/>
    <g style="clip-path:url(#id0)">
     <g>
      <polygon id="1" class="fil3" style="mask:url(#id1)" points="3.87,4.26 3.62,4.38 0.7,7.3 3.87,10.81 7.21,7.44 7.1,6.84 "/>
     </g>
    </g>
    <path class="fil4" d="M4.56 2.53l4.06 0 0 4.06c0,1.12 -0.91,2.03 -2.03,2.03l-2.03 0c-1.12,0 -2.03,-0.91 -2.03,-2.03l0 -2.03c0,-1.12 0.91,-2.03 2.03,-2.03z"/>
    <g>
     <path class="fil5" d="M4.7 5.73l1.59 1.6c0.03,0.03 0.08,0.04 0.13,0.02 0.08,-0.04 0.17,-0.04 0.24,0 0.04,0.02 0.09,0.02 0.13,-0.02l0.31 -0.31c0.03,-0.03 0.04,-0.08 0.02,-0.13 -0.04,-0.08 -0.04,-0.17 0,-0.24 0.02,-0.04 0.02,-0.09 -0.02,-0.13l-1.59 -1.6 -0 0 -1.07 -1.12c-0.06,-0.06 -0.15,-0.06 -0.21,-0.01l-0.6 0.57c-0.06,0.06 -0.06,0.15 -0.01,0.21l1.08 1.14 -0 0z"/>
     <path class="fil6" d="M7.19 7.17l0.02 0.26c0,0.01 -0,0.01 -0.01,0.02 -0.01,0.01 -0.01,0.01 -0.02,0.01l-0.26 -0.02c-0.01,-0 -0.02,-0.01 -0.02,-0.02 -0,-0.01 -0,-0.02 0.01,-0.03l0.24 -0.24c0.01,-0.01 0.02,-0.01 0.03,-0.01 0.01,0 0.02,0.01 0.02,0.02z"/>
    </g>
   </g>
  </g>
 </g>
</svg>
