<?xml version="1.0" encoding="UTF-8"?>
<!DOCTYPE svg PUBLIC "-//W3C//DTD SVG 1.1//EN" "http://www.w3.org/Graphics/SVG/1.1/DTD/svg11.dtd">
<!-- Creator: CorelDRAW 2019 (64-Bit) -->
<svg xmlns="http://www.w3.org/2000/svg" xml:space="preserve" width="8.83mm" height="8.83mm" version="1.1" style="shape-rendering:geometricPrecision; text-rendering:geometricPrecision; image-rendering:optimizeQuality; fill-rule:evenodd; clip-rule:evenodd"
viewBox="0 0 9.57 9.57"
 xmlns:xlink="http://www.w3.org/1999/xlink">
 <defs>
  <style type="text/css">
   <![CDATA[
    .fil0 {fill:#EBECEC}
    .fil6 {fill:#434242}
    .fil3 {fill:#28A8E0}
    .fil5 {fill:#EAEAEA}
    .fil4 {fill:white}
    .fil1 {fill:url(#id0)}
    .fil2 {fill:url(#id1)}
   ]]>
  </style>
  <linearGradient id="id0" gradientUnits="userSpaceOnUse" x1="0.28" y1="4.78" x2="9.29" y2="4.78">
   <stop offset="0" style="stop-opacity:1; stop-color:#D9DADA"/>
   <stop offset="1" style="stop-opacity:1; stop-color:white"/>
  </linearGradient>
  <linearGradient id="id1" gradientUnits="userSpaceOnUse" x1="2.26" y1="5.48" x2="7.31" y2="5.48">
   <stop offset="0" style="stop-opacity:1; stop-color:#0070BA"/>
   <stop offset="1" style="stop-opacity:1; stop-color:#2B9BE6"/>
  </linearGradient>
 </defs>
 <g id="Capa_x0020_1">
  <metadata id="CorelCorpID_0Corel-Layer"/>
  <g id="_2749602449504">
   <g>
    <rect class="fil0" width="9.57" height="9.57" rx="0.54" ry="0.54"/>
    <path class="fil1" d="M0.54 0.28c-0.14,0 -0.26,0.12 -0.26,0.26l0 8.49c0,0.14 0.12,0.26 0.26,0.26l8.49 0c0.14,0 0.26,-0.12 0.26,-0.26l0 -8.49c0,-0.14 -0.12,-0.26 -0.26,-0.26l-8.49 0z"/>
   </g>
   <g>
    <path class="fil2" d="M4.78 7.25l-1.33 -0.36 -0.09 -1.01 0.65 -0 0.04 0.51c0.06,0.03 0.62,0.18 0.68,0.18 0.02,-0.01 0.04,0.02 0.04,-0.09l-0 -0.88c-0.18,0 -1.35,0.03 -1.41,-0.02l-0.05 -0.62c0.08,-0.03 1.27,-0.01 1.47,-0.01l0 -0.63 -1.52 -0.01 -0.05 -0.62 1.57 0 -0 -0.51c-0,-0.18 -0.07,-0.13 0.7,-0.13 0.45,0 0.91,0 1.36,0 0.02,0.13 -0.07,0.9 -0.09,1.1 -0.03,0.36 -0.07,0.73 -0.1,1.09 -0.07,0.73 -0.12,1.47 -0.2,2.2 -0.05,0.03 -1.61,0.47 -1.67,0.46l0 -0.65zm-2.06 0.53c0.34,0.08 1.17,0.32 1.54,0.42l0.52 0.14 1.05 -0.29c0.09,-0.02 0.97,-0.26 1.04,-0.3 0,-0.23 0.13,-1.61 0.17,-1.92l0.08 -0.96c0.02,-0.29 0.08,-0.7 0.09,-0.97 0.02,-0.32 0.11,-1.03 0.11,-1.29l-5.05 0c0,0.09 0.02,0.22 0.03,0.31l0.23 2.58c0.01,0.12 0.01,0.23 0.03,0.33l0.11 1.3c0,0.1 0.03,0.22 0.03,0.32 0,0.1 0.03,0.23 0.03,0.32z"/>
    <path class="fil3" d="M4.78 3.68l1.5 -0c0.02,0 0.03,0 0.04,0 0.04,0.01 0.01,-0 0.04,0.01l-0.29 3.19c-0.2,0.04 -0.44,0.12 -0.64,0.18 -0.12,0.03 -0.54,0.17 -0.63,0.16 -0.01,0.02 0.02,0.02 -0.02,0.01l0 0.65c0.06,0 1.62,-0.43 1.67,-0.46 0.08,-0.73 0.13,-1.47 0.2,-2.2 0.03,-0.36 0.07,-0.73 0.1,-1.09 0.02,-0.2 0.11,-0.96 0.09,-1.1 -0.45,0 -0.91,0 -1.36,0 -0.77,0 -0.7,-0.05 -0.7,0.13l0 0.51z"/>
    <path class="fil4" d="M4.79 4.31l0.89 0 -0.07 0.64 -0.82 0 0 0.64 0.77 0 -0.08 0.8 -0.68 0.19c-0.02,0.11 -0.01,0.23 -0.01,0.34 0,0.08 -0.03,0.26 0.02,0.32 0.09,0 0.51,-0.13 0.63,-0.16 0.2,-0.06 0.43,-0.13 0.64,-0.18l0.29 -3.19 -1.57 0 0 0.61z"/>
    <path class="fil5" d="M4.78 7.25c0.04,0 0.01,0 0.02,-0.01 -0.05,-0.05 -0.02,-0.24 -0.02,-0.32 0,-0.11 -0.01,-0.23 0.01,-0.34l-0.04 -0.02c-0.06,-0 -0.62,-0.15 -0.68,-0.18l-0.04 -0.51 -0.65 0 0.09 1.01 1.33 0.36z"/>
    <path class="fil5" d="M4.78 4.31l0 0 0 -0.61 1.57 0c-0.02,-0.02 0,-0.01 -0.04,-0.01 -0.02,-0 -0.02,-0 -0.04,-0l-1.5 0 -1.57 -0 0.05 0.62 1.52 0.01z"/>
    <polygon class="fil5" points="3.37,5.58 4.79,5.58 4.79,4.95 3.32,4.95 "/>
    <path class="fil6" d="M5.36 1.55c0,0.04 0.11,0.11 0.18,0.16 0.06,0.05 0.15,0.1 0.19,0.16l-0.37 0 0 0.32 0.87 0c0.07,0 0.05,-0.09 0.05,-0.28 0,-0.05 -0.32,-0.28 -0.38,-0.34 0.46,0 0.38,0.08 0.38,-0.35l-0.92 0 0 0.32z"/>
    <path class="fil6" d="M4.33 1.55c0,0.05 0.2,0.18 0.27,0.24 0.04,0.03 0.08,0.05 0.1,0.08l-0.37 0 0 0.32 0.9 0 0 -0.29c0,-0.04 -0.01,-0.03 -0.08,-0.09 -0.07,-0.05 -0.25,-0.18 -0.29,-0.23l0.37 0 0 -0.35 -0.9 0 0 0.32z"/>
    <polygon class="fil6" points="3.3,2.19 4.19,2.19 4.19,1.87 3.7,1.87 3.7,1.58 4.19,1.58 4.19,1.23 3.3,1.23 "/>
    <path class="fil3" d="M4.75 6.56l0.04 0.02 0.68 -0.19 0.08 -0.8 -0.77 -0 -1.42 -0.01c0.06,0.05 1.23,0.02 1.41,0.02l0 0.88c-0,0.11 -0.02,0.08 -0.04,0.09z"/>
    <path class="fil3" d="M3.32 4.95l1.47 -0 0.82 -0 0.07 -0.64 -0.89 -0 -0 0 0 0.63c-0.2,0 -1.38,-0.02 -1.47,0.01z"/>
   </g>
  </g>
 </g>
</svg>
