<?xml version="1.0" encoding="UTF-8"?>
<!DOCTYPE svg PUBLIC "-//W3C//DTD SVG 1.1//EN" "http://www.w3.org/Graphics/SVG/1.1/DTD/svg11.dtd">
<!-- Creator: CorelDRAW 2019 (64-Bit) -->
<svg xmlns="http://www.w3.org/2000/svg" xml:space="preserve" width="24.3783mm" height="5.075mm" version="1.1" style="shape-rendering:geometricPrecision; text-rendering:geometricPrecision; image-rendering:optimizeQuality; fill-rule:evenodd; clip-rule:evenodd"
viewBox="0 0 72.36 15.06"
 xmlns:xlink="http://www.w3.org/1999/xlink">
 <defs>
  <style type="text/css">
   <![CDATA[
    .fil4 {fill:#455C50;fill-rule:nonzero}
    .fil3 {fill:#455C50;fill-rule:nonzero}
    .fil7 {fill:#62A614;fill-rule:nonzero}
    .fil1 {fill:#62A614;fill-rule:nonzero}
    .fil9 {fill:#67B014;fill-rule:nonzero}
    .fil5 {fill:#67B014;fill-rule:nonzero}
    .fil8 {fill:#75A63D;fill-rule:nonzero}
    .fil2 {fill:#75A63D;fill-rule:nonzero}
    .fil6 {fill:#83AD53;fill-rule:nonzero}
    .fil0 {fill:#83AD53;fill-rule:nonzero}
   ]]>
  </style>
 </defs>
 <g id="Capa_x0020_1">
  <metadata id="CorelCorpID_0Corel-Layer"/>
  <g id="_2449409436032">
   <path class="fil0" d="M18.42 9.24c0,0 -0.4,-0.35 -0.77,-0.83 -0.28,0.14 -0.83,0.28 -1.44,-0.33 0,0 0.51,-0.44 1.01,-0.34 -0.06,-0.12 -0.11,-0.25 -0.15,-0.37 -1.86,0.7 -1.82,-0.75 -1.82,-0.75 0.82,-0.17 1.29,0.05 1.54,0.29 -0.33,-0.52 -0.84,-1.32 -0.97,-1.41l0 -0.28c0,0 0.18,0.27 0.42,0.6l0.03 -0.37 -0.05 -0.09c-0.28,-0.84 0.47,-1.21 0.47,-1.21 0.28,1.02 -0.32,1.3 -0.32,1.3l-0.05 0.47 -0.03 -0.02c0.16,0.22 0.32,0.45 0.46,0.66 -0.31,-0.9 0.69,-1.21 0.69,-1.21 0.22,0.72 -0.5,1.21 -0.63,1.29 0.16,0.25 0.29,0.44 0.3,0.48 -0.02,-0.05 -0.05,-0.14 -0.05,-0.14 0,0 1.21,2.05 1.4,2.05l-0.05 0.19z"/>
   <path class="fil1" d="M18.24 9.19c0,0 -0.56,0.84 -1.63,0.23 0,0 0.79,-1.17 1.63,-0.23z"/>
   <path class="fil2" d="M14.65 5.33c0,0 0.61,-0.56 1.17,0.19 0,0 -0.56,0.51 -1.17,-0.19z"/>
   <path class="fil0" d="M15.44 4.96c-0.65,-0.6 -0.04,-1.21 -0.04,-1.21 0.74,0.93 0.04,1.21 0.04,1.21z"/>
   <path class="fil1" d="M17.39 7.42c-0.56,-0.75 0.65,-1.49 0.65,-1.49 0.28,1.3 -0.65,1.49 -0.65,1.49z"/>
   <path class="fil1" d="M18.28 7.7c0,0 0.93,0.51 1.44,0 0,0 -1.07,-0.6 -1.44,0z"/>
   <path class="fil1" d="M19.05 6.75c-0.79,-0.41 -0.36,-1.15 -0.36,-1.15 0.97,0.7 0.36,1.15 0.36,1.15z"/>
   <path class="fil0" d="M19.26 6.28c0.67,-0.58 1.21,0.09 1.21,0.09 -1.01,0.63 -1.21,-0.09 -1.21,-0.09z"/>
   <path class="fil1" d="M19.18 4.52c-0.88,-0.13 -0.72,-0.98 -0.72,-0.98 1.14,0.35 0.72,0.98 0.72,0.98z"/>
   <path class="fil2" d="M19.24 5.04c0.39,-0.8 1.15,-0.4 1.15,-0.4 -0.67,0.98 -1.15,0.4 -1.15,0.4z"/>
   <path class="fil2" d="M19.74 3.94c0.43,-0.78 1.16,-0.33 1.16,-0.33 -0.73,0.94 -1.16,0.33 -1.16,0.33z"/>
   <path class="fil2" d="M22.1 8.82c0,0 -1.03,0.23 -1.49,-0.37 0,0 0.28,-0.33 1.26,-0.09 0,0 -0.51,-0.23 -0.51,-1.12 0,0 0.37,-0.05 0.7,0.84 0,0 -0.28,-1.35 0.51,-1.82 0,0 0.24,0.56 -0.14,1.02 0,0 0.51,-0.05 0.55,-0.19 0,0 0.51,0.75 -0.65,1.4 0,0 0.65,0.28 0.13,0.7 0,0 -0.51,0.56 -0.51,0.7 0,0.14 0,0.14 0,0.14l-0.28 -0.05c0,0 -0.05,-0.65 0.42,-1.07l0 -0.09z"/>
   <path class="fil2" d="M8.17 10.36c0,0 1.16,-0.75 0.7,-1.68 0,0 -1.3,0.51 -1.02,1.63l0.32 0.05z"/>
   <path class="fil3" d="M7.24 7.89c0,0 -0.93,-0.65 -1.03,-1.16l-0.05 0.51c0,0 0.84,0.84 0.98,0.84l0.09 -0.19z"/>
   <path class="fil1" d="M6.17 7.24c0,0 -1.35,0.33 -1.48,-0.33 0,0 0.79,-0.51 1.48,0.33z"/>
   <path class="fil1" d="M6.41 7.24c0,0 -0.14,-1.44 -1.17,-0.84 0,0 -0.05,0.7 1.17,0.84z"/>
   <path class="fil3" d="M7.1 7.8c0,0 0.05,-1.91 -1.02,-3.54 -0.48,-0.72 -0.14,-3.07 -0.05,-3.45l-0.24 -0.05c0,0 -0.25,2.67 0.05,3.49 0.3,0.81 1.3,1.58 0.98,3.31l0.28 0.23z"/>
   <path class="fil2" d="M6.69 6.52c-0.7,0 -0.67,-0.66 -0.67,-0.66 0.92,0.13 0.67,0.66 0.67,0.66z"/>
   <path class="fil0" d="M6.97 6.31c-0.4,-0.57 0.16,-0.93 0.16,-0.93 0.42,0.83 -0.16,0.93 -0.16,0.93z"/>
   <path class="fil2" d="M6.18 5.03c-0.7,0 -0.67,-0.66 -0.67,-0.66 0.92,0.13 0.67,0.66 0.67,0.66z"/>
   <path class="fil0" d="M6.63 3.97c0.29,0.63 -0.32,0.89 -0.32,0.89 -0.26,-0.89 0.32,-0.89 0.32,-0.89z"/>
   <path class="fil2" d="M5.76 3.91c-0.7,0 -0.67,-0.66 -0.67,-0.66 0.92,0.13 0.67,0.66 0.67,0.66z"/>
   <path class="fil1" d="M6.22 2.85c0.29,0.63 -0.32,0.89 -0.32,0.89 -0.26,-0.89 0.32,-0.89 0.32,-0.89z"/>
   <path class="fil2" d="M5.74 2.66c-0.46,0 -0.45,-0.44 -0.45,-0.44 0.61,0.09 0.45,0.44 0.45,0.44z"/>
   <path class="fil0" d="M5.61 2.88c-0.29,0.36 -0.62,0.06 -0.62,0.06 0.46,-0.41 0.62,-0.06 0.62,-0.06z"/>
   <path class="fil1" d="M6.29 1.77c-0.04,0.46 -0.48,0.41 -0.48,0.41 0.14,-0.6 0.48,-0.41 0.48,-0.41z"/>
   <path class="fil1" d="M5.85 1.44c-0.7,0 -0.67,-0.66 -0.67,-0.66 0.92,0.13 0.67,0.66 0.67,0.66z"/>
   <path class="fil4" d="M30.06 11.1c0,0 -1.33,-1.84 -0.22,-3.61 0,0 0.38,-1.77 -0.17,-2.36l-0.17 0c0,0 0.5,1.16 0.17,2.22 0,0 -0.92,2.35 -0.03,3.57l0.42 0.19z"/>
   <path class="fil3" d="M29.64 7.82c0,0 1.03,-0.43 0.92,-0.91l0.28 0c0,0 -0.23,0.71 -1.38,1.31l0.18 -0.4z"/>
   <path class="fil0" d="M30.62 7.49c0,0 0.66,0.89 1.66,0.05 0,0 -1,-0.83 -1.66,-0.05z"/>
   <path class="fil1" d="M30.47 5.43c0,0 -0.7,1.1 0.16,1.66 0,0 0.8,-0.77 -0.16,-1.66z"/>
   <path class="fil2" d="M32.77 6.43c0,0 -1.15,-0.61 -1.64,0.28 0,0 0.83,0.73 1.64,-0.28z"/>
   <path class="fil3" d="M30.74 6.96c0,0 0.41,-0.14 0.55,-0.25l-0.05 -0.11 -0.43 0.05 -0.07 0.3z"/>
   <path class="fil0" d="M29.6 5.21c0,0 0.7,-0.86 -0.34,-1.63 0,0 -0.57,1.17 0.34,1.63z"/>
   <path class="fil2" d="M29.58 5.29c0,0 1.04,0.39 1.42,-0.85 0,0 -1.29,-0.16 -1.42,0.85z"/>
   <path class="fil1" d="M28.27 5.44c0,0 0.26,1.08 1.51,0.71 0,0 -0.59,-1.16 -1.51,-0.71z"/>
   <path class="fil2" d="M29.28 8.91c0,0 0.94,0.58 1.57,-0.57 0,0 -1.24,-0.4 -1.57,0.57z"/>
   <path class="fil1" d="M29.35 9.56c0,0 -0.43,-0.73 -1.26,-0.18 0,0 0.68,0.72 1.26,0.18z"/>
   <path class="fil5" d="M27.87 10.55c0,0 0.95,0.58 1.56,-0.57 0,0 -1.24,-0.4 -1.56,0.57z"/>
   <path class="fil3" d="M24.38 7.9l-0.13 0c0,0 0.67,-1.2 1.07,-1.61 0.25,-0.26 0.49,-0.79 0.33,-1.39 -0.11,-0.39 -0.07,-1.13 0.09,-1.63 0.09,-0.27 0.19,-1.07 0.05,-1.16l0.24 -0.04c0,0 -0.24,1.86 -0.24,2.19 0,0.33 0.3,1.8 -0.47,2.32 -0.33,0.23 -1.07,1.32 -0.93,1.32z"/>
   <path class="fil2" d="M25.26 6.68c0,0 0.93,0.51 1.31,-0.37 0,0 -1.12,-0.42 -1.31,0.37z"/>
   <path class="fil2" d="M27.11 5.7c0,0 -0.92,-0.77 -1.35,-0.08 0,0 0.71,0.79 1.35,0.08z"/>
   <path class="fil2" d="M26.58 4.47c0,0 -0.95,0.21 -0.73,0.83 0,0 0.86,-0.06 0.73,-0.83z"/>
   <path class="fil0" d="M25.74 4.28c0,0 -0.89,-1.26 -1.66,-0.56 0,0 0.63,1.22 1.66,0.56z"/>
   <path class="fil2" d="M26.53 3.36c0,0 -0.95,0.21 -0.73,0.83 0,0 0.86,-0.06 0.73,-0.83z"/>
   <path class="fil2" d="M26.67 2.28c0,0 -0.95,0.21 -0.72,0.83 0,0 0.86,-0.06 0.72,-0.83z"/>
   <path class="fil1" d="M25.01 2.5c0,0 -0.03,0.97 0.63,0.9 0,0 0.14,-0.85 -0.63,-0.9z"/>
   <path class="fil2" d="M25.43 1.48c0,0 -0.02,0.78 0.51,0.73 0,0 0.11,-0.69 -0.51,-0.73z"/>
   <path class="fil0" d="M25.9 2.23c0,0 0.77,0.14 0.8,-0.4 0,0 -0.66,-0.22 -0.8,0.4z"/>
   <path class="fil0" d="M9.11 6.31c-1.01,0 -0.99,-0.97 -0.99,-0.97 1.35,0.19 0.99,0.97 0.99,0.97z"/>
   <path class="fil1" d="M11.96 5.9c-0.27,-0.88 0.6,-1.02 0.6,-1.02 0.18,1.2 -0.6,1.02 -0.6,1.02z"/>
   <path class="fil2" d="M9.58 2.88c-0.7,0 -0.67,-0.66 -0.67,-0.66 0.92,0.13 0.67,0.66 0.67,0.66z"/>
   <path class="fil1" d="M13.58 8.8c-0.7,0 -0.67,-0.66 -0.67,-0.66 0.92,0.13 0.67,0.66 0.67,0.66z"/>
   <path class="fil0" d="M19.51 2.69c0.14,-0.91 0.99,-0.66 0.99,-0.66 -0.36,1.16 -0.99,0.66 -0.99,0.66z"/>
   <path class="fil2" d="M19.4 2.72c-0.82,-0.41 -0.32,-1.14 -0.32,-1.14 0.99,0.7 0.32,1.14 0.32,1.14z"/>
   <path class="fil1" d="M29.48 2.46c-0.28,-0.88 0.59,-1.02 0.59,-1.02 0.19,1.2 -0.59,1.02 -0.59,1.02z"/>
   <path class="fil1" d="M34.72 4.1c-0.27,-0.88 0.6,-1.02 0.6,-1.02 0.18,1.2 -0.6,1.02 -0.6,1.02z"/>
   <path class="fil3" d="M17.95 8.37l-0.14 0c0,0 0.68,-1.2 1.07,-1.61 0.24,-0.26 0.49,-0.79 0.32,-1.39 -0.1,-0.39 -0.07,-1.13 0.09,-1.63 0.09,-0.28 0.19,-1.07 0.05,-1.16l0.24 -0.04c0,0 -0.24,1.86 -0.24,2.19 0,0.33 0.3,1.8 -0.47,2.32 -0.33,0.23 -1.07,1.32 -0.93,1.32z"/>
   <path class="fil2" d="M53.39 8.87c0,0 0.41,-0.36 0.8,-0.86 0.29,0.14 0.87,0.29 1.5,-0.34 0,0 -0.53,-0.46 -1.06,-0.36 0.07,-0.13 0.12,-0.26 0.16,-0.39 1.95,0.73 1.9,-0.78 1.9,-0.78 -0.85,-0.18 -1.34,0.05 -1.6,0.31 0.34,-0.55 0.9,-1.38 1.02,-1.48l0 -0.29c0,0 -0.2,0.28 -0.45,0.63l-0.04 -0.39 0.05 -0.1c0.29,-0.88 -0.49,-1.27 -0.49,-1.27 -0.3,1.07 0.34,1.37 0.34,1.37l0.05 0.49 0.03 -0.02c-0.16,0.23 -0.33,0.47 -0.48,0.69 0.32,-0.94 -0.72,-1.26 -0.72,-1.26 -0.22,0.75 0.53,1.26 0.66,1.35 -0.18,0.26 -0.3,0.46 -0.32,0.5 0.01,-0.05 0.05,-0.15 0.05,-0.15 0,0 -1.27,2.14 -1.46,2.14l0.05 0.2z"/>
   <path class="fil1" d="M53.78 8.69c0,0 0.59,0.88 1.71,0.24 0,0 -0.83,-1.22 -1.71,-0.24z"/>
   <path class="fil0" d="M57.33 4.77c0,0 -0.63,-0.58 -1.21,0.2 0,0 0.58,0.54 1.21,-0.2z"/>
   <path class="fil2" d="M56.5 4.39c0.69,-0.63 0.05,-1.27 0.05,-1.27 -0.78,0.97 -0.05,1.27 -0.05,1.27z"/>
   <path class="fil2" d="M54.46 6.97c0.59,-0.78 -0.68,-1.56 -0.68,-1.56 -0.29,1.36 0.68,1.56 0.68,1.56z"/>
   <path class="fil0" d="M53.53 7.26c0,0 -0.97,0.54 -1.51,0 0,0 1.12,-0.63 1.51,0z"/>
   <path class="fil2" d="M52.73 6.26c0.82,-0.43 0.38,-1.21 0.38,-1.21 -1.01,0.74 -0.38,1.21 -0.38,1.21z"/>
   <path class="fil1" d="M52.5 5.78c-0.7,-0.6 -1.26,0.1 -1.26,0.1 1.06,0.66 1.26,-0.1 1.26,-0.1z"/>
   <path class="fil0" d="M52.59 3.93c0.92,-0.14 0.75,-1.02 0.75,-1.02 -1.19,0.37 -0.75,1.02 -0.75,1.02z"/>
   <path class="fil2" d="M52.53 4.48c-0.4,-0.84 -1.19,-0.42 -1.19,-0.42 0.7,1.03 1.19,0.42 1.19,0.42z"/>
   <path class="fil0" d="M52.01 3.32c-0.45,-0.81 -1.22,-0.35 -1.22,-0.35 0.77,0.99 1.22,0.35 1.22,0.35z"/>
   <path class="fil2" d="M49.53 8.43c0,0 1.07,0.24 1.56,-0.39 0,0 -0.29,-0.34 -1.32,-0.1 0,0 0.54,-0.24 0.54,-1.17 0,0 -0.39,-0.05 -0.73,0.88 0,0 0.29,-1.41 -0.54,-1.9 0,0 -0.24,0.59 0.15,1.07 0,0 -0.54,-0.05 -0.59,-0.2 0,0 -0.53,0.78 0.68,1.46 0,0 -0.69,0.29 -0.15,0.73 0,0 0.53,0.58 0.53,0.73 0,0.15 0,0.15 0,0.15l0.3 -0.05c0,0 0.05,-0.68 -0.43,-1.12l0 -0.1z"/>
   <path class="fil6" d="M64.11 10.04c0,0 -1.22,-0.78 -0.74,-1.75 0,0 1.36,0.54 1.07,1.71l-0.34 0.05z"/>
   <path class="fil3" d="M65.08 7.45c0,0 0.97,-0.68 1.07,-1.22l0.05 0.54c0,0 -0.88,0.88 -1.03,0.88l-0.09 -0.2z"/>
   <path class="fil7" d="M66.2 6.77c0,0 1.41,0.34 1.56,-0.34 0,0 -0.83,-0.54 -1.56,0.34z"/>
   <path class="fil8" d="M65.96 6.77c0,0 0.15,-1.51 1.21,-0.88 0,0 0.05,0.73 -1.21,0.88z"/>
   <path class="fil3" d="M65.23 7.36c0,0 -0.05,-2 1.07,-3.7 0.5,-0.75 0.15,-3.21 0.05,-3.61l0.25 -0.05c0,0 0.26,2.8 -0.05,3.65 -0.31,0.85 -1.36,1.66 -1.02,3.46l-0.29 0.24z"/>
   <path class="fil0" d="M65.66 6.02c0.72,0 0.7,-0.69 0.7,-0.69 -0.97,0.14 -0.7,0.69 -0.7,0.69z"/>
   <path class="fil2" d="M65.37 5.8c0.42,-0.59 -0.17,-0.97 -0.17,-0.97 -0.44,0.87 0.17,0.97 0.17,0.97z"/>
   <path class="fil1" d="M66.19 4.46c0.73,0 0.7,-0.7 0.7,-0.7 -0.96,0.14 -0.7,0.7 -0.7,0.7z"/>
   <path class="fil2" d="M65.71 3.35c-0.3,0.66 0.34,0.93 0.34,0.93 0.28,-0.93 -0.34,-0.93 -0.34,-0.93z"/>
   <path class="fil0" d="M66.63 3.29c0.73,0 0.7,-0.69 0.7,-0.69 -0.96,0.14 -0.7,0.69 -0.7,0.69z"/>
   <path class="fil2" d="M66.15 2.18c-0.3,0.66 0.34,0.93 0.34,0.93 0.28,-0.93 -0.34,-0.93 -0.34,-0.93z"/>
   <path class="fil2" d="M66.64 1.98c0.48,0 0.47,-0.46 0.47,-0.46 -0.64,0.09 -0.47,0.46 -0.47,0.46z"/>
   <path class="fil1" d="M66.79 2.21c0.3,0.37 0.65,0.06 0.65,0.06 -0.48,-0.43 -0.65,-0.06 -0.65,-0.06z"/>
   <path class="fil0" d="M66.08 1.05c0.03,0.48 0.5,0.43 0.5,0.43 -0.15,-0.63 -0.5,-0.43 -0.5,-0.43z"/>
   <path class="fil5" d="M66.54 0.71c0.72,0 0.7,-0.7 0.7,-0.7 -0.97,0.14 -0.7,0.7 -0.7,0.7z"/>
   <path class="fil3" d="M41.21 10.82c0,0 1.39,-1.92 0.23,-3.78 0,0 -0.4,-1.86 0.18,-2.47l0.17 0c0,0 -0.52,1.22 -0.17,2.32 0,0 0.96,2.46 0.03,3.73l-0.44 0.2z"/>
   <path class="fil3" d="M41.65 7.39c0,0 -1.08,-0.48 -0.96,-0.95l-0.3 0c0,0 0.24,0.73 1.44,1.37l-0.18 -0.43z"/>
   <path class="fil1" d="M40.63 7.03c0,0 -0.7,0.93 -1.74,0.06 0,0 1.05,-0.87 1.74,-0.06z"/>
   <path class="fil0" d="M40.77 4.88c0,0 0.73,1.15 -0.16,1.73 0,0 -0.83,-0.81 0.16,-1.73z"/>
   <path class="fil2" d="M38.38 5.93c0,0 1.2,-0.64 1.71,0.29 0,0 -0.87,0.77 -1.71,-0.29z"/>
   <path class="fil3" d="M40.5 6.48c0,0 -0.43,-0.15 -0.57,-0.26l0.06 -0.11 0.44 0.05 0.07 0.32z"/>
   <path class="fil2" d="M41.69 4.65c0,0 -0.73,-0.9 0.36,-1.7 0,0 0.59,1.22 -0.36,1.7z"/>
   <path class="fil1" d="M41.71 4.73c0,0 -1.09,0.4 -1.49,-0.89 0,0 1.34,-0.17 1.49,0.89z"/>
   <path class="fil2" d="M43.08 4.89c0,0 -0.26,1.13 -1.57,0.75 0,0 0.61,-1.21 1.57,-0.75z"/>
   <path class="fil2" d="M42.03 8.52c0,0 -0.99,0.6 -1.64,-0.59 0,0 1.3,-0.42 1.64,0.59z"/>
   <path class="fil1" d="M41.96 9.2c0,0 0.45,-0.76 1.32,-0.19 0,0 -0.72,0.75 -1.32,0.19z"/>
   <path class="fil2" d="M43.51 10.24c0,0 -0.99,0.6 -1.64,-0.59 0,0 1.3,-0.42 1.64,0.59z"/>
   <path class="fil3" d="M47.15 7.47l0.14 0c0,0 -0.71,-1.26 -1.12,-1.69 -0.26,-0.27 -0.51,-0.82 -0.34,-1.45 0.11,-0.41 0.07,-1.18 -0.1,-1.7 -0.09,-0.29 -0.2,-1.12 -0.05,-1.22l-0.24 -0.05c0,0 0.24,1.95 0.24,2.29 0,0.34 -0.32,1.88 0.49,2.43 0.35,0.24 1.12,1.38 0.98,1.38z"/>
   <path class="fil1" d="M46.23 6.19c0,0 -0.98,0.54 -1.37,-0.39 0,0 1.17,-0.44 1.37,0.39z"/>
   <path class="fil2" d="M44.29 5.16c0,0 0.96,-0.8 1.42,-0.08 0,0 -0.74,0.83 -1.42,0.08z"/>
   <path class="fil0" d="M44.85 3.88c0,0 0.99,0.22 0.76,0.87 0,0 -0.9,-0.06 -0.76,-0.87z"/>
   <path class="fil5" d="M45.73 3.68c0,0 0.93,-1.31 1.73,-0.58 0,0 -0.65,1.27 -1.73,0.58z"/>
   <path class="fil1" d="M44.9 2.71c0,0 0.99,0.22 0.76,0.87 0,0 -0.9,-0.06 -0.76,-0.87z"/>
   <path class="fil2" d="M44.76 1.59c0,0 0.99,0.22 0.76,0.87 0,0 -0.9,-0.07 -0.76,-0.87z"/>
   <path class="fil0" d="M46.5 1.82c0,0 0.03,1.02 -0.66,0.94 0,0 -0.16,-0.89 0.66,-0.94z"/>
   <path class="fil1" d="M46.06 0.75c0,0 0.02,0.82 -0.53,0.76 0,0 -0.12,-0.72 0.53,-0.76z"/>
   <path class="fil0" d="M45.57 1.54c0,0 -0.81,0.14 -0.83,-0.42 0,0 0.69,-0.23 0.83,0.42z"/>
   <path class="fil5" d="M63.12 5.8c1.06,0.01 1.03,-1.01 1.03,-1.01 -1.4,0.2 -1.03,1.01 -1.03,1.01z"/>
   <path class="fil2" d="M60.14 5.38c0.28,-0.92 -0.63,-1.07 -0.63,-1.07 -0.2,1.26 0.63,1.07 0.63,1.07z"/>
   <path class="fil1" d="M62.64 2.22c0.73,0 0.7,-0.69 0.7,-0.69 -0.96,0.14 -0.7,0.69 -0.7,0.69z"/>
   <path class="fil2" d="M58.45 8.41c0.72,0 0.7,-0.69 0.7,-0.69 -0.97,0.14 -0.7,0.69 -0.7,0.69z"/>
   <path class="fil2" d="M52.25 2.01c-0.15,-0.95 -1.04,-0.69 -1.04,-0.69 0.38,1.22 1.04,0.69 1.04,0.69z"/>
   <path class="fil0" d="M52.36 2.05c0.86,-0.43 0.34,-1.19 0.34,-1.19 -1.04,0.73 -0.34,1.19 -0.34,1.19z"/>
   <path class="fil0" d="M41.83 1.77c0.28,-0.92 -0.63,-1.07 -0.63,-1.07 -0.2,1.26 0.63,1.07 0.63,1.07z"/>
   <path class="fil2" d="M36.85 2.36c0.29,-0.92 -0.62,-1.07 -0.62,-1.07 -0.2,1.26 0.62,1.07 0.62,1.07z"/>
   <path class="fil3" d="M53.87 7.93l0.14 0c0,0 -0.71,-1.24 -1.12,-1.68 -0.26,-0.27 -0.51,-0.81 -0.34,-1.45 0.11,-0.41 0.07,-1.18 -0.1,-1.7 -0.09,-0.29 -0.19,-1.12 -0.05,-1.21l-0.24 -0.05c0,0 0.24,1.95 0.24,2.29 0,0.34 -0.32,1.87 0.49,2.42 0.35,0.24 1.12,1.37 0.98,1.37z"/>
   <path class="fil2" d="M34.52 6.66c-0.48,-0.79 0.33,-1.14 0.33,-1.14 0.48,1.12 -0.33,1.14 -0.33,1.14z"/>
   <path class="fil0" d="M35.9 8.35c-0.27,-0.88 0.6,-1.02 0.6,-1.02 0.18,1.2 -0.6,1.02 -0.6,1.02z"/>
   <path class="fil9" d="M72.04 13.24c0,0.05 0.01,0.1 0.02,0.15l0.3 -0 0 1.67 -72.34 0 -0.02 -1.38 0.92 -0.01 0 -0.01 -0.92 0.02c0.17,-0.02 0.57,-0.32 0.59,-0.56 0.01,-0.27 -0.3,-0.38 -0.31,-0.69 0,-0.26 0.18,-0.44 0.41,-0.44 0.3,-0 0.33,0.19 0.53,-0.14 0.07,-0.11 0.11,-0.27 0.24,-0.3 0.18,-0.04 0.15,0.09 0.27,0.18 0.18,0.14 0.52,0.06 0.34,-0.27 -0.12,-0.2 -0.47,-0.18 -0.55,-0.42 -0.11,-0.37 0.36,-0.37 0.03,-0.66 -0.1,-0.09 -0.16,-0.04 -0.24,-0.22 -0.03,-0.08 -0.1,-0.26 -0.06,-0.36 0.07,-0.17 0.44,-0.19 0.58,-0.19 0.18,-0.01 0.37,0.05 0.51,-0.08 0.27,-0.23 -0.05,-0.31 -0.07,-0.59 -0.03,-0.27 0.14,-0.31 0.33,-0.31 0.26,0 0.34,0.17 0.56,0.25 0.28,0.1 0.17,-0.2 0.39,-0.33 0.2,-0.11 0.38,0.05 0.38,0.33 0.4,0.01 0.5,-0.51 0.62,-0.83 0.07,-0.17 0.33,-0.45 0.51,-0.34 0.11,0.07 0.06,0.27 0.14,0.31 0.17,0.09 0.3,-0.14 0.22,-0.3 -0.06,-0.13 -0.29,-0.19 -0.39,-0.27 -0.43,-0.32 -0.18,-0.84 0.28,-0.63 0.16,0.07 0.24,0.24 0.42,0.26 0.26,0.03 0.24,-0.14 0.35,-0.35 0.11,-0.25 0.5,-0.84 0.76,-0.75 0.01,0.31 0.01,0.48 0.32,0.44 0.05,-0.15 -0.04,-0.57 0.05,-0.68 0.24,-0.29 0.31,0.28 0.34,0.41 0.05,0.21 0.2,0.43 0.07,0.66 -0.11,0.21 -0.47,0.31 -0.66,0.36 -0.18,0.05 -0.53,0.01 -0.59,0.26 -0.08,0.27 0.15,0.42 0.34,0.33 0.2,-0.1 0.11,-0.45 0.33,-0.44 0.1,0 0.14,0.16 0.21,0.2 0.09,0.05 0.16,0.05 0.27,0.05 -0.08,0.16 -0.09,0.43 -0.11,0.61 -0.03,0.32 0.06,0.21 0.15,0.44 0.05,0.16 -0.02,0.38 0.01,0.59 0.02,0.19 -0.03,0.39 -0.01,0.59 0.28,0.06 0.26,-0.15 0.3,-0.39 0.03,-0.25 0.23,-0.62 0.38,-0.19 0.07,0.18 -0.02,0.45 0.04,0.62 0.16,-0.21 0.26,-0.58 0.55,-0.23 0.01,-0.26 -0.22,-0.75 0.1,-0.8 0.24,-0.04 0.11,0.09 0.2,0.25 0.06,0.11 0.2,0.29 0.32,0.22 0.49,-0.28 -0.89,-1.02 0.2,-1.16 0.04,-0.16 0.02,-0.37 0.16,-0.47 0.14,0.12 0.33,0.36 0.45,0.12 0.11,-0.24 -0.29,-1.2 0.28,-0.93 0.13,0.06 0.18,0.34 0.37,0.25 0.11,-0.05 0.2,-0.4 0.3,-0.52 0.14,-0.18 0.2,-0.18 0.41,-0.17 0.05,0.42 -0.26,0.6 -0.39,0.92 0.22,0.09 0.63,-0.23 0.68,0.19 0.06,0.48 -0.64,0.27 -0.68,0.59 -0.07,0.44 0.54,0.13 0.63,0.14 0.41,0.05 -0.06,0.61 -0.02,0.83 0.01,0.05 0.56,-0.16 0.66,-0.04 0.14,0.17 -0.07,1.3 0.36,0.8 0.1,-0.11 0.05,-0.25 0.21,-0.19 0.2,0.07 0.11,0.76 0.11,0.98 0,0.33 0.01,0.67 -0.01,1 -0.01,0.16 -0.04,0.59 -0.06,1.01 0.03,-0.05 0.07,-0.09 0.11,-0.14 0.2,-0.22 0.67,-0.02 0.92,-0.13 0.19,-0.09 0.42,-0.63 0.56,-0.01 0.46,0.09 0.21,-0.37 0.12,-0.51 -0.1,-0.15 -0.6,-0.34 -0.04,-0.48 -0.66,-0.66 -0.27,-0.85 0.56,-0.88 -0.01,-0.2 0.03,-0.82 0.19,-0.94 0.32,-0.24 0.52,0.16 0.75,0.3 0.36,-0.41 0.64,-0.51 0.61,0.17 0.43,0.07 0.58,-0.49 0.73,-0.77 0.17,-0.33 0.47,-0.7 0.63,-0.06 0.45,-0.09 0.4,-0.63 0.96,-0.49 0.32,0.08 0.26,0.22 0.53,0.14 0.12,-0.03 0.36,-0.63 0.46,-0.02 0.07,-0.01 0.16,0.02 0.22,0.01 -0.02,0.12 0.03,0.28 0.01,0.41 0.07,0.01 0.14,0.06 0.22,0.06 -0.2,0.15 -0.19,0.51 0.09,0.56 0.04,0.25 -0.01,0.51 -0.13,0.73 0.3,0.07 0.42,-0.19 0.38,-0.45 0.27,-0.06 0.55,0.08 0.61,0.36 0.18,-0.22 -0.1,-0.96 0.45,-0.93 0.42,0.02 0.12,0.63 0.56,0.6 0.19,-0.49 -0.18,-0.57 -0.18,-1.05 0.28,-0.04 0.47,-0.22 0.42,-0.5 0.08,0.03 0.23,0.01 0.3,0.06 0,-0.18 0.01,-0.34 0.11,-0.46 -0.09,0.11 0.34,0.18 0.4,0.16 0.18,-0.06 0.31,-0.27 0.41,-0.42 0.12,-0.18 0.15,-0.31 0.39,-0.32 0.19,-0.01 0.32,0.03 0.26,0.25 -0.07,0.26 -0.41,0.39 -0.42,0.69 0.18,-0.02 0.74,-0.23 0.62,0.21 -0.07,0.25 -0.49,0.23 -0.7,0.24 -0.03,0.16 0.18,0.26 0.3,0.32 0.22,0.11 0.24,0 0.46,-0.01 0.03,0.21 -0.08,0.46 0,0.65 0.13,-0.27 0.4,-0.34 0.51,-0.03 0.03,-0.02 0.1,-0 0.14,-0.02 0.01,0.24 -0.08,0.6 0.22,0.65 0.36,0.06 0.38,-0.34 0.18,-0.53 -0.23,-0.23 -0.43,-0.38 -0.51,-0.73 -0.09,-0.46 0.26,-0.16 0.51,-0.21 0.05,-0.27 -0.38,-0.56 -0.11,-0.74 0.18,-0.12 0.33,0.19 0.38,0.31 0.12,0.25 0.18,0.44 0.14,0.71 -0.02,0.12 -0.03,0.22 -0.02,0.34 0.21,0.04 0.17,-0.54 0.19,-0.65 0.05,-0.23 0.01,-0.43 -0.11,-0.63 -0.06,-0.1 -0.09,-0.13 -0.1,-0.26 -0.01,-0.11 -0.01,-0.19 -0.03,-0.29 -0.03,-0.1 -0.02,-0.22 0.1,-0.29 0.15,-0.08 0.2,0.05 0.26,0.16 0.1,0.16 0.2,0.28 0.23,0.47 0.02,0.15 0.01,0.31 0.02,0.47 0.4,-0.25 0.43,0.26 0.32,0.53 -0.08,0.19 -0.18,0.26 -0.34,0.37 -0.11,0.08 -0.28,0.23 -0.27,0.39 0.11,0.02 0.18,-0.09 0.25,0.04 0.05,0.07 0.05,0.24 0.02,0.31 -0.05,0.11 -0.18,0.18 -0.19,0.3 -0.02,0.2 0.14,0.09 0.24,0.12 0.22,0.05 -0.01,0.43 0.06,0.58 0.06,0.13 0.28,0.04 0.39,0.11 0.17,0.11 0.14,0.38 0.27,0.54 -0.01,-0.4 -0.16,-0.68 0.21,-0.96 0.22,-0.17 0.32,-0.26 0.54,-0.12 0.16,0.1 0.21,0.19 0.39,0.25 0.12,0.04 0.3,0.1 0.45,0.07 0.24,-0.05 0.37,-0.29 0.61,-0.12 0.32,0.22 0.29,0.62 0.72,0.7 0.02,-0.09 0.05,-0.22 0.14,-0.25 0.14,-0.05 0.2,0.09 0.3,0.12 0.16,0.04 0.12,0.07 0.23,-0.06 0.13,-0.15 0.11,-0.23 -0.01,-0.32 -0.2,-0.14 -0.42,-0.09 -0.61,-0.27 -0.18,-0.18 -0.38,-0.36 -0.54,-0.55 0.16,-0.17 0.65,-0.09 0.82,0.02 0.25,0.16 0.33,0.48 0.67,0.48 0.38,-0 0.2,-0.34 0.03,-0.55 -0.18,-0.22 -0.49,-0.31 -0.42,-0.65 0.33,-0.08 0.7,0.37 0.95,0.48 0.35,0.16 0.67,-0.14 1.05,-0.11 0.05,0.29 0.09,0.41 -0.09,0.66 -0.11,0.16 -0.4,0.44 -0.35,0.64 0.41,0.18 1.06,0.02 1.48,-0.05 0.35,-0.05 0.64,0.02 0.95,0.13 0.08,-0.07 0.19,-0.14 0.32,-0.19 0.4,-0.16 0.76,-0.29 1.19,-0.22 0.45,0.07 1.13,0.24 1.56,0.05 0.05,-0.21 -0.26,-0.51 -0.37,-0.67 -0.18,-0.26 -0.15,-0.38 -0.09,-0.68 0.38,-0.03 0.72,0.28 1.09,0.11 0.27,-0.12 0.65,-0.59 1,-0.5 0.08,0.35 -0.25,0.45 -0.44,0.68 -0.18,0.21 -0.37,0.57 0.03,0.58 0.35,0 0.44,-0.34 0.7,-0.5 0.18,-0.11 0.68,-0.19 0.85,-0.02 -0.16,0.2 -0.38,0.39 -0.57,0.58 -0.2,0.2 -0.42,0.14 -0.63,0.29 -0.13,0.09 -0.16,0.18 -0.02,0.33 0.11,0.13 0.08,0.11 0.24,0.06 0.11,-0.03 0.17,-0.18 0.32,-0.12 0.09,0.04 0.12,0.17 0.15,0.27 0.45,-0.08 0.42,-0.5 0.75,-0.73 0.25,-0.18 0.39,0.08 0.63,0.13 0.15,0.03 0.34,-0.03 0.47,-0.07 0.2,-0.07 0.25,-0.16 0.41,-0.27 0.23,-0.15 0.33,-0.05 0.57,0.13 0.38,0.3 0.22,0.59 0.22,1.01 0.14,-0.17 0.11,-0.45 0.28,-0.57 0.11,-0.07 0.34,0.03 0.41,-0.11 0.07,-0.16 -0.17,-0.56 0.06,-0.61 0.11,-0.03 0.28,0.09 0.26,-0.12 -0.01,-0.13 -0.16,-0.2 -0.2,-0.31 -0.03,-0.07 -0.03,-0.25 0.01,-0.32 0.08,-0.13 0.15,-0.01 0.26,-0.04 0.01,-0.17 -0.16,-0.32 -0.28,-0.4 -0.16,-0.11 -0.26,-0.19 -0.35,-0.38 -0.12,-0.28 -0.09,-0.82 0.33,-0.55 0.01,-0.17 0,-0.33 0.02,-0.49 0.03,-0.2 0.14,-0.32 0.24,-0.5 0.06,-0.11 0.12,-0.24 0.28,-0.16 0.12,0.07 0.13,0.19 0.11,0.3 -0.03,0.1 -0.03,0.19 -0.03,0.3 -0.01,0.14 -0.05,0.17 -0.11,0.27 -0.14,0.21 -0.17,0.41 -0.11,0.66 0.02,0.12 -0.02,0.72 0.2,0.68 0,-0.13 -0.01,-0.24 -0.03,-0.36 -0.04,-0.29 0.03,-0.49 0.14,-0.75 0.07,-0.13 0.22,-0.46 0.41,-0.33 0.29,0.19 -0.17,0.49 -0.11,0.78 0.25,0.05 0.63,-0.27 0.53,0.22 -0.08,0.37 -0.29,0.52 -0.53,0.76 -0.2,0.2 -0.18,0.62 0.2,0.56 0.31,-0.05 0.21,-0.43 0.22,-0.68 0.04,0.01 0.11,0 0.15,0.02 0.11,-0.32 0.4,-0.25 0.53,0.03 0.08,-0.2 -0.03,-0.46 0,-0.68 0.22,0.02 0.26,0.13 0.48,0.02 0.13,-0.06 0.34,-0.16 0.32,-0.33 -0.21,-0.01 -0.65,0.01 -0.73,-0.25 -0.12,-0.46 0.47,-0.25 0.65,-0.22 -0.01,-0.32 -0.36,-0.45 -0.44,-0.72 -0.07,-0.23 0.07,-0.28 0.27,-0.26 0.25,0.02 0.28,0.15 0.4,0.34 0.1,0.15 0.24,0.38 0.43,0.44 0.06,0.02 0.51,-0.05 0.42,-0.16 0.11,0.13 0.11,0.29 0.11,0.48 0.08,-0.06 0.24,-0.04 0.32,-0.07 -0.05,0.3 0.16,0.49 0.44,0.53 0,0.51 -0.38,0.59 -0.18,1.1 0.46,0.03 0.15,-0.6 0.59,-0.63 0.57,-0.03 0.28,0.75 0.47,0.97 0.05,-0.3 0.35,-0.44 0.64,-0.38 -0.05,0.28 0.07,0.54 0.39,0.47 -0.13,-0.23 -0.18,-0.5 -0.13,-0.76 0.29,-0.04 0.3,-0.42 0.09,-0.58 0.08,-0.01 0.15,-0.06 0.23,-0.07 -0.02,-0.13 0.04,-0.3 0.01,-0.43 0.07,0 0.16,-0.02 0.23,-0.01 0.1,-0.63 0.36,-0.01 0.48,0.02 0.3,0.08 0.23,-0.07 0.57,-0.15 0.59,-0.14 0.53,0.42 1,0.52 0.17,-0.67 0.48,-0.27 0.65,0.07 0.16,0.3 0.32,0.88 0.76,0.81 -0.04,-0.72 0.26,-0.61 0.63,-0.18 0.24,-0.15 0.45,-0.57 0.78,-0.31 0.17,0.13 0.22,0.77 0.2,0.98 0.87,0.04 1.28,0.24 0.58,0.92 0.59,0.15 0.07,0.34 -0.04,0.5 -0.09,0.14 -0.35,0.62 0.13,0.53 0.14,-0.65 0.38,-0.08 0.59,0.01 0.25,0.12 0.76,-0.09 0.96,0.14 0.03,0.03 0.05,0.07 0.08,0.1 -0.01,-0.18 -0.03,-0.33 -0.03,-0.41 -0.01,-0.29 0,-0.58 0,-0.88 0,-0.19 -0.09,-0.8 0.12,-0.86 0.16,-0.05 0.11,0.07 0.21,0.17 0.46,0.44 0.24,-0.55 0.38,-0.69 0.11,-0.11 0.68,0.08 0.69,0.04 0.05,-0.2 -0.45,-0.69 -0.02,-0.73 0.09,-0.01 0.73,0.26 0.66,-0.12 -0.05,-0.28 -0.78,-0.1 -0.72,-0.52 0.06,-0.36 0.49,-0.08 0.71,-0.16 -0.14,-0.28 -0.46,-0.43 -0.41,-0.8 0.22,-0.01 0.29,-0.01 0.43,0.15 0.11,0.11 0.2,0.42 0.32,0.46 0.2,0.07 0.25,-0.17 0.39,-0.22 0.6,-0.24 0.18,0.6 0.3,0.81 0.12,0.21 0.33,0 0.47,-0.1 0.14,0.08 0.11,0.27 0.16,0.41 1.13,0.13 -0.31,0.78 0.2,1.02 0.14,0.07 0.28,-0.09 0.34,-0.19 0.08,-0.14 -0.04,-0.25 0.2,-0.22 0.33,0.04 0.1,0.48 0.11,0.7 0.31,-0.31 0.41,0.02 0.58,0.2 0.07,-0.15 -0.03,-0.39 0.04,-0.55 0.16,-0.37 0.36,-0.04 0.41,0.17 0.03,0.22 0.02,0.39 0.3,0.34 0.03,-0.17 -0.02,-0.35 0,-0.51 0.03,-0.19 -0.05,-0.38 0.01,-0.52 0.09,-0.2 0.19,-0.11 0.15,-0.38 -0.02,-0.16 -0.02,-0.4 -0.11,-0.53 0.11,0 0.19,0 0.28,-0.04 0.07,-0.04 0.11,-0.17 0.22,-0.18 0.23,-0.01 0.13,0.3 0.34,0.39 0.2,0.08 0.44,-0.05 0.36,-0.29 -0.07,-0.22 -0.43,-0.18 -0.62,-0.22 -0.2,-0.05 -0.57,-0.13 -0.7,-0.32 -0.12,-0.2 0.02,-0.39 0.08,-0.57 0.03,-0.11 0.11,-0.61 0.36,-0.36 0.09,0.09 0.01,0.47 0.06,0.59 0.32,0.04 0.32,-0.11 0.33,-0.38 0.28,-0.07 0.67,0.45 0.8,0.66 0.11,0.18 0.09,0.34 0.36,0.31 0.19,-0.02 0.28,-0.16 0.44,-0.22 0.48,-0.19 0.74,0.27 0.29,0.55 -0.11,0.07 -0.34,0.13 -0.4,0.24 -0.08,0.14 0.05,0.34 0.22,0.27 0.09,-0.04 0.04,-0.22 0.16,-0.28 0.18,-0.1 0.46,0.15 0.53,0.3 0.14,0.28 0.23,0.73 0.65,0.73 0,-0.24 0.19,-0.39 0.4,-0.29 0.23,0.11 0.12,0.37 0.41,0.29 0.23,-0.07 0.32,-0.21 0.59,-0.21 0.2,-0 0.37,0.03 0.34,0.27 -0.03,0.25 -0.36,0.32 -0.08,0.52 0.16,0.11 0.35,0.06 0.54,0.06 0.15,0.01 0.54,0.02 0.61,0.17 0.04,0.09 -0.03,0.24 -0.07,0.32 -0.08,0.16 -0.14,0.12 -0.25,0.2 -0.35,0.26 0.14,0.26 0.03,0.58 -0.07,0.21 -0.45,0.19 -0.57,0.37 -0.2,0.29 0.16,0.36 0.35,0.23 0.13,-0.08 0.09,-0.19 0.28,-0.16 0.14,0.03 0.18,0.17 0.25,0.26 0.2,0.29 0.24,0.12 0.55,0.12 0.24,0 0.43,0.16 0.42,0.39 -0.01,0.27 -0.34,0.36 -0.32,0.6z"/>
   <path class="fil1" d="M2.07 15.06c-0.02,-0.03 -0.05,-0.07 -0.1,-0.12 -0.1,-0.09 -0.16,-0.04 -0.24,-0.22 -0.03,-0.08 -0.1,-0.26 -0.06,-0.36 0.07,-0.17 0.44,-0.19 0.58,-0.19 0.18,-0.01 0.37,0.05 0.51,-0.08 0.27,-0.23 -0.05,-0.31 -0.07,-0.59 -0.03,-0.27 0.14,-0.31 0.33,-0.31 0.26,0 0.34,0.17 0.56,0.25 0.28,0.1 0.17,-0.2 0.39,-0.33 0.2,-0.11 0.38,0.05 0.38,0.33 0.4,0.01 0.5,-0.51 0.62,-0.83 0.07,-0.17 0.33,-0.45 0.51,-0.34 0.11,0.07 0.06,0.27 0.14,0.31 0.17,0.09 0.3,-0.14 0.22,-0.3 -0.06,-0.13 -0.29,-0.19 -0.39,-0.27 -0.43,-0.32 -0.18,-0.84 0.28,-0.63 0.16,0.07 0.24,0.24 0.42,0.26 0.26,0.03 0.24,-0.14 0.35,-0.35 0.11,-0.25 0.5,-0.84 0.76,-0.75 0.01,0.31 0.01,0.48 0.32,0.44 0.05,-0.15 -0.04,-0.57 0.05,-0.68 0.24,-0.29 0.31,0.28 0.34,0.41 0.05,0.21 0.2,0.43 0.07,0.66 -0.11,0.21 -0.47,0.31 -0.66,0.36 -0.18,0.05 -0.53,0.01 -0.59,0.26 -0.08,0.27 0.15,0.42 0.34,0.33 0.2,-0.1 0.11,-0.45 0.33,-0.44 0.1,0 0.14,0.16 0.21,0.2 0.09,0.05 0.16,0.05 0.27,0.05 -0.08,0.16 -0.09,0.43 -0.11,0.61 -0.03,0.32 0.06,0.21 0.15,0.44 0.05,0.16 -0.02,0.38 0.01,0.59 0.02,0.19 -0.03,0.39 -0.01,0.59 0.28,0.06 0.26,-0.15 0.3,-0.39 0.03,-0.25 0.23,-0.62 0.38,-0.19 0.07,0.18 -0.02,0.45 0.04,0.62 0.16,-0.21 0.26,-0.58 0.55,-0.23 0.01,-0.26 -0.22,-0.75 0.1,-0.8 0.24,-0.04 0.11,0.09 0.2,0.25 0.06,0.11 0.2,0.29 0.32,0.22 0.49,-0.28 -0.89,-1.02 0.2,-1.16 0.04,-0.16 0.02,-0.37 0.16,-0.47 0.14,0.12 0.33,0.36 0.45,0.12 0.11,-0.24 -0.29,-1.2 0.28,-0.93 0.13,0.06 0.18,0.34 0.37,0.25 0.11,-0.05 0.2,-0.4 0.3,-0.52 0.14,-0.18 0.2,-0.18 0.41,-0.17 0.05,0.42 -0.26,0.6 -0.39,0.92 0.22,0.09 0.63,-0.23 0.68,0.19 0.06,0.48 -0.64,0.27 -0.68,0.59 -0.07,0.44 0.54,0.13 0.63,0.14 0.41,0.05 -0.06,0.61 -0.02,0.83 0.01,0.05 0.56,-0.16 0.66,-0.04 0.14,0.17 -0.07,1.3 0.36,0.8 0.1,-0.11 0.05,-0.25 0.21,-0.19 0.19,0.06 0.13,0.66 0.12,0.92l7.43 0c0.12,-0.22 0.17,-0.47 0.12,-0.72 -0.28,-0.04 -0.29,-0.4 -0.09,-0.56 -0.08,-0.01 -0.15,-0.05 -0.22,-0.06 0.02,-0.12 -0.03,-0.28 -0.01,-0.41 -0.07,0 -0.16,-0.02 -0.22,-0.01 -0.09,-0.6 -0.34,-0.01 -0.46,0.02 -0.28,0.08 -0.22,-0.06 -0.53,-0.14 -0.56,-0.13 -0.51,0.4 -0.96,0.49 -0.16,-0.64 -0.46,-0.26 -0.63,0.06 -0.15,0.29 -0.3,0.84 -0.73,0.77 0.03,-0.68 -0.24,-0.58 -0.61,-0.17 -0.23,-0.14 -0.43,-0.54 -0.75,-0.3 -0.16,0.12 -0.2,0.73 -0.19,0.94 -0.46,-2.56 -2.19,-0.32 -2.19,0.08l-11.51 0zm19.17 0c0.15,-0.06 0.21,-0.25 0.18,-0.44 0.27,-0.06 0.55,0.08 0.61,0.36 0.18,-0.22 -0.1,-0.96 0.45,-0.93 0.42,0.02 0.12,0.63 0.56,0.6 0.19,-0.49 -0.18,-0.57 -0.18,-1.05 0.28,-0.04 0.47,-0.22 0.42,-0.5 0.08,0.03 0.23,0.01 0.3,0.06 0,-0.18 0.01,-0.34 0.11,-0.46 -0.09,0.11 0.34,0.18 0.4,0.16 0.18,-0.06 0.31,-0.27 0.41,-0.42 0.12,-0.18 0.15,-0.31 0.39,-0.32 0.19,-0.01 0.32,0.03 0.26,0.25 -0.07,0.26 -0.41,0.39 -0.42,0.69 0.18,-0.02 0.74,-0.23 0.62,0.21 -0.07,0.25 -0.49,0.23 -0.7,0.24 -0.03,0.16 0.18,0.26 0.3,0.32 0.22,0.11 0.24,0 0.46,-0.01 0.03,0.21 -0.08,0.46 0,0.65 0.13,-0.27 0.4,-0.34 0.51,-0.03 0.03,-0.02 0.1,-0 0.14,-0.02 0.01,0.24 -0.08,0.6 0.22,0.65 0.36,0.06 0.38,-0.34 0.18,-0.53 -0.23,-0.23 -0.43,-0.38 -0.51,-0.73 -0.09,-0.46 0.26,-0.16 0.51,-0.21 0.05,-0.27 -0.38,-0.56 -0.11,-0.74 0.18,-0.12 0.33,0.19 0.38,0.31 0.12,0.25 0.18,0.44 0.14,0.71 -0.02,0.12 -0.03,0.22 -0.02,0.34 0.21,0.04 0.17,-0.54 0.19,-0.65 0.05,-0.23 0.01,-0.43 -0.11,-0.63 -0.06,-0.1 -0.09,-0.13 -0.1,-0.26 -0.01,-0.11 -0.01,-0.19 -0.03,-0.29 -0.03,-0.1 -0.02,-0.22 0.1,-0.29 0.15,-0.08 0.2,0.05 0.26,0.16 0.1,0.16 0.2,0.28 0.23,0.47 0.02,0.15 0.01,0.31 0.02,0.47 0.4,-0.25 0.43,0.26 0.32,0.53 -0.08,0.19 -0.18,0.26 -0.34,0.37 -0.11,0.08 -0.28,0.23 -0.27,0.39 0.11,0.02 0.18,-0.09 0.25,0.04 0.05,0.07 0.05,0.24 0.02,0.31 -0.04,0.09 -0.13,0.15 -0.17,0.24l-5.98 0zm9.45 0c-0.04,-0.04 -0.07,-0.08 -0.11,-0.12 0.16,-0.17 0.65,-0.09 0.82,0.02 0.05,0.03 0.09,0.06 0.13,0.1l-0.83 0zm1.53 0c-0.04,-0.06 -0.08,-0.12 -0.12,-0.17 -0.18,-0.22 -0.49,-0.31 -0.42,-0.65 0.33,-0.08 0.7,0.37 0.95,0.48 0.35,0.16 0.67,-0.14 1.05,-0.11 0.04,0.2 0.06,0.31 0.02,0.45l-1.48 0zm1.71 0c0.32,-0.62 0.65,-1.36 0.89,-1.4 0.45,-0.07 0.79,1.37 0.92,1.31 0.02,0.03 0.04,0.06 0.06,0.08l-1.87 0zm4.53 0c-0.03,-0.04 -0.06,-0.07 -0.08,-0.1 -0.18,-0.26 -0.15,-0.38 -0.09,-0.68 0.38,-0.03 0.72,0.28 1.09,0.11 0.27,-0.12 0.65,-0.59 1,-0.5 0.08,0.35 -0.25,0.45 -0.44,0.68 -0.12,0.15 -0.26,0.38 -0.18,0.5l-1.3 0zm1.78 0c0.16,-0.11 0.26,-0.31 0.44,-0.42 0.18,-0.11 0.68,-0.19 0.85,-0.02 -0.12,0.15 -0.28,0.29 -0.42,0.44l-0.87 0zm3.08 0c0.14,-0.08 0.23,-0.07 0.34,0l-0.34 0zm1.41 0c0,-0.07 0.03,-0.11 0.1,-0.13 0.11,-0.03 0.28,0.09 0.26,-0.12 -0.01,-0.13 -0.16,-0.2 -0.2,-0.31 -0.03,-0.07 -0.03,-0.25 0.01,-0.32 0.08,-0.13 0.15,-0.01 0.26,-0.04 0.01,-0.17 -0.16,-0.32 -0.28,-0.4 -0.16,-0.11 -0.26,-0.19 -0.35,-0.38 -0.12,-0.28 -0.09,-0.82 0.33,-0.55 0.01,-0.17 0,-0.33 0.02,-0.49 0.03,-0.2 0.14,-0.32 0.24,-0.5 0.06,-0.11 0.12,-0.24 0.28,-0.16 0.12,0.07 0.13,0.19 0.11,0.3 -0.03,0.1 -0.03,0.19 -0.03,0.3 -0.01,0.14 -0.05,0.17 -0.11,0.27 -0.14,0.21 -0.17,0.41 -0.11,0.66 0.02,0.12 -0.02,0.72 0.2,0.68 0,-0.13 -0.01,-0.24 -0.03,-0.36 -0.04,-0.29 0.03,-0.49 0.14,-0.75 0.07,-0.13 0.22,-0.46 0.41,-0.33 0.29,0.19 -0.17,0.49 -0.11,0.78 0.25,0.05 0.63,-0.27 0.53,0.22 -0.08,0.37 -0.29,0.52 -0.53,0.76 -0.2,0.2 -0.18,0.62 0.2,0.56 0.31,-0.05 0.21,-0.43 0.22,-0.68 0.04,0.01 0.11,0 0.15,0.02 0.11,-0.32 0.4,-0.25 0.53,0.03 0.08,-0.2 -0.03,-0.46 0,-0.68 0.22,0.02 0.26,0.13 0.48,0.02 0.13,-0.06 0.34,-0.16 0.32,-0.33 -0.21,-0.01 -0.65,0.01 -0.73,-0.25 -0.12,-0.46 0.47,-0.25 0.65,-0.22 -0.01,-0.32 -0.36,-0.45 -0.44,-0.72 -0.07,-0.23 0.07,-0.28 0.27,-0.26 0.25,0.02 0.28,0.15 0.4,0.34 0.1,0.15 0.24,0.38 0.43,0.44 0.06,0.02 0.51,-0.05 0.42,-0.16 0.11,0.13 0.11,0.29 0.11,0.48 0.08,-0.06 0.24,-0.04 0.32,-0.07 -0.05,0.3 0.16,0.49 0.44,0.53 0,0.51 -0.38,0.59 -0.18,1.1 0.46,0.03 0.15,-0.6 0.59,-0.63 0.57,-0.03 0.28,0.75 0.47,0.97 0.05,-0.3 0.35,-0.44 0.64,-0.38 -0.05,0.28 0.07,0.54 0.39,0.47 -0.13,-0.23 -0.18,-0.5 -0.13,-0.76 0.29,-0.04 0.3,-0.42 0.09,-0.58 0.08,-0.01 0.15,-0.06 0.23,-0.07 -0.02,-0.13 0.04,-0.3 0.01,-0.43 0.07,0 0.16,-0.02 0.23,-0.01 0.1,-0.63 0.36,-0.01 0.48,0.02 0.3,0.08 0.23,-0.07 0.57,-0.15 0.59,-0.14 0.53,0.42 1,0.52 0.17,-0.67 0.48,-0.27 0.65,0.07 0.16,0.3 0.32,0.88 0.76,0.81 -0.04,-0.72 0.26,-0.61 0.63,-0.18 0.24,-0.15 0.45,-0.57 0.78,-0.31 0.17,0.13 0.22,0.77 0.2,0.98 2.16,-2.44 1.78,-1.67 2.15,-1.42 0.16,-0.05 0.34,1.55 0.44,1.64 0.46,0.44 0.24,-0.55 0.38,-0.69 0.11,-0.11 0.68,0.08 0.69,0.04 0.05,-0.2 -0.45,-0.69 -0.02,-0.73 0.09,-0.01 0.73,0.26 0.66,-0.12 -0.05,-0.28 -0.78,-0.1 -0.72,-0.52 0.06,-0.36 0.49,-0.08 0.71,-0.16 -0.14,-0.28 -0.46,-0.43 -0.41,-0.8 0.22,-0.01 0.29,-0.01 0.43,0.15 0.11,0.11 0.2,0.42 0.32,0.46 0.2,0.07 0.25,-0.17 0.39,-0.22 0.6,-0.24 0.18,0.6 0.3,0.81 0.12,0.21 0.33,0 0.47,-0.1 0.14,0.08 0.11,0.27 0.16,0.41 1.13,0.13 -0.31,0.78 0.2,1.02 0.14,0.07 0.28,-0.09 0.34,-0.19 0.08,-0.14 -0.04,-0.25 0.2,-0.22 0.33,0.04 0.1,0.48 0.11,0.7 0.31,-0.31 0.41,0.02 0.58,0.2 0.07,-0.15 -0.03,-0.39 0.04,-0.55 0.16,-0.37 0.36,-0.04 0.41,0.17 0.03,0.22 0.02,0.39 0.3,0.34 0.03,-0.17 -0.02,-0.35 0,-0.51 0.03,-0.19 -0.05,-0.38 0.01,-0.52 0.09,-0.2 0.19,-0.11 0.15,-0.38 -0.02,-0.16 -0.02,-0.4 -0.11,-0.53 0.11,0 0.19,0 0.28,-0.04 0.07,-0.04 0.11,-0.17 0.22,-0.18 0.23,-0.01 0.13,0.3 0.34,0.39 0.2,0.08 0.44,-0.05 0.36,-0.29 -0.07,-0.22 -0.43,-0.18 -0.62,-0.22 -0.2,-0.05 -0.57,-0.13 -0.7,-0.32 -0.12,-0.2 0.02,-0.39 0.08,-0.57 0.03,-0.11 0.11,-0.61 0.36,-0.36 0.09,0.09 0.01,0.47 0.06,0.59 0.32,0.04 0.32,-0.11 0.33,-0.38 0.28,-0.07 0.67,0.45 0.8,0.66 0.11,0.18 0.09,0.34 0.36,0.31 0.19,-0.02 0.28,-0.16 0.44,-0.22 0.48,-0.19 0.74,0.27 0.29,0.55 -0.11,0.07 -0.34,0.13 -0.4,0.24 -0.08,0.14 0.05,0.34 0.22,0.27 0.09,-0.04 0.04,-0.22 0.16,-0.28 0.18,-0.1 0.46,0.15 0.53,0.3 0.14,0.28 0.23,0.73 0.65,0.73 0,-0.24 0.19,-0.39 0.4,-0.29 0.23,0.11 0.12,0.37 0.41,0.29 0.23,-0.07 0.32,-0.21 0.59,-0.21 0.2,-0 0.37,0.03 0.34,0.27 -0.03,0.25 -0.36,0.32 -0.08,0.52 0.16,0.11 0.35,0.06 0.54,0.06 0.15,0.01 0.54,0.02 0.61,0.17 0.02,0.04 0.01,0.1 -0,0.16l-27.06 0z"/>
  </g>
 </g>
</svg>
