<?xml version="1.0" encoding="UTF-8"?>
<!DOCTYPE svg PUBLIC "-//W3C//DTD SVG 1.1//EN" "http://www.w3.org/Graphics/SVG/1.1/DTD/svg11.dtd">
<!-- Creator: CorelDRAW 2019 (64-Bit) -->
<svg xmlns="http://www.w3.org/2000/svg" xml:space="preserve" width="24.3783mm" height="5.075mm" version="1.1" style="shape-rendering:geometricPrecision; text-rendering:geometricPrecision; image-rendering:optimizeQuality; fill-rule:evenodd; clip-rule:evenodd"
viewBox="0 0 78.48 16.34"
 xmlns:xlink="http://www.w3.org/1999/xlink">
 <defs>
  <style type="text/css">
   <![CDATA[
    .fil2 {fill:#EBECEC;fill-rule:nonzero}
    .fil0 {fill:#D9DADA;fill-rule:nonzero}
    .fil1 {fill:#C5C6C6;fill-rule:nonzero}
    .fil3 {fill:#B2B3B3;fill-rule:nonzero}
   ]]>
  </style>
 </defs>
 <g id="Capa_x0020_1">
  <metadata id="CorelCorpID_0Corel-Layer"/>
  <path class="fil0" d="M19.98 6.32c0,0 -0.43,0.38 -0.83,0.9 -0.31,-0.15 -0.9,-0.3 -1.56,0.35 0,0 0.55,0.47 1.09,0.37 -0.07,0.13 -0.12,0.27 -0.16,0.4 -2.02,-0.76 -1.97,0.81 -1.97,0.81 0.89,0.19 1.4,-0.05 1.67,-0.32 -0.36,0.56 -0.91,1.43 -1.05,1.53l0 0.3c0,0 0.2,-0.29 0.45,-0.65l0.04 0.4 -0.05 0.1c-0.3,0.91 0.51,1.31 0.51,1.31 0.3,-1.11 -0.35,-1.41 -0.35,-1.41l-0.05 -0.51 -0.04 0.02c0.17,-0.24 0.34,-0.49 0.5,-0.72 -0.34,0.98 0.75,1.31 0.75,1.31 0.23,-0.78 -0.54,-1.31 -0.68,-1.4 0.18,-0.27 0.31,-0.47 0.33,-0.52 -0.02,0.06 -0.05,0.15 -0.05,0.15 0,0 1.31,-2.22 1.52,-2.22l-0.05 -0.2z"/>
  <path class="fil0" d="M19.78 6.37c0,0 -0.61,-0.91 -1.77,-0.25 0,0 0.86,1.26 1.77,0.25z"/>
  <path class="fil0" d="M15.88 10.56c0,0 0.66,0.61 1.27,-0.2 0,0 -0.61,-0.55 -1.27,0.2z"/>
  <path class="fil0" d="M16.74 10.96c-0.7,0.66 -0.04,1.31 -0.04,1.31 0.81,-1.01 0.04,-1.31 0.04,-1.31z"/>
  <path class="fil0" d="M18.86 8.29c-0.61,0.81 0.71,1.62 0.71,1.62 0.3,-1.41 -0.71,-1.62 -0.71,-1.62z"/>
  <path class="fil0" d="M19.82 7.98c0,0 1.01,-0.56 1.57,0 0,0 -1.16,0.66 -1.57,0z"/>
  <path class="fil0" d="M20.66 9.02c-0.86,0.45 -0.4,1.25 -0.4,1.25 1.05,-0.76 0.4,-1.25 0.4,-1.25z"/>
  <path class="fil0" d="M20.89 9.52c0.73,0.63 1.31,-0.1 1.31,-0.1 -1.1,-0.68 -1.31,0.1 -1.31,0.1z"/>
  <path class="fil0" d="M20.8 11.43c-0.96,0.15 -0.78,1.06 -0.78,1.06 1.24,-0.38 0.78,-1.06 0.78,-1.06z"/>
  <path class="fil0" d="M20.86 10.87c0.42,0.87 1.24,0.43 1.24,0.43 -0.73,-1.07 -1.24,-0.43 -1.24,-0.43z"/>
  <path class="fil0" d="M21.41 12.07c0.47,0.84 1.26,0.36 1.26,0.36 -0.79,-1.02 -1.26,-0.36 -1.26,-0.36z"/>
  <path class="fil0" d="M23.97 6.77c0,0 -1.11,-0.25 -1.62,0.4 0,0 0.31,0.35 1.37,0.1 0,0 -0.56,0.25 -0.56,1.21 0,0 0.4,0.05 0.75,-0.91 0,0 -0.3,1.46 0.56,1.97 0,0 0.26,-0.61 -0.15,-1.11 0,0 0.55,0.05 0.6,0.2 0,0 0.56,-0.81 -0.7,-1.52 0,0 0.7,-0.3 0.15,-0.76 0,0 -0.56,-0.61 -0.56,-0.76 0,-0.15 0,-0.15 0,-0.15l-0.3 0.05c0,0 -0.05,0.71 0.45,1.16l0 0.1z"/>
  <path class="fil0" d="M8.86 5.1c0,0 1.26,0.81 0.75,1.82 0,0 -1.41,-0.55 -1.11,-1.77l0.35 -0.05z"/>
  <path class="fil0" d="M7.85 7.78c0,0 -1.01,0.71 -1.11,1.26l-0.05 -0.55c0,0 0.92,-0.91 1.06,-0.91l0.1 0.2z"/>
  <path class="fil0" d="M6.69 8.49c0,0 -1.46,-0.35 -1.61,0.35 0,0 0.86,0.56 1.61,-0.35z"/>
  <path class="fil0" d="M6.95 8.49c0,0 -0.15,1.57 -1.27,0.91 0,0 -0.05,-0.76 1.27,-0.91z"/>
  <path class="fil0" d="M7.7 7.88c0,0 0.05,2.07 -1.11,3.84 -0.52,0.78 -0.15,3.33 -0.05,3.74l-0.26 0.05c0,0 -0.27,-2.9 0.05,-3.79 0.32,-0.88 1.41,-1.72 1.06,-3.59l0.3 -0.25z"/>
  <path class="fil0" d="M7.25 9.27c-0.75,-0 -0.73,0.72 -0.73,0.72 1,-0.14 0.73,-0.72 0.73,-0.72z"/>
  <path class="fil0" d="M7.55 9.49c-0.43,0.61 0.18,1.01 0.18,1.01 0.45,-0.9 -0.18,-1.01 -0.18,-1.01z"/>
  <path class="fil0" d="M6.7 10.89c-0.75,-0 -0.73,0.72 -0.73,0.72 1,-0.14 0.73,-0.72 0.73,-0.72z"/>
  <path class="fil0" d="M7.2 12.04c0.31,-0.68 -0.35,-0.96 -0.35,-0.96 -0.29,0.97 0.35,0.96 0.35,0.96z"/>
  <path class="fil0" d="M6.24 12.1c-0.75,-0 -0.73,0.72 -0.73,0.72 1,-0.14 0.73,-0.72 0.73,-0.72z"/>
  <path class="fil0" d="M6.74 13.25c0.31,-0.68 -0.35,-0.96 -0.35,-0.96 -0.29,0.97 0.35,0.96 0.35,0.96z"/>
  <path class="fil0" d="M6.23 13.45c-0.5,-0 -0.48,0.48 -0.48,0.48 0.67,-0.09 0.48,-0.48 0.48,-0.48z"/>
  <path class="fil0" d="M6.08 13.22c-0.31,-0.39 -0.67,-0.07 -0.67,-0.07 0.5,0.45 0.67,0.07 0.67,0.07z"/>
  <path class="fil0" d="M6.82 14.42c-0.04,-0.5 -0.52,-0.44 -0.52,-0.44 0.15,0.65 0.52,0.44 0.52,0.44z"/>
  <path class="fil0" d="M6.35 14.78c-0.75,-0 -0.73,0.72 -0.73,0.72 1,-0.14 0.73,-0.72 0.73,-0.72z"/>
  <path class="fil0" d="M32.6 4.3c0,0 -1.44,1.99 -0.23,3.92 0,0 0.42,1.92 -0.18,2.56l-0.18 0c0,0 0.54,-1.26 0.18,-2.4 0,0 -1,-2.55 -0.04,-3.87l0.45 -0.21z"/>
  <path class="fil0" d="M32.14 7.86c0,0 1.12,0.47 1,0.99l0.31 0c0,0 -0.25,-0.76 -1.49,-1.43l0.19 0.44z"/>
  <path class="fil0" d="M33.21 8.22c0,0 0.72,-0.96 1.8,-0.06 0,0 -1.08,0.9 -1.8,0.06z"/>
  <path class="fil0" d="M33.05 10.45c0,0 -0.75,-1.19 0.17,-1.8 0,0 0.86,0.84 -0.17,1.8z"/>
  <path class="fil0" d="M35.54 9.36c0,0 -1.24,0.66 -1.78,-0.31 0,0 0.9,-0.8 1.78,0.31z"/>
  <path class="fil0" d="M33.34 8.79c0,0 0.45,0.15 0.59,0.27l-0.06 0.12 -0.46 -0.06 -0.07 -0.33z"/>
  <path class="fil0" d="M32.11 10.69c0,0 0.76,0.93 -0.37,1.76 0,0 -0.62,-1.27 0.37,-1.76z"/>
  <path class="fil0" d="M32.08 10.6c0,0 1.13,-0.42 1.54,0.93 0,0 -1.4,0.17 -1.54,-0.93z"/>
  <path class="fil0" d="M30.66 10.44c0,0 0.28,-1.17 1.63,-0.77 0,0 -0.64,1.26 -1.63,0.77z"/>
  <path class="fil0" d="M31.75 6.68c0,0 1.02,-0.62 1.7,0.62 0,0 -1.35,0.43 -1.7,-0.62z"/>
  <path class="fil0" d="M31.83 5.97c0,0 -0.47,0.79 -1.36,0.2 0,0 0.74,-0.78 1.36,-0.2z"/>
  <path class="fil0" d="M30.22 4.89c0,0 1.03,-0.62 1.69,0.62 0,0 -1.34,0.43 -1.69,-0.62z"/>
  <path class="fil0" d="M26.44 7.77l-0.15 0c0,0 0.73,1.3 1.16,1.75 0.27,0.28 0.53,0.85 0.36,1.51 -0.12,0.43 -0.08,1.23 0.09,1.76 0.1,0.3 0.21,1.16 0.05,1.26l0.26 0.05c0,0 -0.26,-2.02 -0.26,-2.37 0,-0.35 0.33,-1.96 -0.51,-2.52 -0.36,-0.25 -1.16,-1.44 -1.01,-1.44z"/>
  <path class="fil0" d="M27.4 9.1c0,0 1.01,-0.56 1.42,0.4 0,0 -1.22,0.45 -1.42,-0.4z"/>
  <path class="fil0" d="M29.41 10.16c0,0 -1,0.83 -1.46,0.09 0,0 0.77,-0.86 1.46,-0.09z"/>
  <path class="fil0" d="M28.83 11.48c0,0 -1.03,-0.23 -0.79,-0.9 0,0 0.94,0.07 0.79,0.9z"/>
  <path class="fil0" d="M27.92 11.69c0,0 -0.97,1.36 -1.8,0.61 0,0 0.68,-1.32 1.8,-0.61z"/>
  <path class="fil0" d="M28.78 12.7c0,0 -1.03,-0.22 -0.79,-0.9 0,0 0.94,0.07 0.79,0.9z"/>
  <path class="fil0" d="M28.92 13.86c0,0 -1.03,-0.23 -0.78,-0.9 0,0 0.94,0.07 0.78,0.9z"/>
  <path class="fil0" d="M27.12 13.63c0,0 -0.03,-1.05 0.69,-0.98 0,0 0.15,0.93 -0.69,0.98z"/>
  <path class="fil0" d="M27.57 14.74c0,0 -0.02,-0.85 0.56,-0.79 0,0 0.12,0.75 -0.56,0.79z"/>
  <path class="fil0" d="M28.09 13.92c0,0 0.83,-0.15 0.86,0.43 0,0 -0.72,0.24 -0.86,-0.43z"/>
  <path class="fil0" d="M9.88 9.5c-1.1,-0 -1.07,1.05 -1.07,1.05 1.46,-0.21 1.07,-1.05 1.07,-1.05z"/>
  <path class="fil1" d="M12.97 9.93c-0.29,0.95 0.65,1.11 0.65,1.11 0.2,-1.3 -0.65,-1.11 -0.65,-1.11z"/>
  <path class="fil0" d="M10.39 13.21c-0.75,-0 -0.73,0.72 -0.73,0.72 1,-0.14 0.73,-0.72 0.73,-0.72z"/>
  <path class="fil0" d="M14.73 6.8c-0.75,-0.01 -0.72,0.72 -0.72,0.72 1,-0.14 0.72,-0.72 0.72,-0.72z"/>
  <path class="fil0" d="M21.16 13.42c0.15,0.99 1.07,0.71 1.07,0.71 -0.39,-1.26 -1.07,-0.71 -1.07,-0.71z"/>
  <path class="fil0" d="M21.05 13.39c-0.89,0.45 -0.35,1.24 -0.35,1.24 1.08,-0.76 0.35,-1.24 0.35,-1.24z"/>
  <path class="fil0" d="M31.97 13.67c-0.3,0.95 0.64,1.11 0.64,1.11 0.21,-1.31 -0.64,-1.11 -0.64,-1.11z"/>
  <path class="fil0" d="M37.66 11.89c-0.29,0.96 0.65,1.11 0.65,1.11 0.2,-1.31 -0.65,-1.11 -0.65,-1.11z"/>
  <path class="fil0" d="M19.47 7.26l-0.15 0c0,0 0.74,1.3 1.16,1.75 0.26,0.28 0.53,0.85 0.35,1.51 -0.11,0.43 -0.07,1.23 0.1,1.76 0.1,0.3 0.21,1.16 0.05,1.26l0.26 0.05c0,0 -0.26,-2.02 -0.26,-2.37 0,-0.35 0.33,-1.96 -0.51,-2.52 -0.36,-0.25 -1.16,-1.43 -1.01,-1.43z"/>
  <path class="fil2" d="M78.14 1.97c0,-0.05 0.01,-0.11 0.02,-0.16l0.32 0 0 -1.81 -78.46 0 -0.02 1.5 1 0.01 0 0.01 -1 -0.02c0.18,0.02 0.62,0.35 0.64,0.61 0.01,0.3 -0.33,0.41 -0.34,0.75 0,0.28 0.19,0.48 0.44,0.48 0.33,0 0.36,-0.21 0.57,0.15 0.07,0.12 0.12,0.29 0.26,0.33 0.2,0.05 0.16,-0.09 0.29,-0.19 0.2,-0.16 0.56,-0.07 0.37,0.29 -0.13,0.22 -0.51,0.19 -0.59,0.46 -0.12,0.4 0.39,0.4 0.03,0.72 -0.11,0.09 -0.18,0.04 -0.26,0.24 -0.04,0.09 -0.11,0.28 -0.07,0.39 0.07,0.19 0.48,0.2 0.63,0.21 0.2,0.01 0.4,-0.05 0.56,0.08 0.29,0.25 -0.05,0.33 -0.08,0.64 -0.03,0.29 0.15,0.34 0.36,0.33 0.28,-0 0.37,-0.18 0.61,-0.27 0.3,-0.1 0.18,0.22 0.42,0.35 0.22,0.12 0.42,-0.06 0.41,-0.36 0.43,-0.01 0.54,0.55 0.67,0.9 0.07,0.19 0.36,0.49 0.55,0.37 0.12,-0.07 0.07,-0.29 0.15,-0.34 0.18,-0.1 0.32,0.16 0.24,0.33 -0.07,0.14 -0.31,0.21 -0.42,0.29 -0.46,0.34 -0.2,0.91 0.3,0.68 0.17,-0.08 0.26,-0.26 0.45,-0.28 0.29,-0.03 0.26,0.16 0.38,0.38 0.12,0.27 0.54,0.91 0.83,0.82 0.01,-0.34 0.01,-0.52 0.34,-0.47 0.05,0.16 -0.04,0.62 0.06,0.74 0.26,0.31 0.34,-0.31 0.37,-0.45 0.06,-0.23 0.21,-0.47 0.08,-0.71 -0.12,-0.23 -0.51,-0.33 -0.72,-0.39 -0.2,-0.05 -0.57,-0.01 -0.64,-0.28 -0.09,-0.29 0.16,-0.45 0.37,-0.36 0.22,0.1 0.12,0.49 0.36,0.48 0.11,-0 0.15,-0.17 0.23,-0.22 0.1,-0.05 0.18,-0.06 0.29,-0.05 -0.09,-0.17 -0.09,-0.46 -0.12,-0.66 -0.04,-0.34 0.07,-0.22 0.16,-0.47 0.06,-0.17 -0.02,-0.41 0.01,-0.64 0.02,-0.21 -0.04,-0.42 -0.01,-0.63 0.3,-0.06 0.29,0.16 0.32,0.43 0.04,0.27 0.25,0.67 0.42,0.21 0.07,-0.2 -0.02,-0.49 0.04,-0.68 0.17,0.23 0.28,0.63 0.6,0.25 0.01,0.28 -0.23,0.82 0.11,0.87 0.26,0.04 0.12,-0.1 0.21,-0.27 0.07,-0.12 0.21,-0.32 0.35,-0.24 0.53,0.3 -0.97,1.1 0.21,1.26 0.04,0.17 0.02,0.41 0.17,0.51 0.15,-0.13 0.36,-0.39 0.49,-0.12 0.12,0.26 -0.31,1.3 0.31,1 0.14,-0.07 0.2,-0.37 0.4,-0.28 0.12,0.05 0.22,0.43 0.33,0.57 0.15,0.19 0.22,0.2 0.45,0.18 0.06,-0.46 -0.28,-0.65 -0.42,-0.99 0.23,-0.1 0.68,0.25 0.74,-0.2 0.07,-0.52 -0.7,-0.3 -0.74,-0.64 -0.07,-0.48 0.59,-0.14 0.68,-0.15 0.45,-0.05 -0.07,-0.66 -0.02,-0.9 0.01,-0.06 0.61,0.18 0.72,0.04 0.15,-0.18 -0.08,-1.41 0.4,-0.86 0.11,0.12 0.05,0.27 0.23,0.21 0.22,-0.07 0.12,-0.83 0.12,-1.06 0,-0.36 0.01,-0.73 -0.01,-1.08 -0.01,-0.17 -0.04,-0.64 -0.07,-1.09 0.03,0.05 0.07,0.1 0.12,0.15 0.21,0.24 0.73,0.02 1,0.15 0.2,0.1 0.45,0.69 0.61,0.01 0.5,-0.1 0.23,0.4 0.13,0.55 -0.11,0.17 -0.65,0.36 -0.04,0.52 -0.72,0.71 -0.29,0.92 0.61,0.95 -0.01,0.22 0.04,0.89 0.21,1.02 0.35,0.26 0.56,-0.17 0.81,-0.32 0.4,0.44 0.7,0.55 0.66,-0.19 0.46,-0.07 0.63,0.53 0.79,0.84 0.18,0.35 0.51,0.76 0.68,0.07 0.49,0.1 0.43,0.68 1.04,0.54 0.34,-0.08 0.28,-0.24 0.58,-0.15 0.13,0.04 0.4,0.68 0.5,0.02 0.07,0.01 0.17,-0.02 0.24,-0.02 -0.02,-0.13 0.04,-0.31 0.01,-0.44 0.08,-0.01 0.15,-0.06 0.24,-0.07 -0.22,-0.16 -0.21,-0.56 0.09,-0.6 0.04,-0.28 -0.01,-0.55 -0.14,-0.79 0.32,-0.08 0.45,0.2 0.41,0.49 0.29,0.06 0.6,-0.08 0.66,-0.39 0.2,0.23 -0.11,1.04 0.48,1.01 0.45,-0.02 0.13,-0.68 0.61,-0.65 0.21,0.53 -0.19,0.61 -0.19,1.14 0.3,0.04 0.51,0.24 0.45,0.55 0.09,-0.03 0.25,-0.01 0.33,-0.07 0,0.2 0.01,0.36 0.12,0.5 -0.1,-0.12 0.37,-0.19 0.43,-0.17 0.19,0.06 0.34,0.3 0.44,0.46 0.13,0.2 0.16,0.33 0.42,0.35 0.21,0.01 0.34,-0.04 0.28,-0.27 -0.08,-0.28 -0.45,-0.42 -0.45,-0.75 0.19,0.02 0.81,0.25 0.67,-0.23 -0.07,-0.27 -0.53,-0.25 -0.75,-0.26 -0.03,-0.17 0.2,-0.28 0.33,-0.34 0.23,-0.11 0.26,0 0.5,0.02 0.04,-0.23 -0.09,-0.5 0,-0.71 0.14,0.29 0.43,0.36 0.56,0.03 0.04,0.02 0.11,0 0.15,0.02 0.01,-0.26 -0.09,-0.65 0.23,-0.7 0.39,-0.07 0.41,0.37 0.2,0.58 -0.25,0.25 -0.47,0.41 -0.55,0.79 -0.1,0.5 0.29,0.17 0.55,0.23 0.05,0.29 -0.42,0.61 -0.12,0.81 0.2,0.13 0.36,-0.2 0.42,-0.34 0.13,-0.27 0.2,-0.48 0.15,-0.77 -0.02,-0.13 -0.03,-0.24 -0.02,-0.37 0.23,-0.04 0.18,0.59 0.21,0.71 0.05,0.25 0.01,0.47 -0.12,0.68 -0.07,0.11 -0.1,0.14 -0.11,0.28 -0.01,0.12 -0.01,0.21 -0.04,0.32 -0.03,0.11 -0.02,0.24 0.11,0.31 0.16,0.08 0.22,-0.05 0.29,-0.17 0.11,-0.18 0.22,-0.31 0.25,-0.51 0.02,-0.17 0.01,-0.34 0.02,-0.51 0.44,0.28 0.47,-0.28 0.34,-0.57 -0.09,-0.2 -0.19,-0.28 -0.37,-0.4 -0.12,-0.08 -0.3,-0.25 -0.29,-0.42 0.12,-0.02 0.19,0.1 0.27,-0.04 0.05,-0.07 0.05,-0.26 0.02,-0.34 -0.05,-0.12 -0.19,-0.19 -0.21,-0.32 -0.02,-0.22 0.15,-0.1 0.26,-0.13 0.23,-0.05 -0.01,-0.47 0.07,-0.63 0.07,-0.14 0.31,-0.04 0.42,-0.11 0.18,-0.12 0.15,-0.41 0.29,-0.59 -0.01,0.44 -0.18,0.74 0.23,1.05 0.24,0.19 0.35,0.29 0.59,0.13 0.17,-0.11 0.23,-0.21 0.42,-0.28 0.13,-0.04 0.33,-0.11 0.48,-0.08 0.26,0.05 0.4,0.32 0.66,0.13 0.34,-0.24 0.31,-0.67 0.78,-0.76 0.02,0.09 0.05,0.24 0.15,0.28 0.15,0.06 0.21,-0.1 0.33,-0.13 0.17,-0.05 0.13,-0.07 0.25,0.07 0.14,0.16 0.12,0.25 -0.01,0.35 -0.21,0.15 -0.45,0.09 -0.66,0.3 -0.19,0.19 -0.41,0.39 -0.59,0.6 0.18,0.18 0.7,0.09 0.89,-0.02 0.27,-0.17 0.36,-0.52 0.73,-0.52 0.42,0 0.21,0.37 0.03,0.59 -0.2,0.24 -0.53,0.34 -0.45,0.7 0.36,0.09 0.75,-0.4 1.03,-0.52 0.38,-0.17 0.73,0.15 1.13,0.12 0.06,-0.31 0.1,-0.44 -0.1,-0.71 -0.12,-0.17 -0.44,-0.48 -0.38,-0.7 0.45,-0.2 1.15,-0.02 1.61,0.05 0.38,0.06 0.7,-0.02 1.03,-0.14 0.09,0.08 0.2,0.15 0.35,0.21 0.44,0.18 0.82,0.31 1.3,0.24 0.48,-0.07 1.22,-0.26 1.69,-0.05 0.06,0.23 -0.28,0.55 -0.4,0.73 -0.2,0.28 -0.16,0.41 -0.1,0.74 0.42,0.04 0.78,-0.3 1.18,-0.12 0.29,0.13 0.71,0.64 1.08,0.54 0.09,-0.38 -0.27,-0.49 -0.48,-0.73 -0.19,-0.23 -0.4,-0.62 0.04,-0.62 0.38,-0 0.48,0.37 0.76,0.54 0.19,0.12 0.74,0.21 0.92,0.02 -0.18,-0.21 -0.41,-0.42 -0.61,-0.63 -0.21,-0.21 -0.45,-0.15 -0.68,-0.31 -0.15,-0.1 -0.17,-0.19 -0.02,-0.36 0.12,-0.14 0.09,-0.12 0.26,-0.07 0.12,0.03 0.18,0.2 0.34,0.13 0.1,-0.04 0.13,-0.19 0.16,-0.29 0.49,0.09 0.45,0.54 0.81,0.8 0.27,0.19 0.42,-0.09 0.69,-0.14 0.16,-0.03 0.37,0.04 0.51,0.08 0.21,0.07 0.27,0.17 0.45,0.29 0.25,0.16 0.36,0.06 0.61,-0.14 0.42,-0.32 0.24,-0.64 0.23,-1.1 0.15,0.18 0.12,0.49 0.31,0.61 0.12,0.08 0.37,-0.03 0.45,0.12 0.08,0.17 -0.18,0.6 0.07,0.66 0.12,0.03 0.3,-0.1 0.28,0.13 -0.01,0.14 -0.17,0.21 -0.21,0.34 -0.03,0.08 -0.03,0.28 0.01,0.35 0.09,0.14 0.16,0.02 0.29,0.04 0.01,0.18 -0.18,0.35 -0.31,0.44 -0.18,0.12 -0.29,0.21 -0.38,0.42 -0.13,0.3 -0.1,0.89 0.36,0.6 0.01,0.18 0,0.36 0.02,0.53 0.03,0.22 0.15,0.35 0.26,0.54 0.07,0.12 0.13,0.26 0.3,0.17 0.13,-0.07 0.14,-0.21 0.12,-0.32 -0.03,-0.11 -0.04,-0.21 -0.04,-0.33 -0.01,-0.15 -0.05,-0.18 -0.12,-0.29 -0.15,-0.22 -0.18,-0.45 -0.12,-0.71 0.02,-0.12 -0.02,-0.78 0.22,-0.74 0,0.14 -0.01,0.26 -0.03,0.39 -0.04,0.31 0.03,0.53 0.15,0.81 0.07,0.14 0.23,0.49 0.44,0.35 0.31,-0.21 -0.18,-0.54 -0.12,-0.84 0.27,-0.05 0.68,0.29 0.57,-0.24 -0.09,-0.4 -0.31,-0.57 -0.58,-0.83 -0.21,-0.22 -0.19,-0.67 0.21,-0.6 0.34,0.06 0.23,0.46 0.24,0.74 0.04,-0.02 0.12,0 0.16,-0.02 0.12,0.35 0.43,0.27 0.58,-0.03 0.09,0.22 -0.04,0.5 0,0.74 0.24,-0.02 0.28,-0.14 0.52,-0.02 0.14,0.07 0.37,0.18 0.34,0.36 -0.23,0.01 -0.71,-0.02 -0.79,0.27 -0.13,0.5 0.51,0.27 0.71,0.24 -0.01,0.34 -0.39,0.49 -0.48,0.78 -0.07,0.25 0.07,0.3 0.29,0.29 0.27,-0.02 0.3,-0.16 0.44,-0.37 0.11,-0.16 0.26,-0.41 0.46,-0.48 0.07,-0.02 0.56,0.05 0.45,0.18 0.12,-0.14 0.12,-0.31 0.12,-0.52 0.09,0.06 0.26,0.04 0.34,0.07 -0.06,-0.33 0.17,-0.53 0.48,-0.57 0,-0.55 -0.41,-0.64 -0.2,-1.2 0.5,-0.03 0.16,0.65 0.64,0.68 0.62,0.03 0.3,-0.81 0.51,-1.05 0.06,0.33 0.38,0.47 0.7,0.41 -0.05,-0.3 0.08,-0.59 0.42,-0.51 -0.14,0.25 -0.19,0.54 -0.15,0.83 0.31,0.05 0.33,0.46 0.1,0.63 0.09,0.01 0.16,0.06 0.25,0.07 -0.02,0.14 0.04,0.32 0.01,0.46 0.08,-0 0.18,0.02 0.25,0.02 0.11,0.69 0.39,0.01 0.52,-0.02 0.32,-0.08 0.25,0.07 0.61,0.16 0.64,0.15 0.57,-0.46 1.08,-0.56 0.18,0.72 0.52,0.3 0.71,-0.07 0.17,-0.32 0.34,-0.95 0.83,-0.88 -0.04,0.78 0.28,0.66 0.69,0.2 0.26,0.16 0.48,0.61 0.85,0.34 0.18,-0.14 0.23,-0.83 0.22,-1.06 0.94,-0.04 1.38,-0.25 0.63,-1 0.64,-0.16 0.07,-0.37 -0.04,-0.54 -0.1,-0.15 -0.38,-0.67 0.14,-0.57 0.15,0.71 0.42,0.09 0.64,-0.01 0.27,-0.13 0.82,0.1 1.04,-0.15 0.03,-0.04 0.06,-0.07 0.09,-0.11 -0.01,0.2 -0.03,0.36 -0.04,0.44 -0.01,0.31 0,0.63 0,0.95 0,0.21 -0.1,0.87 0.13,0.93 0.18,0.05 0.12,-0.08 0.23,-0.18 0.5,-0.48 0.26,0.59 0.42,0.75 0.12,0.12 0.74,-0.09 0.75,-0.04 0.05,0.21 -0.48,0.75 -0.02,0.79 0.1,0.01 0.79,-0.29 0.72,0.13 -0.05,0.3 -0.85,0.11 -0.78,0.56 0.07,0.39 0.53,0.09 0.77,0.18 -0.15,0.3 -0.5,0.47 -0.44,0.87 0.24,0.01 0.31,0.01 0.47,-0.16 0.12,-0.12 0.22,-0.45 0.34,-0.5 0.22,-0.08 0.27,0.18 0.42,0.24 0.65,0.26 0.19,-0.66 0.32,-0.88 0.13,-0.23 0.36,-0 0.51,0.11 0.15,-0.09 0.12,-0.29 0.18,-0.45 1.23,-0.14 -0.34,-0.84 0.22,-1.1 0.15,-0.07 0.3,0.1 0.37,0.21 0.09,0.15 -0.04,0.27 0.22,0.24 0.36,-0.05 0.11,-0.52 0.12,-0.76 0.34,0.33 0.45,-0.02 0.63,-0.22 0.07,0.16 -0.03,0.42 0.04,0.59 0.18,0.4 0.4,0.05 0.44,-0.18 0.04,-0.23 0.02,-0.43 0.33,-0.37 0.04,0.19 -0.02,0.38 0,0.56 0.03,0.2 -0.06,0.42 0.01,0.56 0.1,0.22 0.21,0.11 0.16,0.42 -0.02,0.17 -0.02,0.43 -0.12,0.58 0.12,-0 0.21,-0 0.31,0.05 0.08,0.04 0.12,0.19 0.23,0.19 0.25,0.01 0.15,-0.33 0.37,-0.42 0.21,-0.08 0.48,0.06 0.39,0.31 -0.08,0.24 -0.47,0.2 -0.67,0.24 -0.21,0.05 -0.62,0.14 -0.75,0.34 -0.13,0.21 0.02,0.42 0.09,0.62 0.04,0.12 0.12,0.67 0.39,0.39 0.1,-0.1 0.01,-0.51 0.07,-0.64 0.35,-0.04 0.35,0.12 0.36,0.42 0.3,0.08 0.73,-0.48 0.86,-0.72 0.12,-0.2 0.1,-0.37 0.4,-0.34 0.21,0.02 0.3,0.17 0.48,0.24 0.52,0.21 0.8,-0.3 0.31,-0.59 -0.12,-0.07 -0.37,-0.14 -0.44,-0.26 -0.09,-0.15 0.06,-0.37 0.24,-0.29 0.1,0.04 0.04,0.24 0.17,0.3 0.2,0.1 0.5,-0.16 0.57,-0.33 0.15,-0.3 0.25,-0.8 0.7,-0.79 0,0.26 0.2,0.42 0.43,0.31 0.25,-0.12 0.13,-0.4 0.45,-0.31 0.25,0.07 0.34,0.23 0.64,0.23 0.22,0 0.4,-0.04 0.37,-0.29 -0.03,-0.27 -0.4,-0.35 -0.09,-0.56 0.17,-0.12 0.38,-0.06 0.59,-0.07 0.16,-0.01 0.59,-0.02 0.66,-0.18 0.04,-0.1 -0.03,-0.26 -0.07,-0.34 -0.09,-0.18 -0.15,-0.13 -0.27,-0.21 -0.38,-0.28 0.15,-0.28 0.03,-0.63 -0.08,-0.23 -0.48,-0.21 -0.61,-0.4 -0.21,-0.31 0.17,-0.39 0.38,-0.25 0.14,0.09 0.09,0.21 0.31,0.17 0.15,-0.03 0.19,-0.18 0.27,-0.29 0.22,-0.31 0.26,-0.13 0.6,-0.13 0.26,-0 0.46,-0.17 0.45,-0.42 -0.01,-0.29 -0.37,-0.39 -0.34,-0.65z"/>
  <path class="fil0" d="M57.9 6.72c0,0 0.45,0.39 0.87,0.94 0.31,-0.16 0.94,-0.31 1.63,0.37 0,0 -0.58,0.49 -1.15,0.39 0.07,0.14 0.13,0.28 0.18,0.42 2.12,-0.79 2.06,0.85 2.06,0.85 -0.92,0.2 -1.45,-0.05 -1.73,-0.33 0.37,0.59 0.98,1.5 1.11,1.6l0 0.32c0,0 -0.22,-0.3 -0.48,-0.68l-0.04 0.42 0.05 0.11c0.31,0.95 -0.53,1.37 -0.53,1.37 -0.32,-1.16 0.37,-1.48 0.37,-1.48l0.05 -0.53 0.04 0.02c-0.17,-0.25 -0.36,-0.52 -0.52,-0.75 0.35,1.02 -0.78,1.37 -0.78,1.37 -0.24,-0.82 0.57,-1.37 0.72,-1.47 -0.19,-0.28 -0.33,-0.49 -0.34,-0.54 0.01,0.06 0.05,0.16 0.05,0.16 0,0 -1.38,-2.33 -1.59,-2.33l0.06 -0.21z"/>
  <path class="fil0" d="M58.33 6.92c0,0 0.64,-0.95 1.85,-0.26 0,0 -0.9,1.32 -1.85,0.26z"/>
  <path class="fil0" d="M62.18 11.16c0,0 -0.69,0.63 -1.32,-0.21 0,0 0.63,-0.58 1.32,0.21z"/>
  <path class="fil0" d="M61.28 11.58c0.75,0.69 0.06,1.37 0.06,1.37 -0.85,-1.06 -0.06,-1.37 -0.06,-1.37z"/>
  <path class="fil0" d="M59.06 8.78c0.64,0.85 -0.74,1.69 -0.74,1.69 -0.31,-1.48 0.74,-1.69 0.74,-1.69z"/>
  <path class="fil0" d="M58.06 8.46c0,0 -1.05,-0.58 -1.64,0 0,0 1.21,0.69 1.64,0z"/>
  <path class="fil0" d="M57.19 9.55c0.89,0.47 0.41,1.31 0.41,1.31 -1.09,-0.8 -0.41,-1.31 -0.41,-1.31z"/>
  <path class="fil0" d="M56.94 10.07c-0.76,0.65 -1.37,-0.11 -1.37,-0.11 1.15,-0.72 1.37,0.11 1.37,0.11z"/>
  <path class="fil0" d="M57.04 12.07c1,0.15 0.81,1.11 0.81,1.11 -1.29,-0.4 -0.81,-1.11 -0.81,-1.11z"/>
  <path class="fil0" d="M56.97 11.48c-0.44,0.91 -1.3,0.45 -1.3,0.45 0.76,-1.12 1.3,-0.45 1.3,-0.45z"/>
  <path class="fil0" d="M56.4 12.74c-0.49,0.88 -1.33,0.38 -1.33,0.38 0.83,-1.07 1.33,-0.38 1.33,-0.38z"/>
  <path class="fil0" d="M53.72 7.2c0,0 1.16,-0.26 1.69,0.42 0,0 -0.31,0.37 -1.43,0.11 0,0 0.59,0.26 0.59,1.27 0,0 -0.42,0.05 -0.79,-0.95 0,0 0.31,1.53 -0.59,2.06 0,0 -0.26,-0.64 0.16,-1.16 0,0 -0.59,0.05 -0.64,0.21 0,0 -0.58,-0.85 0.74,-1.59 0,0 -0.75,-0.32 -0.16,-0.79 0,0 0.57,-0.63 0.57,-0.79 0,-0.16 0,-0.16 0,-0.16l0.32 0.05c0,0 0.06,0.74 -0.47,1.22l0 0.11z"/>
  <path class="fil0" d="M69.53 5.45c0,0 -1.33,0.85 -0.8,1.9 0,0 1.48,-0.58 1.16,-1.85l-0.37 -0.05z"/>
  <path class="fil0" d="M70.58 8.25c0,0 1.05,0.74 1.16,1.32l0.05 -0.58c0,0 -0.95,-0.95 -1.11,-0.95l-0.1 0.21z"/>
  <path class="fil0" d="M71.8 8.99c0,0 1.53,-0.37 1.69,0.37 0,0 -0.9,0.58 -1.69,-0.37z"/>
  <path class="fil0" d="M71.53 8.99c0,0 0.16,1.64 1.32,0.95 0,0 0.05,-0.79 -1.32,-0.95z"/>
  <path class="fil0" d="M70.74 8.36c0,0 -0.06,2.17 1.16,4.02 0.54,0.82 0.16,3.49 0.05,3.91l0.27 0.05c0,0 0.29,-3.03 -0.06,-3.96 -0.34,-0.92 -1.48,-1.8 -1.11,-3.75l-0.31 -0.26z"/>
  <path class="fil0" d="M71.21 9.81c0.78,-0 0.76,0.75 0.76,0.75 -1.05,-0.15 -0.76,-0.75 -0.76,-0.75z"/>
  <path class="fil0" d="M70.9 10.04c0.45,0.64 -0.18,1.06 -0.18,1.06 -0.48,-0.94 0.18,-1.06 0.18,-1.06z"/>
  <path class="fil0" d="M71.79 11.5c0.79,-0 0.76,0.75 0.76,0.75 -1.04,-0.15 -0.76,-0.75 -0.76,-0.75z"/>
  <path class="fil0" d="M71.27 12.7c-0.33,-0.71 0.37,-1.01 0.37,-1.01 0.3,1.01 -0.37,1.01 -0.37,1.01z"/>
  <path class="fil0" d="M72.26 12.77c0.79,-0 0.76,0.75 0.76,0.75 -1.04,-0.15 -0.76,-0.75 -0.76,-0.75z"/>
  <path class="fil0" d="M71.74 13.97c-0.33,-0.71 0.37,-1.01 0.37,-1.01 0.3,1.01 -0.37,1.01 -0.37,1.01z"/>
  <path class="fil0" d="M72.28 14.19c0.52,-0 0.51,0.5 0.51,0.5 -0.7,-0.1 -0.51,-0.5 -0.51,-0.5z"/>
  <path class="fil0" d="M72.43 13.94c0.33,-0.4 0.71,-0.07 0.71,-0.07 -0.52,0.47 -0.71,0.07 -0.71,0.07z"/>
  <path class="fil0" d="M71.66 15.2c0.04,-0.52 0.54,-0.46 0.54,-0.46 -0.16,0.68 -0.54,0.46 -0.54,0.46z"/>
  <path class="fil0" d="M72.16 15.57c0.78,-0 0.76,0.75 0.76,0.75 -1.05,-0.15 -0.76,-0.75 -0.76,-0.75z"/>
  <path class="fil0" d="M44.69 4.61c0,0 1.51,2.08 0.25,4.09 0,0 -0.44,2.02 0.19,2.68l0.18 0c0,0 -0.56,-1.32 -0.18,-2.51 0,0 1.04,-2.66 0.04,-4.05l-0.48 -0.21z"/>
  <path class="fil0" d="M45.17 8.32c0,0 -1.17,0.52 -1.04,1.03l-0.32 0c0,0 0.26,-0.8 1.56,-1.49l-0.2 0.46z"/>
  <path class="fil0" d="M44.06 8.71c0,0 -0.75,-1.01 -1.89,-0.06 0,0 1.13,0.94 1.89,0.06z"/>
  <path class="fil0" d="M44.22 11.05c0,0 0.79,-1.24 -0.18,-1.88 0,0 -0.9,0.88 0.18,1.88z"/>
  <path class="fil0" d="M41.62 9.91c0,0 1.3,0.69 1.86,-0.32 0,0 -0.94,-0.83 -1.86,0.32z"/>
  <path class="fil0" d="M43.92 9.31c0,0 -0.46,0.16 -0.61,0.28l0.07 0.12 0.48 -0.06 0.07 -0.35z"/>
  <path class="fil0" d="M45.21 11.29c0,0 -0.79,0.98 0.4,1.85 0,0 0.64,-1.33 -0.4,-1.85z"/>
  <path class="fil0" d="M45.24 11.2c0,0 -1.18,-0.44 -1.62,0.97 0,0 1.46,0.18 1.62,-0.97z"/>
  <path class="fil0" d="M46.72 11.03c0,0 -0.29,-1.22 -1.7,-0.81 0,0 0.66,1.32 1.7,0.81z"/>
  <path class="fil0" d="M45.58 7.1c0,0 -1.08,-0.65 -1.78,0.64 0,0 1.41,0.45 1.78,-0.64z"/>
  <path class="fil0" d="M45.5 6.36c0,0 0.49,0.83 1.43,0.21 0,0 -0.78,-0.81 -1.43,-0.21z"/>
  <path class="fil0" d="M47.19 5.23c0,0 -1.08,-0.65 -1.78,0.64 0,0 1.41,0.45 1.78,-0.64z"/>
  <path class="fil0" d="M51.14 8.24l0.15 0c0,0 -0.77,1.36 -1.21,1.83 -0.28,0.29 -0.55,0.89 -0.37,1.58 0.12,0.44 0.07,1.28 -0.11,1.84 -0.1,0.31 -0.21,1.21 -0.05,1.32l-0.26 0.05c0,0 0.26,-2.11 0.26,-2.48 0,-0.37 -0.34,-2.04 0.53,-2.63 0.38,-0.26 1.21,-1.5 1.06,-1.5z"/>
  <path class="fil0" d="M50.14 9.63c0,0 -1.06,-0.58 -1.49,0.42 0,0 1.27,0.47 1.49,-0.42z"/>
  <path class="fil0" d="M48.03 10.74c0,0 1.04,0.87 1.54,0.09 0,0 -0.81,-0.9 -1.54,-0.09z"/>
  <path class="fil0" d="M48.64 12.13c0,0 1.08,-0.24 0.83,-0.94 0,0 -0.98,0.07 -0.83,0.94z"/>
  <path class="fil0" d="M49.59 12.34c0,0 1.01,1.42 1.88,0.63 0,0 -0.71,-1.38 -1.88,-0.63z"/>
  <path class="fil0" d="M48.7 13.39c0,0 1.08,-0.23 0.82,-0.94 0,0 -0.98,0.07 -0.82,0.94z"/>
  <path class="fil0" d="M48.54 14.61c0,0 1.08,-0.24 0.83,-0.94 0,0 -0.98,0.07 -0.83,0.94z"/>
  <path class="fil0" d="M50.43 14.37c0,0 0.03,-1.1 -0.72,-1.02 0,0 -0.17,0.97 0.72,1.02z"/>
  <path class="fil0" d="M49.95 15.53c0,0 0.02,-0.89 -0.58,-0.82 0,0 -0.13,0.78 0.58,0.82z"/>
  <path class="fil0" d="M49.42 14.67c0,0 -0.88,-0.15 -0.9,0.45 0,0 0.75,0.25 0.9,-0.45z"/>
  <path class="fil1" d="M68.46 10.05c1.15,-0.01 1.11,1.1 1.11,1.1 -1.52,-0.22 -1.11,-1.1 -1.11,-1.1z"/>
  <path class="fil0" d="M65.23 10.5c0.31,1 -0.68,1.16 -0.68,1.16 -0.21,-1.36 0.68,-1.16 0.68,-1.16z"/>
  <path class="fil1" d="M67.93 13.93c0.79,-0 0.76,0.75 0.76,0.75 -1.04,-0.15 -0.76,-0.75 -0.76,-0.75z"/>
  <path class="fil0" d="M63.39 7.22c0.78,-0 0.76,0.75 0.76,0.75 -1.05,-0.15 -0.76,-0.75 -0.76,-0.75z"/>
  <path class="fil0" d="M56.67 14.15c-0.16,1.03 -1.13,0.75 -1.13,0.75 0.42,-1.32 1.13,-0.75 1.13,-0.75z"/>
  <path class="fil0" d="M56.78 14.12c0.93,0.47 0.37,1.29 0.37,1.29 -1.13,-0.79 -0.37,-1.29 -0.37,-1.29z"/>
  <path class="fil1" d="M45.36 14.41c0.31,1 -0.68,1.16 -0.68,1.16 -0.21,-1.36 0.68,-1.16 0.68,-1.16z"/>
  <path class="fil1" d="M39.97 13.78c0.31,1 -0.67,1.16 -0.67,1.16 -0.21,-1.36 0.67,-1.16 0.67,-1.16z"/>
  <path class="fil0" d="M58.43 7.74l0.15 0c0,0 -0.77,1.35 -1.21,1.82 -0.28,0.29 -0.55,0.88 -0.37,1.57 0.12,0.45 0.08,1.28 -0.11,1.84 -0.1,0.31 -0.21,1.21 -0.05,1.32l-0.26 0.05c0,0 0.26,-2.12 0.26,-2.48 0,-0.37 -0.34,-2.03 0.53,-2.62 0.38,-0.26 1.21,-1.49 1.06,-1.49z"/>
  <path class="fil3" d="M37.44 9.11c-0.52,0.85 0.35,1.24 0.35,1.24 0.52,-1.22 -0.35,-1.24 -0.35,-1.24z"/>
  <path class="fil0" d="M38.94 7.28c-0.29,0.96 0.65,1.11 0.65,1.11 0.2,-1.31 -0.65,-1.11 -0.65,-1.11z"/>
 </g>
</svg>
