<?xml version="1.0" encoding="UTF-8"?>
<!DOCTYPE svg PUBLIC "-//W3C//DTD SVG 1.1//EN" "http://www.w3.org/Graphics/SVG/1.1/DTD/svg11.dtd">
<!-- Creator: CorelDRAW 2019 (64-Bit) -->
<svg xmlns="http://www.w3.org/2000/svg" xml:space="preserve" width="24.3783mm" height="5.075mm" version="1.1" style="shape-rendering:geometricPrecision; text-rendering:geometricPrecision; image-rendering:optimizeQuality; fill-rule:evenodd; clip-rule:evenodd"
viewBox="0 0 72.71 15.14"
 xmlns:xlink="http://www.w3.org/1999/xlink">
 <defs>
  <style type="text/css">
   <![CDATA[
    .fil2 {fill:#EBECEC;fill-rule:nonzero}
    .fil0 {fill:#D9DADA;fill-rule:nonzero}
    .fil1 {fill:#C5C6C6;fill-rule:nonzero}
    .fil3 {fill:#B2B3B3;fill-rule:nonzero}
   ]]>
  </style>
 </defs>
 <g id="Capa_x0020_1">
  <metadata id="CorelCorpID_0Corel-Layer"/>
  <path class="fil0" d="M18.51 9.28c0,0 -0.4,-0.35 -0.77,-0.83 -0.28,0.14 -0.83,0.28 -1.44,-0.33 0,0 0.51,-0.44 1.01,-0.34 -0.06,-0.12 -0.11,-0.25 -0.15,-0.37 -1.87,0.7 -1.82,-0.75 -1.82,-0.75 0.82,-0.17 1.3,0.05 1.55,0.3 -0.33,-0.52 -0.85,-1.33 -0.97,-1.42l0 -0.28c0,0 0.18,0.27 0.42,0.6l0.03 -0.37 -0.05 -0.09c-0.28,-0.84 0.47,-1.22 0.47,-1.22 0.28,1.03 -0.33,1.31 -0.33,1.31l-0.05 0.47 -0.03 -0.02c0.16,0.22 0.32,0.46 0.46,0.67 -0.31,-0.91 0.69,-1.21 0.69,-1.21 0.22,0.72 -0.5,1.21 -0.63,1.3 0.16,0.25 0.29,0.44 0.31,0.48 -0.02,-0.05 -0.05,-0.14 -0.05,-0.14 0,0 1.21,2.06 1.4,2.06l-0.05 0.19z"/>
  <path class="fil0" d="M18.32 9.24c0,0 -0.56,0.84 -1.64,0.23 0,0 0.79,-1.17 1.64,-0.23z"/>
  <path class="fil0" d="M14.72 5.35c0,0 0.61,-0.56 1.17,0.19 0,0 -0.56,0.51 -1.17,-0.19z"/>
  <path class="fil0" d="M15.51 4.98c-0.65,-0.61 -0.04,-1.22 -0.04,-1.22 0.75,0.94 0.04,1.22 0.04,1.22z"/>
  <path class="fil0" d="M17.48 7.46c-0.56,-0.75 0.66,-1.5 0.66,-1.5 0.28,1.31 -0.66,1.5 -0.66,1.5z"/>
  <path class="fil0" d="M18.37 7.74c0,0 0.94,0.52 1.45,0 0,0 -1.07,-0.61 -1.45,0z"/>
  <path class="fil0" d="M19.14 6.78c-0.79,-0.41 -0.37,-1.16 -0.37,-1.16 0.97,0.7 0.37,1.16 0.37,1.16z"/>
  <path class="fil0" d="M19.36 6.31c0.68,-0.58 1.21,0.1 1.21,0.1 -1.02,0.63 -1.21,-0.1 -1.21,-0.1z"/>
  <path class="fil0" d="M19.27 4.54c-0.89,-0.14 -0.73,-0.98 -0.73,-0.98 1.15,0.35 0.73,0.98 0.73,0.98z"/>
  <path class="fil0" d="M19.33 5.07c0.39,-0.8 1.15,-0.4 1.15,-0.4 -0.68,0.99 -1.15,0.4 -1.15,0.4z"/>
  <path class="fil0" d="M19.84 3.96c0.43,-0.78 1.17,-0.33 1.17,-0.33 -0.73,0.95 -1.17,0.33 -1.17,0.33z"/>
  <path class="fil0" d="M22.2 8.86c0,0 -1.03,0.23 -1.5,-0.37 0,0 0.28,-0.33 1.27,-0.09 0,0 -0.52,-0.23 -0.52,-1.12 0,0 0.37,-0.05 0.7,0.84 0,0 -0.28,-1.36 0.52,-1.82 0,0 0.24,0.56 -0.14,1.03 0,0 0.51,-0.05 0.56,-0.19 0,0 0.52,0.75 -0.65,1.4 0,0 0.65,0.28 0.14,0.7 0,0 -0.52,0.56 -0.52,0.7 0,0.14 0,0.14 0,0.14l-0.28 -0.05c0,0 -0.05,-0.66 0.42,-1.08l0 -0.09z"/>
  <path class="fil0" d="M8.21 10.41c0,0 1.17,-0.75 0.7,-1.68 0,0 -1.31,0.51 -1.02,1.64l0.33 0.05z"/>
  <path class="fil0" d="M7.28 7.93c0,0 -0.94,-0.66 -1.03,-1.17l-0.05 0.51c0,0 0.85,0.84 0.98,0.84l0.1 -0.19z"/>
  <path class="fil0" d="M6.2 7.27c0,0 -1.36,0.33 -1.49,-0.33 0,0 0.79,-0.52 1.49,0.33z"/>
  <path class="fil0" d="M6.44 7.27c0,0 -0.14,-1.45 -1.17,-0.84 0,0 -0.05,0.7 1.17,0.84z"/>
  <path class="fil0" d="M7.13 7.83c0,0 0.05,-1.92 -1.02,-3.56 -0.48,-0.72 -0.14,-3.09 -0.05,-3.46l-0.24 -0.05c0,0 -0.25,2.69 0.05,3.51 0.3,0.81 1.31,1.59 0.98,3.32l0.28 0.23z"/>
  <path class="fil0" d="M6.72 6.55c-0.7,0 -0.68,-0.67 -0.68,-0.67 0.93,0.13 0.68,0.67 0.68,0.67z"/>
  <path class="fil0" d="M7 6.34c-0.4,-0.57 0.16,-0.94 0.16,-0.94 0.42,0.84 -0.16,0.94 -0.16,0.94z"/>
  <path class="fil0" d="M6.21 5.05c-0.7,0 -0.68,-0.67 -0.68,-0.67 0.93,0.13 0.68,0.67 0.68,0.67z"/>
  <path class="fil0" d="M6.67 3.98c0.29,0.63 -0.33,0.89 -0.33,0.89 -0.26,-0.9 0.33,-0.89 0.33,-0.89z"/>
  <path class="fil0" d="M5.78 3.93c-0.7,0 -0.68,-0.67 -0.68,-0.67 0.93,0.13 0.68,0.67 0.68,0.67z"/>
  <path class="fil0" d="M6.25 2.86c0.29,0.63 -0.33,0.89 -0.33,0.89 -0.26,-0.9 0.33,-0.89 0.33,-0.89z"/>
  <path class="fil0" d="M5.77 2.67c-0.46,0 -0.45,-0.44 -0.45,-0.44 0.62,0.09 0.45,0.44 0.45,0.44z"/>
  <path class="fil0" d="M5.64 2.89c-0.29,0.36 -0.62,0.06 -0.62,0.06 0.46,-0.42 0.62,-0.06 0.62,-0.06z"/>
  <path class="fil0" d="M6.32 1.78c-0.04,0.46 -0.48,0.41 -0.48,0.41 0.14,-0.6 0.48,-0.41 0.48,-0.41z"/>
  <path class="fil0" d="M5.88 1.45c-0.7,0 -0.68,-0.67 -0.68,-0.67 0.92,0.13 0.68,0.67 0.68,0.67z"/>
  <path class="fil0" d="M30.21 11.16c0,0 -1.34,-1.85 -0.22,-3.63 0,0 0.39,-1.77 -0.17,-2.37l-0.17 0c0,0 0.5,1.17 0.17,2.23 0,0 -0.92,2.36 -0.03,3.58l0.42 0.19z"/>
  <path class="fil0" d="M29.78 7.86c0,0 1.04,-0.43 0.92,-0.92l0.28 0c0,0 -0.23,0.71 -1.38,1.32l0.18 -0.4z"/>
  <path class="fil0" d="M30.77 7.52c0,0 0.66,0.89 1.67,0.06 0,0 -1,-0.84 -1.67,-0.06z"/>
  <path class="fil0" d="M30.62 5.45c0,0 -0.7,1.1 0.16,1.66 0,0 0.8,-0.78 -0.16,-1.66z"/>
  <path class="fil0" d="M32.93 6.46c0,0 -1.15,-0.62 -1.65,0.28 0,0 0.83,0.74 1.65,-0.28z"/>
  <path class="fil0" d="M30.88 6.99c0,0 0.41,-0.14 0.55,-0.25l-0.05 -0.11 -0.43 0.05 -0.07 0.31z"/>
  <path class="fil0" d="M29.74 5.24c0,0 0.71,-0.86 -0.35,-1.63 0,0 -0.57,1.17 0.35,1.63z"/>
  <path class="fil0" d="M29.72 5.31c0,0 1.04,0.39 1.43,-0.86 0,0 -1.3,-0.16 -1.43,0.86z"/>
  <path class="fil0" d="M28.4 5.47c0,0 0.26,1.08 1.51,0.72 0,0 -0.59,-1.16 -1.51,-0.72z"/>
  <path class="fil0" d="M29.42 8.95c0,0 0.95,0.58 1.57,-0.57 0,0 -1.25,-0.4 -1.57,0.57z"/>
  <path class="fil0" d="M29.49 9.6c0,0 -0.43,-0.73 -1.26,-0.18 0,0 0.68,0.72 1.26,0.18z"/>
  <path class="fil0" d="M28 10.6c0,0 0.95,0.58 1.57,-0.57 0,0 -1.24,-0.4 -1.57,0.57z"/>
  <path class="fil0" d="M24.5 7.94l-0.14 0c0,0 0.68,-1.21 1.07,-1.62 0.25,-0.26 0.5,-0.79 0.33,-1.39 -0.11,-0.4 -0.07,-1.14 0.09,-1.63 0.1,-0.28 0.19,-1.07 0.05,-1.17l0.24 -0.04c0,0 -0.24,1.87 -0.24,2.2 0,0.33 0.31,1.81 -0.47,2.34 -0.33,0.23 -1.07,1.33 -0.94,1.33z"/>
  <path class="fil0" d="M25.38 6.71c0,0 0.94,0.52 1.32,-0.37 0,0 -1.13,-0.42 -1.32,0.37z"/>
  <path class="fil0" d="M27.24 5.72c0,0 -0.92,-0.77 -1.36,-0.08 0,0 0.71,0.8 1.36,0.08z"/>
  <path class="fil0" d="M26.71 4.5c0,0 -0.96,0.21 -0.73,0.84 0,0 0.87,-0.06 0.73,-0.84z"/>
  <path class="fil0" d="M25.87 4.3c0,0 -0.9,-1.26 -1.67,-0.56 0,0 0.63,1.22 1.67,0.56z"/>
  <path class="fil0" d="M26.66 3.37c0,0 -0.96,0.21 -0.73,0.84 0,0 0.87,-0.06 0.73,-0.84z"/>
  <path class="fil0" d="M26.79 2.3c0,0 -0.95,0.21 -0.73,0.84 0,0 0.87,-0.06 0.73,-0.84z"/>
  <path class="fil0" d="M25.13 2.51c0,0 -0.03,0.98 0.64,0.91 0,0 0.14,-0.86 -0.64,-0.91z"/>
  <path class="fil0" d="M25.55 1.48c0,0 -0.02,0.79 0.52,0.73 0,0 0.12,-0.69 -0.52,-0.73z"/>
  <path class="fil0" d="M26.02 2.24c0,0 0.77,0.14 0.8,-0.4 0,0 -0.66,-0.22 -0.8,0.4z"/>
  <path class="fil0" d="M9.16 6.34c-1.02,0 -0.99,-0.97 -0.99,-0.97 1.36,0.19 0.99,0.97 0.99,0.97z"/>
  <path class="fil1" d="M12.02 5.93c-0.27,-0.88 0.6,-1.03 0.6,-1.03 0.18,1.21 -0.6,1.03 -0.6,1.03z"/>
  <path class="fil0" d="M9.62 2.9c-0.7,0 -0.68,-0.67 -0.68,-0.67 0.93,0.13 0.68,0.67 0.68,0.67z"/>
  <path class="fil0" d="M13.64 8.84c-0.7,0 -0.67,-0.67 -0.67,-0.67 0.92,0.13 0.67,0.67 0.67,0.67z"/>
  <path class="fil0" d="M19.6 2.7c0.14,-0.92 0.99,-0.66 0.99,-0.66 -0.36,1.17 -0.99,0.66 -0.99,0.66z"/>
  <path class="fil0" d="M19.5 2.73c-0.83,-0.41 -0.33,-1.15 -0.33,-1.15 1,0.7 0.33,1.15 0.33,1.15z"/>
  <path class="fil0" d="M29.62 2.47c-0.28,-0.88 0.6,-1.03 0.6,-1.03 0.19,1.21 -0.6,1.03 -0.6,1.03z"/>
  <path class="fil0" d="M34.89 4.12c-0.27,-0.89 0.6,-1.03 0.6,-1.03 0.18,1.21 -0.6,1.03 -0.6,1.03z"/>
  <path class="fil0" d="M18.04 8.41l-0.14 0c0,0 0.68,-1.21 1.08,-1.62 0.24,-0.26 0.49,-0.79 0.33,-1.4 -0.1,-0.39 -0.07,-1.14 0.1,-1.63 0.09,-0.28 0.19,-1.07 0.05,-1.17l0.24 -0.04c0,0 -0.24,1.87 -0.24,2.2 0,0.33 0.31,1.81 -0.47,2.34 -0.33,0.23 -1.08,1.33 -0.94,1.33z"/>
  <path class="fil2" d="M72.39 13.31c0,0.05 0.01,0.1 0.02,0.15l0.3 -0 0 1.68 -72.69 0 -0.02 -1.39 0.93 -0.01 0 -0.01 -0.93 0.02c0.17,-0.02 0.58,-0.32 0.59,-0.57 0.01,-0.27 -0.31,-0.38 -0.31,-0.69 0,-0.26 0.18,-0.44 0.41,-0.45 0.31,-0 0.33,0.19 0.53,-0.14 0.07,-0.11 0.11,-0.27 0.24,-0.3 0.18,-0.04 0.15,0.09 0.27,0.18 0.18,0.15 0.52,0.06 0.34,-0.27 -0.12,-0.2 -0.47,-0.18 -0.55,-0.42 -0.11,-0.37 0.36,-0.37 0.03,-0.67 -0.1,-0.09 -0.16,-0.04 -0.24,-0.22 -0.03,-0.08 -0.1,-0.26 -0.06,-0.36 0.07,-0.18 0.44,-0.19 0.58,-0.19 0.18,-0.01 0.37,0.05 0.52,-0.08 0.27,-0.23 -0.05,-0.31 -0.07,-0.59 -0.03,-0.27 0.14,-0.31 0.33,-0.31 0.26,0 0.35,0.17 0.56,0.25 0.28,0.1 0.17,-0.2 0.39,-0.33 0.2,-0.11 0.39,0.06 0.38,0.33 0.4,0.01 0.5,-0.51 0.62,-0.83 0.07,-0.17 0.33,-0.46 0.51,-0.34 0.11,0.07 0.06,0.27 0.14,0.31 0.17,0.09 0.3,-0.15 0.22,-0.31 -0.06,-0.13 -0.29,-0.19 -0.39,-0.27 -0.43,-0.32 -0.18,-0.85 0.28,-0.63 0.16,0.07 0.24,0.24 0.42,0.26 0.26,0.03 0.24,-0.14 0.35,-0.36 0.12,-0.25 0.5,-0.84 0.77,-0.76 0.01,0.31 0.01,0.48 0.32,0.44 0.05,-0.15 -0.04,-0.58 0.05,-0.68 0.24,-0.29 0.31,0.29 0.35,0.41 0.05,0.21 0.2,0.43 0.07,0.66 -0.12,0.21 -0.47,0.31 -0.66,0.36 -0.18,0.05 -0.53,0.01 -0.6,0.26 -0.08,0.27 0.15,0.42 0.34,0.33 0.2,-0.1 0.12,-0.45 0.33,-0.44 0.1,0 0.14,0.16 0.21,0.2 0.09,0.05 0.16,0.05 0.27,0.05 -0.08,0.16 -0.09,0.43 -0.11,0.61 -0.03,0.32 0.06,0.21 0.15,0.44 0.05,0.16 -0.02,0.38 0.01,0.6 0.02,0.19 -0.03,0.39 -0.01,0.59 0.28,0.06 0.26,-0.15 0.3,-0.4 0.03,-0.25 0.23,-0.62 0.39,-0.19 0.07,0.19 -0.02,0.45 0.04,0.63 0.16,-0.21 0.26,-0.58 0.56,-0.23 0.01,-0.26 -0.22,-0.76 0.1,-0.81 0.24,-0.04 0.12,0.1 0.2,0.25 0.06,0.11 0.2,0.29 0.33,0.22 0.49,-0.28 -0.9,-1.02 0.2,-1.17 0.04,-0.16 0.02,-0.38 0.16,-0.47 0.14,0.12 0.33,0.36 0.45,0.12 0.12,-0.24 -0.29,-1.21 0.28,-0.93 0.13,0.06 0.18,0.34 0.37,0.26 0.11,-0.05 0.2,-0.4 0.31,-0.53 0.14,-0.18 0.2,-0.18 0.41,-0.17 0.05,0.42 -0.26,0.6 -0.39,0.92 0.22,0.09 0.63,-0.23 0.68,0.19 0.06,0.48 -0.64,0.27 -0.68,0.59 -0.07,0.44 0.54,0.13 0.63,0.14 0.41,0.05 -0.06,0.61 -0.02,0.84 0.01,0.05 0.56,-0.16 0.66,-0.04 0.14,0.17 -0.07,1.31 0.37,0.8 0.1,-0.11 0.05,-0.25 0.21,-0.19 0.2,0.07 0.12,0.77 0.12,0.98 0,0.33 0.01,0.67 -0.01,1 -0.01,0.16 -0.04,0.59 -0.06,1.01 0.03,-0.05 0.07,-0.09 0.11,-0.14 0.2,-0.22 0.68,-0.02 0.92,-0.14 0.19,-0.09 0.42,-0.64 0.56,-0.01 0.46,0.09 0.21,-0.37 0.12,-0.51 -0.1,-0.15 -0.6,-0.34 -0.04,-0.48 -0.66,-0.66 -0.27,-0.85 0.56,-0.88 -0.01,-0.21 0.03,-0.82 0.19,-0.94 0.33,-0.24 0.52,0.16 0.75,0.3 0.37,-0.41 0.64,-0.51 0.61,0.17 0.43,0.07 0.58,-0.49 0.73,-0.78 0.17,-0.33 0.47,-0.7 0.63,-0.06 0.45,-0.09 0.4,-0.63 0.96,-0.5 0.32,0.08 0.26,0.22 0.54,0.14 0.12,-0.03 0.37,-0.63 0.46,-0.02 0.07,-0.01 0.16,0.02 0.22,0.01 -0.02,0.12 0.03,0.28 0.01,0.41 0.07,0.01 0.14,0.06 0.22,0.06 -0.2,0.15 -0.19,0.52 0.09,0.56 0.04,0.26 -0.01,0.51 -0.13,0.73 0.3,0.07 0.42,-0.19 0.38,-0.45 0.27,-0.06 0.56,0.08 0.61,0.36 0.18,-0.22 -0.1,-0.96 0.45,-0.93 0.42,0.02 0.12,0.63 0.56,0.6 0.19,-0.49 -0.18,-0.57 -0.18,-1.06 0.28,-0.04 0.47,-0.22 0.42,-0.51 0.08,0.03 0.23,0.01 0.31,0.06 0,-0.19 0.01,-0.34 0.12,-0.46 -0.1,0.11 0.34,0.18 0.4,0.16 0.18,-0.06 0.31,-0.28 0.41,-0.42 0.12,-0.18 0.15,-0.31 0.39,-0.33 0.19,-0.01 0.32,0.03 0.26,0.25 -0.07,0.26 -0.41,0.39 -0.42,0.69 0.18,-0.02 0.75,-0.23 0.62,0.21 -0.07,0.25 -0.5,0.23 -0.7,0.24 -0.03,0.16 0.18,0.26 0.31,0.32 0.22,0.11 0.24,0 0.46,-0.01 0.03,0.21 -0.08,0.46 0,0.66 0.13,-0.27 0.4,-0.34 0.52,-0.03 0.03,-0.02 0.1,-0 0.14,-0.02 0.01,0.24 -0.08,0.6 0.22,0.65 0.36,0.06 0.38,-0.34 0.18,-0.53 -0.23,-0.23 -0.43,-0.38 -0.51,-0.73 -0.09,-0.46 0.26,-0.16 0.51,-0.21 0.05,-0.27 -0.39,-0.56 -0.12,-0.75 0.18,-0.12 0.33,0.19 0.39,0.31 0.12,0.25 0.18,0.44 0.14,0.72 -0.02,0.12 -0.03,0.23 -0.02,0.35 0.21,0.04 0.17,-0.54 0.19,-0.65 0.05,-0.23 0.01,-0.43 -0.12,-0.63 -0.06,-0.1 -0.09,-0.13 -0.1,-0.26 -0.01,-0.11 -0.01,-0.19 -0.03,-0.29 -0.03,-0.1 -0.02,-0.22 0.1,-0.29 0.15,-0.08 0.2,0.05 0.26,0.16 0.1,0.16 0.2,0.28 0.23,0.48 0.02,0.15 0.01,0.31 0.02,0.47 0.41,-0.26 0.43,0.26 0.32,0.53 -0.08,0.19 -0.18,0.26 -0.34,0.37 -0.12,0.08 -0.28,0.23 -0.27,0.39 0.11,0.02 0.18,-0.09 0.25,0.04 0.05,0.07 0.05,0.24 0.02,0.31 -0.05,0.11 -0.18,0.18 -0.19,0.3 -0.02,0.2 0.14,0.09 0.24,0.12 0.22,0.05 -0.01,0.43 0.06,0.59 0.06,0.13 0.28,0.04 0.39,0.11 0.17,0.11 0.14,0.38 0.27,0.54 -0.01,-0.41 -0.16,-0.69 0.21,-0.97 0.22,-0.18 0.33,-0.26 0.54,-0.12 0.16,0.1 0.21,0.19 0.39,0.26 0.12,0.04 0.31,0.1 0.45,0.07 0.24,-0.05 0.37,-0.3 0.61,-0.12 0.32,0.22 0.29,0.62 0.73,0.7 0.02,-0.09 0.05,-0.22 0.14,-0.26 0.14,-0.06 0.2,0.09 0.31,0.12 0.16,0.04 0.12,0.07 0.23,-0.06 0.13,-0.15 0.12,-0.23 -0.01,-0.32 -0.2,-0.14 -0.42,-0.09 -0.61,-0.27 -0.18,-0.18 -0.38,-0.37 -0.54,-0.55 0.16,-0.17 0.65,-0.09 0.82,0.02 0.25,0.16 0.33,0.48 0.68,0.48 0.39,-0 0.2,-0.35 0.03,-0.55 -0.18,-0.22 -0.5,-0.31 -0.42,-0.65 0.33,-0.08 0.7,0.37 0.96,0.48 0.35,0.16 0.68,-0.14 1.05,-0.11 0.05,0.29 0.09,0.41 -0.09,0.66 -0.12,0.16 -0.41,0.44 -0.35,0.65 0.41,0.18 1.06,0.02 1.49,-0.05 0.35,-0.05 0.64,0.02 0.96,0.13 0.08,-0.07 0.19,-0.14 0.33,-0.19 0.41,-0.16 0.76,-0.29 1.2,-0.22 0.45,0.07 1.13,0.24 1.57,0.05 0.05,-0.21 -0.26,-0.51 -0.37,-0.68 -0.18,-0.26 -0.15,-0.38 -0.09,-0.69 0.39,-0.03 0.73,0.28 1.09,0.11 0.27,-0.12 0.66,-0.59 1,-0.5 0.08,0.35 -0.25,0.45 -0.44,0.68 -0.18,0.21 -0.37,0.58 0.03,0.58 0.35,0 0.44,-0.34 0.71,-0.5 0.18,-0.11 0.69,-0.19 0.85,-0.02 -0.16,0.2 -0.38,0.39 -0.57,0.58 -0.2,0.2 -0.42,0.14 -0.63,0.29 -0.14,0.1 -0.16,0.18 -0.02,0.34 0.12,0.13 0.08,0.11 0.24,0.06 0.12,-0.03 0.17,-0.18 0.32,-0.12 0.09,0.04 0.12,0.18 0.15,0.27 0.45,-0.08 0.42,-0.5 0.75,-0.74 0.25,-0.18 0.39,0.08 0.64,0.13 0.15,0.03 0.34,-0.03 0.47,-0.07 0.2,-0.07 0.25,-0.16 0.41,-0.27 0.23,-0.15 0.33,-0.06 0.57,0.13 0.39,0.3 0.22,0.59 0.22,1.01 0.14,-0.17 0.11,-0.45 0.28,-0.57 0.12,-0.07 0.35,0.03 0.41,-0.11 0.07,-0.16 -0.17,-0.56 0.06,-0.61 0.12,-0.03 0.28,0.09 0.26,-0.12 -0.01,-0.13 -0.16,-0.2 -0.2,-0.31 -0.03,-0.07 -0.03,-0.26 0.01,-0.32 0.08,-0.13 0.15,-0.01 0.26,-0.04 0.01,-0.17 -0.16,-0.32 -0.28,-0.4 -0.16,-0.11 -0.26,-0.19 -0.35,-0.39 -0.12,-0.28 -0.09,-0.82 0.33,-0.56 0.01,-0.17 0,-0.33 0.02,-0.49 0.03,-0.2 0.14,-0.33 0.24,-0.5 0.06,-0.11 0.12,-0.24 0.28,-0.16 0.12,0.07 0.13,0.19 0.11,0.3 -0.03,0.11 -0.03,0.19 -0.03,0.3 -0.01,0.14 -0.05,0.17 -0.12,0.27 -0.14,0.21 -0.17,0.41 -0.12,0.66 0.02,0.12 -0.02,0.73 0.2,0.68 0,-0.13 -0.01,-0.24 -0.03,-0.36 -0.04,-0.29 0.03,-0.49 0.14,-0.75 0.07,-0.13 0.22,-0.46 0.41,-0.33 0.29,0.19 -0.17,0.5 -0.12,0.78 0.25,0.05 0.63,-0.27 0.53,0.22 -0.08,0.37 -0.29,0.53 -0.54,0.77 -0.2,0.2 -0.18,0.62 0.2,0.56 0.31,-0.05 0.21,-0.43 0.22,-0.68 0.04,0.01 0.11,0 0.15,0.02 0.12,-0.32 0.4,-0.25 0.54,0.03 0.08,-0.2 -0.03,-0.46 0,-0.69 0.22,0.02 0.26,0.13 0.48,0.02 0.13,-0.06 0.35,-0.16 0.32,-0.33 -0.21,-0.01 -0.66,0.01 -0.73,-0.25 -0.12,-0.47 0.47,-0.25 0.66,-0.22 -0.01,-0.32 -0.36,-0.45 -0.44,-0.73 -0.07,-0.23 0.07,-0.28 0.27,-0.27 0.25,0.02 0.28,0.15 0.41,0.34 0.1,0.15 0.24,0.38 0.43,0.44 0.06,0.02 0.52,-0.05 0.42,-0.16 0.11,0.13 0.12,0.29 0.12,0.48 0.08,-0.06 0.24,-0.04 0.32,-0.07 -0.05,0.3 0.16,0.49 0.44,0.53 0,0.51 -0.38,0.59 -0.18,1.11 0.46,0.03 0.15,-0.61 0.59,-0.63 0.57,-0.03 0.28,0.75 0.47,0.98 0.05,-0.3 0.35,-0.44 0.64,-0.38 -0.05,0.28 0.07,0.55 0.39,0.47 -0.13,-0.23 -0.18,-0.5 -0.14,-0.77 0.29,-0.04 0.31,-0.42 0.09,-0.58 0.08,-0.01 0.15,-0.06 0.23,-0.07 -0.02,-0.13 0.04,-0.3 0.01,-0.43 0.07,0 0.16,-0.02 0.23,-0.01 0.1,-0.64 0.36,-0.01 0.48,0.02 0.3,0.08 0.23,-0.07 0.57,-0.15 0.59,-0.14 0.53,0.42 1,0.52 0.17,-0.67 0.48,-0.28 0.66,0.07 0.16,0.3 0.32,0.88 0.77,0.81 -0.04,-0.72 0.26,-0.61 0.64,-0.18 0.24,-0.15 0.45,-0.57 0.79,-0.31 0.17,0.13 0.22,0.77 0.2,0.98 0.87,0.04 1.28,0.24 0.58,0.92 0.6,0.15 0.07,0.34 -0.04,0.5 -0.09,0.14 -0.35,0.62 0.13,0.53 0.14,-0.65 0.39,-0.08 0.59,0.01 0.25,0.12 0.76,-0.09 0.96,0.14 0.03,0.03 0.05,0.07 0.08,0.1 -0.01,-0.18 -0.03,-0.33 -0.03,-0.41 -0.01,-0.29 0,-0.59 0,-0.88 0,-0.19 -0.1,-0.8 0.12,-0.86 0.16,-0.05 0.11,0.07 0.21,0.17 0.46,0.45 0.24,-0.55 0.39,-0.7 0.11,-0.11 0.68,0.08 0.69,0.04 0.05,-0.2 -0.45,-0.69 -0.02,-0.73 0.09,-0.01 0.73,0.26 0.66,-0.12 -0.05,-0.28 -0.79,-0.1 -0.72,-0.52 0.06,-0.37 0.5,-0.08 0.71,-0.16 -0.14,-0.28 -0.46,-0.43 -0.41,-0.81 0.22,-0.01 0.29,-0.01 0.43,0.15 0.11,0.11 0.2,0.42 0.32,0.46 0.2,0.07 0.25,-0.17 0.39,-0.22 0.6,-0.24 0.18,0.61 0.3,0.81 0.12,0.21 0.33,0 0.47,-0.1 0.14,0.08 0.12,0.27 0.16,0.41 1.14,0.13 -0.31,0.78 0.2,1.02 0.14,0.07 0.28,-0.09 0.34,-0.19 0.08,-0.14 -0.04,-0.25 0.2,-0.22 0.33,0.04 0.1,0.48 0.11,0.71 0.31,-0.31 0.41,0.02 0.58,0.2 0.07,-0.15 -0.03,-0.39 0.04,-0.55 0.16,-0.37 0.37,-0.04 0.41,0.17 0.03,0.22 0.02,0.4 0.31,0.35 0.03,-0.17 -0.02,-0.35 0,-0.52 0.03,-0.19 -0.05,-0.38 0.01,-0.52 0.09,-0.2 0.19,-0.11 0.15,-0.39 -0.02,-0.16 -0.02,-0.4 -0.11,-0.53 0.12,0 0.19,0 0.28,-0.04 0.07,-0.04 0.12,-0.17 0.22,-0.18 0.23,-0.01 0.14,0.3 0.35,0.39 0.2,0.08 0.44,-0.05 0.36,-0.29 -0.07,-0.22 -0.43,-0.18 -0.62,-0.23 -0.2,-0.05 -0.58,-0.13 -0.7,-0.32 -0.12,-0.2 0.02,-0.39 0.08,-0.58 0.03,-0.11 0.11,-0.62 0.36,-0.36 0.1,0.09 0.01,0.47 0.06,0.6 0.33,0.04 0.33,-0.11 0.33,-0.38 0.28,-0.07 0.68,0.45 0.8,0.66 0.11,0.19 0.09,0.34 0.37,0.31 0.19,-0.02 0.28,-0.16 0.44,-0.23 0.48,-0.19 0.74,0.27 0.29,0.55 -0.11,0.07 -0.35,0.13 -0.41,0.24 -0.08,0.14 0.05,0.35 0.22,0.27 0.09,-0.04 0.04,-0.22 0.16,-0.28 0.18,-0.1 0.46,0.15 0.53,0.3 0.14,0.28 0.23,0.74 0.65,0.73 0,-0.24 0.19,-0.39 0.4,-0.29 0.23,0.11 0.12,0.37 0.41,0.29 0.23,-0.07 0.32,-0.21 0.59,-0.22 0.2,-0 0.37,0.03 0.35,0.27 -0.03,0.25 -0.37,0.32 -0.08,0.52 0.16,0.11 0.35,0.06 0.54,0.07 0.15,0.01 0.54,0.02 0.61,0.17 0.04,0.09 -0.03,0.25 -0.07,0.32 -0.08,0.16 -0.14,0.12 -0.25,0.2 -0.35,0.26 0.14,0.26 0.03,0.58 -0.07,0.21 -0.45,0.19 -0.57,0.37 -0.2,0.29 0.16,0.36 0.35,0.23 0.13,-0.08 0.09,-0.19 0.28,-0.16 0.14,0.03 0.18,0.17 0.25,0.27 0.2,0.29 0.24,0.12 0.56,0.12 0.24,0 0.43,0.16 0.42,0.39 -0.01,0.27 -0.34,0.36 -0.32,0.6z"/>
  <path class="fil0" d="M53.64 8.91c0,0 0.41,-0.36 0.81,-0.87 0.29,0.15 0.87,0.29 1.51,-0.34 0,0 -0.54,-0.46 -1.06,-0.36 0.07,-0.13 0.12,-0.26 0.16,-0.39 1.96,0.73 1.91,-0.78 1.91,-0.78 -0.85,-0.18 -1.34,0.05 -1.61,0.31 0.35,-0.55 0.91,-1.39 1.02,-1.48l0 -0.29c0,0 -0.2,0.28 -0.45,0.63l-0.04 -0.39 0.05 -0.1c0.29,-0.88 -0.49,-1.27 -0.49,-1.27 -0.3,1.08 0.34,1.37 0.34,1.37l0.05 0.49 0.03 -0.02c-0.16,0.23 -0.33,0.48 -0.48,0.7 0.33,-0.95 -0.73,-1.27 -0.73,-1.27 -0.22,0.76 0.53,1.27 0.66,1.36 -0.18,0.26 -0.31,0.46 -0.32,0.5 0.01,-0.05 0.05,-0.15 0.05,-0.15 0,0 -1.28,2.15 -1.47,2.15l0.05 0.2z"/>
  <path class="fil0" d="M54.04 8.73c0,0 0.59,0.88 1.72,0.24 0,0 -0.83,-1.22 -1.72,-0.24z"/>
  <path class="fil0" d="M57.6 4.8c0,0 -0.64,-0.59 -1.22,0.2 0,0 0.58,0.54 1.22,-0.2z"/>
  <path class="fil0" d="M56.77 4.41c0.69,-0.64 0.05,-1.27 0.05,-1.27 -0.79,0.98 -0.05,1.27 -0.05,1.27z"/>
  <path class="fil0" d="M54.72 7c0.59,-0.78 -0.68,-1.57 -0.68,-1.57 -0.29,1.37 0.68,1.57 0.68,1.57z"/>
  <path class="fil0" d="M53.79 7.29c0,0 -0.98,0.54 -1.52,0 0,0 1.13,-0.64 1.52,0z"/>
  <path class="fil0" d="M52.99 6.29c0.83,-0.43 0.38,-1.22 0.38,-1.22 -1.01,0.74 -0.38,1.22 -0.38,1.22z"/>
  <path class="fil0" d="M52.76 5.8c-0.71,-0.61 -1.27,0.1 -1.27,0.1 1.06,0.66 1.27,-0.1 1.27,-0.1z"/>
  <path class="fil0" d="M52.84 3.95c0.92,-0.14 0.75,-1.03 0.75,-1.03 -1.19,0.37 -0.75,1.03 -0.75,1.03z"/>
  <path class="fil0" d="M52.78 4.5c-0.41,-0.84 -1.2,-0.42 -1.2,-0.42 0.71,1.04 1.2,0.42 1.2,0.42z"/>
  <path class="fil0" d="M52.25 3.34c-0.45,-0.82 -1.23,-0.35 -1.23,-0.35 0.77,0.99 1.23,0.35 1.23,0.35z"/>
  <path class="fil0" d="M49.77 8.47c0,0 1.08,0.25 1.57,-0.39 0,0 -0.29,-0.34 -1.32,-0.1 0,0 0.54,-0.25 0.54,-1.18 0,0 -0.39,-0.05 -0.73,0.88 0,0 0.29,-1.42 -0.54,-1.91 0,0 -0.24,0.59 0.15,1.08 0,0 -0.54,-0.05 -0.59,-0.2 0,0 -0.54,0.78 0.68,1.47 0,0 -0.69,0.29 -0.15,0.73 0,0 0.53,0.59 0.53,0.73 0,0.15 0,0.15 0,0.15l0.3 -0.05c0,0 0.05,-0.68 -0.43,-1.13l0 -0.1z"/>
  <path class="fil0" d="M64.41 10.08c0,0 -1.23,-0.78 -0.74,-1.76 0,0 1.37,0.54 1.08,1.71l-0.34 0.05z"/>
  <path class="fil0" d="M65.39 7.49c0,0 0.98,-0.69 1.08,-1.22l0.05 0.54c0,0 -0.88,0.88 -1.03,0.88l-0.1 -0.2z"/>
  <path class="fil0" d="M66.52 6.8c0,0 1.42,0.34 1.57,-0.34 0,0 -0.83,-0.54 -1.57,0.34z"/>
  <path class="fil0" d="M66.27 6.8c0,0 0.15,-1.52 1.22,-0.88 0,0 0.05,0.73 -1.22,0.88z"/>
  <path class="fil0" d="M65.54 7.39c0,0 -0.05,-2.01 1.07,-3.72 0.5,-0.76 0.15,-3.23 0.05,-3.62l0.25 -0.05c0,0 0.26,2.81 -0.05,3.67 -0.31,0.85 -1.37,1.67 -1.02,3.48l-0.29 0.24z"/>
  <path class="fil0" d="M65.97 6.05c0.73,0 0.71,-0.7 0.71,-0.7 -0.97,0.14 -0.71,0.7 -0.71,0.7z"/>
  <path class="fil0" d="M65.68 5.83c0.42,-0.6 -0.17,-0.98 -0.17,-0.98 -0.44,0.87 0.17,0.98 0.17,0.98z"/>
  <path class="fil0" d="M66.51 4.48c0.73,0 0.71,-0.7 0.71,-0.7 -0.96,0.14 -0.71,0.7 -0.71,0.7z"/>
  <path class="fil0" d="M66.03 3.37c-0.31,0.66 0.34,0.93 0.34,0.93 0.28,-0.94 -0.34,-0.93 -0.34,-0.93z"/>
  <path class="fil0" d="M66.95 3.31c0.73,0 0.71,-0.7 0.71,-0.7 -0.96,0.14 -0.71,0.7 -0.71,0.7z"/>
  <path class="fil0" d="M66.47 2.19c-0.31,0.66 0.34,0.93 0.34,0.93 0.28,-0.94 -0.34,-0.93 -0.34,-0.93z"/>
  <path class="fil0" d="M66.96 1.99c0.48,0 0.47,-0.46 0.47,-0.46 -0.64,0.09 -0.47,0.46 -0.47,0.46z"/>
  <path class="fil0" d="M67.11 2.22c0.31,0.37 0.66,0.06 0.66,0.06 -0.48,-0.44 -0.66,-0.06 -0.66,-0.06z"/>
  <path class="fil0" d="M66.39 1.06c0.03,0.48 0.5,0.43 0.5,0.43 -0.15,-0.63 -0.5,-0.43 -0.5,-0.43z"/>
  <path class="fil0" d="M66.85 0.71c0.73,0 0.71,-0.7 0.71,-0.7 -0.97,0.14 -0.71,0.7 -0.71,0.7z"/>
  <path class="fil0" d="M41.4 10.87c0,0 1.4,-1.93 0.23,-3.79 0,0 -0.41,-1.87 0.18,-2.48l0.17 0c0,0 -0.52,1.22 -0.17,2.33 0,0 0.96,2.47 0.03,3.75l-0.44 0.2z"/>
  <path class="fil0" d="M41.85 7.42c0,0 -1.09,-0.48 -0.96,-0.95l-0.3 0c0,0 0.24,0.74 1.44,1.38l-0.18 -0.43z"/>
  <path class="fil0" d="M40.82 7.07c0,0 -0.7,0.93 -1.75,0.06 0,0 1.05,-0.87 1.75,-0.06z"/>
  <path class="fil0" d="M40.97 4.9c0,0 0.73,1.15 -0.16,1.74 0,0 -0.83,-0.81 0.16,-1.74z"/>
  <path class="fil0" d="M38.56 5.96c0,0 1.21,-0.64 1.72,0.3 0,0 -0.87,0.77 -1.72,-0.3z"/>
  <path class="fil0" d="M40.69 6.51c0,0 -0.43,-0.15 -0.57,-0.26l0.06 -0.11 0.44 0.05 0.07 0.32z"/>
  <path class="fil0" d="M41.88 4.68c0,0 -0.73,-0.9 0.37,-1.71 0,0 0.6,1.23 -0.37,1.71z"/>
  <path class="fil0" d="M41.91 4.76c0,0 -1.09,0.4 -1.5,-0.9 0,0 1.35,-0.17 1.5,0.9z"/>
  <path class="fil0" d="M43.29 4.92c0,0 -0.26,1.13 -1.57,0.75 0,0 0.61,-1.22 1.57,-0.75z"/>
  <path class="fil0" d="M42.23 8.56c0,0 -1,0.6 -1.65,-0.6 0,0 1.3,-0.42 1.65,0.6z"/>
  <path class="fil0" d="M42.16 9.24c0,0 0.45,-0.77 1.32,-0.19 0,0 -0.72,0.75 -1.32,0.19z"/>
  <path class="fil0" d="M43.72 10.29c0,0 -1,0.6 -1.65,-0.6 0,0 1.3,-0.42 1.65,0.6z"/>
  <path class="fil0" d="M47.38 7.5l0.14 0c0,0 -0.71,-1.26 -1.13,-1.69 -0.26,-0.27 -0.51,-0.83 -0.34,-1.46 0.11,-0.41 0.07,-1.19 -0.1,-1.71 -0.09,-0.29 -0.2,-1.12 -0.05,-1.22l-0.24 -0.05c0,0 0.24,1.96 0.24,2.3 0,0.34 -0.32,1.89 0.49,2.44 0.35,0.24 1.13,1.39 0.98,1.39z"/>
  <path class="fil0" d="M46.45 6.22c0,0 -0.98,0.54 -1.38,-0.39 0,0 1.18,-0.44 1.38,0.39z"/>
  <path class="fil0" d="M44.5 5.18c0,0 0.96,-0.81 1.42,-0.08 0,0 -0.75,0.83 -1.42,0.08z"/>
  <path class="fil0" d="M45.06 3.9c0,0 1,0.22 0.77,0.87 0,0 -0.91,-0.06 -0.77,-0.87z"/>
  <path class="fil0" d="M45.95 3.7c0,0 0.94,-1.32 1.74,-0.59 0,0 -0.66,1.28 -1.74,0.59z"/>
  <path class="fil0" d="M45.12 2.73c0,0 1,0.22 0.76,0.87 0,0 -0.91,-0.07 -0.76,-0.87z"/>
  <path class="fil0" d="M44.97 1.6c0,0 1,0.22 0.77,0.87 0,0 -0.91,-0.07 -0.77,-0.87z"/>
  <path class="fil0" d="M46.72 1.83c0,0 0.03,1.02 -0.66,0.95 0,0 -0.16,-0.9 0.66,-0.95z"/>
  <path class="fil0" d="M46.28 0.75c0,0 0.02,0.82 -0.54,0.76 0,0 -0.12,-0.72 0.54,-0.76z"/>
  <path class="fil0" d="M45.78 1.55c0,0 -0.81,0.14 -0.83,-0.42 0,0 0.69,-0.23 0.83,0.42z"/>
  <path class="fil1" d="M63.42 5.82c1.06,0.01 1.03,-1.02 1.03,-1.02 -1.41,0.2 -1.03,1.02 -1.03,1.02z"/>
  <path class="fil0" d="M60.43 5.41c0.28,-0.93 -0.63,-1.08 -0.63,-1.08 -0.2,1.26 0.63,1.08 0.63,1.08z"/>
  <path class="fil1" d="M62.93 2.23c0.73,0 0.71,-0.7 0.71,-0.7 -0.96,0.14 -0.71,0.7 -0.71,0.7z"/>
  <path class="fil0" d="M58.73 8.45c0.73,0 0.71,-0.7 0.71,-0.7 -0.97,0.14 -0.71,0.7 -0.71,0.7z"/>
  <path class="fil0" d="M52.5 2.02c-0.15,-0.96 -1.04,-0.69 -1.04,-0.69 0.39,1.22 1.04,0.69 1.04,0.69z"/>
  <path class="fil0" d="M52.61 2.06c0.86,-0.43 0.34,-1.2 0.34,-1.2 -1.04,0.73 -0.34,1.2 -0.34,1.2z"/>
  <path class="fil1" d="M42.03 1.78c0.28,-0.93 -0.63,-1.08 -0.63,-1.08 -0.2,1.26 0.63,1.08 0.63,1.08z"/>
  <path class="fil1" d="M37.03 2.37c0.29,-0.93 -0.62,-1.08 -0.62,-1.08 -0.2,1.26 0.62,1.08 0.62,1.08z"/>
  <path class="fil0" d="M54.13 7.97l0.14 0c0,0 -0.71,-1.25 -1.13,-1.68 -0.26,-0.27 -0.51,-0.82 -0.34,-1.45 0.11,-0.41 0.07,-1.19 -0.1,-1.71 -0.1,-0.29 -0.19,-1.12 -0.05,-1.22l-0.24 -0.05c0,0 0.24,1.96 0.24,2.3 0,0.34 -0.32,1.88 0.49,2.43 0.35,0.24 1.13,1.38 0.98,1.38z"/>
  <path class="fil3" d="M34.69 6.7c-0.48,-0.79 0.33,-1.15 0.33,-1.15 0.48,1.13 -0.33,1.15 -0.33,1.15z"/>
  <path class="fil0" d="M36.07 8.39c-0.27,-0.89 0.6,-1.03 0.6,-1.03 0.18,1.21 -0.6,1.03 -0.6,1.03z"/>
 </g>
</svg>
