<?xml version="1.0" encoding="UTF-8"?>
<!DOCTYPE svg PUBLIC "-//W3C//DTD SVG 1.1//EN" "http://www.w3.org/Graphics/SVG/1.1/DTD/svg11.dtd">
<!-- Creator: CorelDRAW 2019 (64-Bit) -->
<svg xmlns="http://www.w3.org/2000/svg" xml:space="preserve" width="23.2137mm" height="1.3557mm" version="1.1" style="shape-rendering:geometricPrecision; text-rendering:geometricPrecision; image-rendering:optimizeQuality; fill-rule:evenodd; clip-rule:evenodd"
viewBox="0 0 66.12 3.86"
 xmlns:xlink="http://www.w3.org/1999/xlink">
 <defs>
  <style type="text/css">
   <![CDATA[
    .fil0 {fill:#62A614;fill-rule:nonzero}
   ]]>
  </style>
 </defs>
 <g id="Capa_x0020_1">
  <metadata id="CorelCorpID_0Corel-Layer"/>
  <path class="fil0" d="M66.12 0c-0.13,0.05 -0.32,0.06 -0.4,0.06 -0.17,0.01 -0.36,-0.05 -0.49,0.07 -0.26,0.22 0.05,0.3 0.07,0.57 0.03,0.26 -0.13,0.3 -0.32,0.29 -0.25,-0 -0.33,-0.16 -0.54,-0.24 -0.27,-0.09 -0.16,0.19 -0.38,0.31 -0.19,0.11 -0.37,-0.05 -0.36,-0.32 -0.38,-0.01 -0.48,0.49 -0.6,0.8 -0.06,0.16 -0.32,0.44 -0.49,0.33 -0.1,-0.06 -0.06,-0.26 -0.14,-0.3 -0.16,-0.09 -0.29,0.14 -0.21,0.29 0.06,0.12 0.28,0.18 0.38,0.26 0.41,0.3 0.17,0.81 -0.27,0.6 -0.15,-0.07 -0.23,-0.23 -0.4,-0.25 -0.25,-0.03 -0.23,0.14 -0.34,0.34 -0.11,0.24 -0.48,0.8 -0.73,0.72 -0.01,-0.3 -0.01,-0.46 -0.3,-0.42 -0.05,0.14 0.04,0.55 -0.05,0.65 -0.23,0.28 -0.3,-0.27 -0.33,-0.39 -0.05,-0.2 -0.19,-0.41 -0.07,-0.63 0.11,-0.2 0.45,-0.3 0.63,-0.35 0.17,-0.05 0.51,-0.01 0.57,-0.25 0.08,-0.26 -0.14,-0.4 -0.32,-0.32 -0.19,0.09 -0.11,0.43 -0.32,0.42 -0.1,-0 -0.13,-0.15 -0.2,-0.19 -0.08,-0.05 -0.16,-0.05 -0.26,-0.04 0.08,-0.15 0.08,-0.41 0.1,-0.58 0.03,-0.3 -0.06,-0.2 -0.14,-0.42 -0.05,-0.15 0.02,-0.36 -0.01,-0.57 -0.02,-0.15 0.02,-0.31 0.01,-0.47l5.9 0zm-6.14 0c-0.03,0.07 -0.03,0.17 -0.05,0.28 -0.03,0.24 -0.22,0.59 -0.37,0.19 -0.05,-0.14 -0.01,-0.32 -0.02,-0.47l0.44 0zm-0.54 0c-0.11,0.18 -0.22,0.36 -0.45,0.09 -0.01,0.25 0.21,0.72 -0.1,0.77 -0.23,0.04 -0.11,-0.09 -0.19,-0.24 -0.06,-0.11 -0.19,-0.28 -0.31,-0.21 -0.47,0.27 0.86,0.97 -0.19,1.12 -0.04,0.15 -0.02,0.36 -0.15,0.45 -0.13,-0.11 -0.32,-0.34 -0.43,-0.11 -0.11,0.23 0.28,1.15 -0.27,0.89 -0.12,-0.06 -0.17,-0.33 -0.36,-0.24 -0.1,0.05 -0.19,0.38 -0.29,0.5 -0.13,0.17 -0.19,0.17 -0.4,0.16 -0.05,-0.4 0.25,-0.57 0.38,-0.88 -0.21,-0.09 -0.6,0.22 -0.65,-0.18 -0.06,-0.46 0.62,-0.26 0.65,-0.57 0.06,-0.42 -0.52,-0.12 -0.6,-0.13 -0.4,-0.05 0.06,-0.58 0.02,-0.8 -0.01,-0.05 -0.54,0.16 -0.63,0.04 -0.07,-0.09 -0.05,-0.43 -0.07,-0.66l4.04 0zm-4.38 0c-0.03,0.07 -0.04,0.12 -0.14,0.09 -0.03,-0.01 -0.06,-0.04 -0.08,-0.09l0.22 0zm-0.73 0c-0.42,0.43 -1.01,0.72 -1.38,0l1.38 0zm-1.68 0c-0.03,0.08 -0.06,0.15 -0.1,0.18 -0.25,0.19 -0.42,-0.02 -0.59,-0.18l0.69 0zm-0.92 0c-0.24,0.24 -0.43,0.3 -0.48,0l0.48 0zm-0.95 0c-0.1,0.15 -0.17,0.34 -0.23,0.47 -0.16,0.31 -0.45,0.67 -0.6,0.06 -0.43,0.09 -0.38,0.6 -0.92,0.47 -0.3,-0.07 -0.25,-0.21 -0.51,-0.14 -0.12,0.03 -0.35,0.6 -0.44,0.02 -0.06,0.01 -0.15,-0.02 -0.21,-0.01 0.02,-0.12 -0.03,-0.27 -0.01,-0.39 -0.07,-0.01 -0.14,-0.05 -0.21,-0.06 0.14,-0.1 0.17,-0.3 0.09,-0.43l3.06 0zm-4.18 0c-0.04,0.11 -0.13,0.18 -0.3,0.17 -0.14,-0.01 -0.19,-0.08 -0.23,-0.17l0.53 0zm-0.87 0c0.06,0.18 0.2,0.32 0.2,0.61 -0.27,0.04 -0.45,0.21 -0.4,0.48 -0.08,-0.03 -0.22,-0.01 -0.29,-0.06 0,0.18 -0.01,0.32 -0.11,0.44 0.09,-0.11 -0.32,-0.17 -0.38,-0.15 -0.17,0.06 -0.3,0.26 -0.39,0.4 -0.12,0.18 -0.14,0.3 -0.38,0.31 -0.18,0.01 -0.3,-0.03 -0.25,-0.24 0.07,-0.25 0.4,-0.37 0.4,-0.66 -0.17,0.02 -0.71,0.22 -0.6,-0.2 0.06,-0.24 0.47,-0.22 0.67,-0.23 0.03,-0.15 -0.17,-0.25 -0.29,-0.3 -0.21,-0.1 -0.23,0 -0.44,0.01 -0.02,-0.13 0.02,-0.28 0.03,-0.41l2.23 0zm-2.47 0c-0.04,0.01 -0.08,0.01 -0.13,0l0.13 0zm-0.52 0c0.1,0.11 0.17,0.24 0.21,0.42 0.09,0.44 -0.25,0.15 -0.49,0.2 -0.05,0.26 0.37,0.54 0.11,0.71 -0.17,0.12 -0.32,-0.18 -0.37,-0.3 -0.12,-0.24 -0.17,-0.42 -0.14,-0.69 0.02,-0.11 0.03,-0.22 0.02,-0.33 -0.2,-0.04 -0.16,0.52 -0.18,0.62 -0.05,0.22 -0.01,0.41 0.11,0.6 0.06,0.09 0.09,0.12 0.1,0.25 0.01,0.1 0.01,0.18 0.03,0.28 0.03,0.1 0.02,0.21 -0.1,0.27 -0.14,0.07 -0.19,-0.04 -0.25,-0.15 -0.1,-0.16 -0.19,-0.27 -0.22,-0.46 -0.02,-0.15 -0.01,-0.3 -0.02,-0.45 -0.39,0.24 -0.41,-0.25 -0.3,-0.51 0.08,-0.18 0.17,-0.25 0.32,-0.35 0.05,-0.03 0.1,-0.08 0.15,-0.13l1.02 0zm-7.86 0c-0.16,0.3 -0.32,0.52 -0.44,0.54 -0.2,0.03 -0.37,-0.24 -0.52,-0.54l0.96 0zm-5.05 0c-0.22,0.17 -0.48,0.39 -0.72,0.33 -0.03,-0.14 0.01,-0.24 0.07,-0.33l0.65 0zm-5.03 0c-0,0.02 -0.01,0.04 -0.02,0.05 -0.08,0.12 -0.14,0.01 -0.25,0.04 -0.01,0.16 0.16,0.31 0.27,0.39 0.16,0.11 0.25,0.18 0.34,0.37 0.12,0.27 0.09,0.79 -0.32,0.53 -0.01,0.16 0,0.32 -0.02,0.47 -0.03,0.19 -0.14,0.31 -0.23,0.48 -0.06,0.11 -0.12,0.23 -0.27,0.15 -0.12,-0.06 -0.12,-0.18 -0.1,-0.29 0.03,-0.1 0.03,-0.18 0.03,-0.29 0.01,-0.13 0.05,-0.16 0.11,-0.26 0.13,-0.2 0.16,-0.4 0.11,-0.63 -0.02,-0.11 0.02,-0.69 -0.19,-0.65 0,0.12 0.01,0.23 0.03,0.35 0.04,0.28 -0.03,0.47 -0.14,0.72 -0.06,0.13 -0.21,0.44 -0.39,0.31 -0.28,-0.18 0.16,-0.47 0.11,-0.75 -0.24,-0.05 -0.6,0.26 -0.51,-0.21 0.08,-0.35 0.28,-0.5 0.51,-0.73 0.01,-0.01 0.03,-0.03 0.04,-0.05l0.89 0zm-1.33 0c0,0.06 0,0.11 0,0.16 -0.04,-0.01 -0.1,0 -0.14,-0.02 -0.11,0.31 -0.38,0.24 -0.51,-0.03 -0.08,0.19 0.03,0.44 0,0.66 -0.21,-0.02 -0.25,-0.12 -0.46,-0.02 -0.12,0.06 -0.33,0.16 -0.3,0.32 0.2,0.01 0.63,-0.01 0.7,0.24 0.12,0.45 -0.45,0.24 -0.63,0.21 0.01,0.31 0.34,0.43 0.42,0.69 0.06,0.22 -0.06,0.27 -0.26,0.25 -0.24,-0.02 -0.27,-0.14 -0.39,-0.33 -0.1,-0.14 -0.23,-0.36 -0.41,-0.42 -0.06,-0.02 -0.49,0.05 -0.4,0.16 -0.1,-0.12 -0.11,-0.27 -0.11,-0.46 -0.08,0.06 -0.23,0.04 -0.3,0.06 0.05,-0.29 -0.15,-0.47 -0.42,-0.51 0,-0.46 0.32,-0.56 0.2,-0.98l3.01 0zm-3.26 0c-0.12,0.16 -0.03,0.5 -0.35,0.52 -0.33,0.02 -0.36,-0.26 -0.37,-0.52l0.71 0zm-1.64 0c0,0.08 -0,0.15 -0.01,0.23 -0.28,0.04 -0.29,0.4 -0.09,0.56 -0.08,0.01 -0.14,0.06 -0.22,0.06 0.02,0.13 -0.04,0.28 -0.01,0.41 -0.07,-0 -0.16,0.02 -0.22,0.01 -0.1,0.61 -0.34,0.01 -0.46,-0.02 -0.29,-0.08 -0.22,0.07 -0.54,0.14 -0.56,0.14 -0.51,-0.4 -0.96,-0.5 -0.16,0.64 -0.46,0.26 -0.63,-0.06 -0.15,-0.29 -0.3,-0.84 -0.73,-0.78 0.04,0.69 -0.25,0.58 -0.61,0.17 -0.23,0.14 -0.43,0.54 -0.75,0.3 -0.09,-0.07 -0.15,-0.3 -0.18,-0.53l5.41 0zm-5.8 0c-1.66,1.84 -1.36,1.18 -1.69,0.95 -0.09,0.03 -0.19,-0.5 -0.28,-0.95l1.97 0zm-2.46 0c-0.01,0.02 -0.01,0.03 -0.02,0.04 -0.09,0.09 -0.48,-0.02 -0.61,-0.04l0.64 0zm-0.68 0c-0,0 -0.01,0 -0.01,0.01 -0.05,0.19 0.43,0.66 0.02,0.7 -0.09,0.01 -0.7,-0.25 -0.63,0.12 0.05,0.27 0.75,0.1 0.69,0.5 -0.06,0.35 -0.47,0.08 -0.68,0.16 0.13,0.27 0.44,0.41 0.39,0.77 -0.21,0.01 -0.28,0.01 -0.41,-0.14 -0.1,-0.1 -0.19,-0.4 -0.3,-0.44 -0.19,-0.07 -0.24,0.16 -0.38,0.21 -0.58,0.23 -0.17,-0.58 -0.29,-0.78 -0.12,-0.2 -0.32,-0 -0.45,0.1 -0.14,-0.08 -0.11,-0.26 -0.16,-0.39 -0.87,-0.1 -0.16,-0.52 -0.09,-0.8l2.3 0zm-2.73 0l-0 0c-0.08,0.13 0.04,0.24 -0.19,0.21 -0.14,-0.02 -0.17,-0.1 -0.17,-0.21l0.37 0zm-0.98 0c-0.05,0.05 -0.1,0.04 -0.15,0l0.15 0zm-0.6 0c0.01,0.14 0.04,0.27 -0,0.37 -0.08,0.19 -0.18,0.1 -0.14,0.37 0.02,0.15 0.02,0.38 0.1,0.51 -0.11,-0 -0.18,-0 -0.27,0.04 -0.07,0.04 -0.11,0.17 -0.21,0.17 -0.22,0.01 -0.13,-0.29 -0.33,-0.37 -0.19,-0.07 -0.42,0.05 -0.34,0.28 0.07,0.21 0.41,0.17 0.6,0.22 0.19,0.04 0.55,0.12 0.67,0.3 0.12,0.19 -0.02,0.37 -0.08,0.55 -0.03,0.11 -0.1,0.59 -0.34,0.35 -0.09,-0.09 -0.01,-0.45 -0.06,-0.57 -0.31,-0.04 -0.31,0.11 -0.32,0.37 -0.27,0.07 -0.65,-0.43 -0.76,-0.63 -0.1,-0.18 -0.08,-0.32 -0.35,-0.3 -0.18,0.02 -0.27,0.15 -0.42,0.22 -0.46,0.18 -0.71,-0.26 -0.28,-0.53 0.1,-0.07 0.33,-0.12 0.39,-0.23 0.08,-0.13 -0.05,-0.33 -0.21,-0.26 -0.09,0.04 -0.04,0.21 -0.15,0.27 -0.17,0.09 -0.44,-0.14 -0.51,-0.29 -0.13,-0.27 -0.22,-0.7 -0.62,-0.7 0,0.23 -0.18,0.37 -0.38,0.28 -0.22,-0.11 -0.12,-0.36 -0.4,-0.27 -0.22,0.06 -0.3,0.2 -0.56,0.21 -0.19,0 -0.36,-0.03 -0.33,-0.26 0,-0.03 0.01,-0.05 0.02,-0.07l5.29 0z"/>
 </g>
</svg>
