<?xml version="1.0" encoding="UTF-8"?>
<!DOCTYPE svg PUBLIC "-//W3C//DTD SVG 1.1//EN" "http://www.w3.org/Graphics/SVG/1.1/DTD/svg11.dtd">
<!-- Creator: CorelDRAW 2019 (64-Bit) -->
<svg xmlns="http://www.w3.org/2000/svg" xml:space="preserve" width="8.83mm" height="8.83mm" version="1.1" style="shape-rendering:geometricPrecision; text-rendering:geometricPrecision; image-rendering:optimizeQuality; fill-rule:evenodd; clip-rule:evenodd"
viewBox="0 0 10.84 10.84"
 xmlns:xlink="http://www.w3.org/1999/xlink">
 <defs>
  <style type="text/css">
   <![CDATA[
    .fil0 {fill:#EBECEC}
    .fil5 {fill:#923B00;fill-rule:nonzero}
    .fil3 {fill:#FF6B00;fill-rule:nonzero}
    .fil4 {fill:#FF9447;fill-rule:nonzero}
    .fil2 {fill:white;fill-rule:nonzero}
    .fil1 {fill:url(#id0)}
   ]]>
  </style>
  <linearGradient id="id0" gradientUnits="userSpaceOnUse" x1="0.32" y1="5.42" x2="10.52" y2="5.42">
   <stop offset="0" style="stop-opacity:1; stop-color:#D9DADA"/>
   <stop offset="1" style="stop-opacity:1; stop-color:white"/>
  </linearGradient>
 </defs>
 <g id="Capa_x0020_1">
  <metadata id="CorelCorpID_0Corel-Layer"/>
  <g id="_2749022527664">
   <g>
    <rect class="fil0" width="10.84" height="10.84" rx="0.61" ry="0.61"/>
    <path class="fil1" d="M0.61 0.32c-0.16,0 -0.29,0.13 -0.29,0.29l0 9.62c0,0.16 0.13,0.29 0.29,0.29l9.62 0c0.16,0 0.29,-0.13 0.29,-0.29l0 -9.62c0,-0.16 -0.13,-0.29 -0.29,-0.29l-9.62 0z"/>
   </g>
   <g>
    <path class="fil2" d="M5.03 3.31c0.51,0 1.02,-0 1.52,0 -0,0.14 0.01,0.29 -0,0.43 -0.31,0 -0.62,0 -0.92,0 0,0.19 -0,0.38 0,0.57 0.26,-0 0.52,-0 0.78,-0l0 0.42c-0.26,0 -0.52,0 -0.78,0l0 0.96c-0.2,0 -0.4,0 -0.6,-0l0 -2.39z"/>
    <path class="fil2" d="M4.59 7.17c0.11,-0.1 0.26,-0.11 0.39,-0.07 0.08,0.02 0.16,0.08 0.18,0.17 0.01,0.05 0.01,0.11 -0.02,0.15 -0.03,0.05 -0.09,0.07 -0.14,0.09 0.08,0.02 0.17,0.06 0.19,0.15 0.02,0.08 0.01,0.18 -0.05,0.24 -0.07,0.08 -0.18,0.11 -0.29,0.11 -0.09,-0 -0.19,-0.02 -0.26,-0.08 -0.06,-0.04 -0.08,-0.11 -0.1,-0.18 0.07,-0.01 0.14,-0 0.21,-0 0.02,0.1 0.15,0.13 0.23,0.08 0.05,-0.04 0.04,-0.11 0.03,-0.16 -0.04,-0.08 -0.14,-0.07 -0.22,-0.07 -0,-0.05 -0,-0.1 0,-0.15 0.05,-0 0.1,0.01 0.15,-0.01 0.06,-0.03 0.06,-0.11 0.03,-0.16 -0.06,-0.07 -0.2,-0.04 -0.21,0.06 -0.07,0 -0.14,0 -0.21,-0 0.01,-0.06 0.03,-0.13 0.08,-0.17z"/>
    <path class="fil2" d="M5.52 7.63c0,0.06 -0.01,0.12 0.02,0.17 0.04,0.06 0.13,0.06 0.19,0.02 0.05,-0.04 0.05,-0.12 0.04,-0.18 -0.01,-0.05 -0.07,-0.08 -0.12,-0.08 -0.05,0 -0.1,0.03 -0.13,0.06zm-0.07 -0.51c0.11,-0.06 0.25,-0.06 0.37,-0.02 0.09,0.03 0.15,0.12 0.16,0.22 -0.07,0 -0.13,0 -0.2,-0 -0.01,-0.1 -0.16,-0.12 -0.23,-0.06 -0.05,0.06 -0.03,0.14 -0.03,0.21 0.12,-0.11 0.35,-0.09 0.44,0.05 0.04,0.06 0.04,0.14 0.04,0.21 -0.01,0.1 -0.08,0.2 -0.18,0.23 -0.11,0.04 -0.24,0.04 -0.36,-0.01 -0.09,-0.04 -0.16,-0.14 -0.16,-0.24 -0,-0.11 -0,-0.23 -0,-0.34 0,-0.11 0.06,-0.21 0.15,-0.26z"/>
    <path class="fil2" d="M6.41 7.25c-0.05,0.02 -0.07,0.08 -0.08,0.13 -0,0.1 -0,0.21 -0,0.31 -0,0.05 0.01,0.11 0.05,0.14 0.06,0.04 0.16,0.03 0.19,-0.05 0.02,-0.08 0.01,-0.17 0.01,-0.25 -0,-0.08 0.01,-0.16 -0.02,-0.23 -0.03,-0.05 -0.1,-0.07 -0.15,-0.05zm-0.05 -0.16c0.11,-0.02 0.23,-0.01 0.33,0.05 0.09,0.06 0.12,0.17 0.12,0.26 -0,0.11 0,0.22 -0,0.33 -0.01,0.11 -0.07,0.21 -0.18,0.25 -0.12,0.05 -0.27,0.04 -0.39,-0.03 -0.09,-0.05 -0.13,-0.16 -0.13,-0.25 -0,-0.09 0,-0.19 -0,-0.28 -0,-0.08 0.01,-0.16 0.06,-0.22 0.04,-0.06 0.11,-0.09 0.18,-0.11z"/>
    <path class="fil3" d="M5.03 3.31l0 2.39c0.2,0 0.4,0 0.6,0l0 -0.96c0.26,-0 0.52,0 0.78,-0l0 -0.42c-0.26,0 -0.52,-0 -0.78,0 -0,-0.19 -0,-0.38 -0,-0.57 0.31,-0 0.62,0 0.92,-0 0.01,-0.14 0,-0.29 0,-0.43 -0.51,-0 -1.02,-0 -1.52,-0zm-1.56 -0.96c0.04,0 0.08,0 0.13,0 1.3,0 2.6,0 3.9,0 0.05,0 0.11,-0 0.16,0.01 0.13,0.03 0.22,0.16 0.22,0.3 0,0.22 0,0.43 0,0.65 -0,1.12 0,2.24 -0,3.35 -1.47,0 -2.94,-0 -4.41,0 -0,-1.09 0,-2.19 -0,-3.28 0.02,-0.25 0,-0.49 0.01,-0.74 -0,-0.1 0,-0.19 -0,-0.29l-0 -0z"/>
    <path class="fil4" d="M3.33 2.43c0.04,-0.02 0.08,-0.06 0.13,-0.07 0.01,0.1 0,0.19 0,0.29 -0,0.25 0.01,0.49 -0.01,0.74 0,1.09 0,2.19 0,3.28 -0.14,0.08 -0.28,0.17 -0.42,0.25 -0.17,0.1 -0.34,0.2 -0.51,0.31 0,-1.44 0,-2.87 -0,-4.31 0.27,-0.16 0.53,-0.32 0.8,-0.48z"/>
    <path class="fil5" d="M6.36 7.09c-0.07,0.01 -0.14,0.05 -0.18,0.11 -0.05,0.06 -0.06,0.14 -0.06,0.22 0,0.09 -0,0.19 0,0.28 0,0.1 0.04,0.2 0.13,0.25 0.11,0.07 0.26,0.07 0.39,0.03 0.1,-0.04 0.17,-0.14 0.18,-0.25 0,-0.11 0,-0.22 0,-0.33 0,-0.1 -0.03,-0.21 -0.12,-0.26 -0.1,-0.06 -0.22,-0.07 -0.33,-0.05zm-0.91 0.04c-0.09,0.05 -0.15,0.16 -0.15,0.26 -0,0.11 -0,0.23 0,0.34 0,0.1 0.07,0.2 0.16,0.24 0.11,0.05 0.24,0.05 0.36,0.01 0.1,-0.04 0.17,-0.13 0.18,-0.23 0,-0.07 0,-0.15 -0.04,-0.21 -0.09,-0.15 -0.32,-0.17 -0.44,-0.05 0,-0.07 -0.02,-0.15 0.03,-0.21 0.07,-0.06 0.21,-0.05 0.23,0.06 0.07,0 0.13,0 0.2,0 -0,-0.1 -0.06,-0.19 -0.16,-0.22 -0.12,-0.04 -0.26,-0.04 -0.37,0.02zm-0.86 0.04c-0.05,0.04 -0.07,0.11 -0.08,0.17 0.07,0 0.14,0 0.21,0 0.01,-0.1 0.15,-0.14 0.21,-0.06 0.03,0.05 0.02,0.13 -0.03,0.16 -0.05,0.02 -0.1,0.01 -0.15,0.01 -0,0.05 -0,0.1 0,0.15 0.07,-0 0.18,-0.01 0.22,0.07 0.01,0.05 0.02,0.12 -0.03,0.16 -0.08,0.06 -0.21,0.03 -0.23,-0.08 -0.07,0 -0.14,-0 -0.21,0 0.01,0.07 0.04,0.14 0.1,0.18 0.07,0.06 0.17,0.07 0.26,0.08 0.1,-0 0.22,-0.03 0.29,-0.11 0.06,-0.07 0.06,-0.16 0.05,-0.24 -0.02,-0.09 -0.11,-0.13 -0.19,-0.15 0.05,-0.01 0.11,-0.04 0.14,-0.09 0.03,-0.04 0.03,-0.1 0.02,-0.15 -0.02,-0.09 -0.1,-0.15 -0.18,-0.17 -0.13,-0.04 -0.29,-0.02 -0.39,0.07zm3.29 -3.86c0.14,-0 0.28,-0 0.43,0 0,1.72 0,3.45 -0,5.17 -1.65,0 -3.31,0 -4.96,-0 -0.16,0.01 -0.3,-0.14 -0.3,-0.3 0,-0.42 -0,-0.84 0,-1.26 0.14,-0.08 0.28,-0.17 0.42,-0.25 1.47,-0 2.94,0 4.41,-0 0,-1.12 0,-2.24 0,-3.35z"/>
    <path class="fil5" d="M6.41 7.25c0.05,-0.02 0.13,-0.01 0.15,0.05 0.03,0.07 0.02,0.16 0.02,0.23 -0,0.08 0.01,0.17 -0.01,0.25 -0.02,0.08 -0.13,0.09 -0.19,0.05 -0.04,-0.03 -0.05,-0.09 -0.05,-0.14 0,-0.1 -0,-0.21 0,-0.31 0,-0.05 0.02,-0.11 0.08,-0.13z"/>
    <path class="fil5" d="M5.52 7.63c0.04,-0.03 0.08,-0.06 0.13,-0.06 0.05,-0.01 0.11,0.02 0.12,0.08 0.01,0.06 0.01,0.13 -0.04,0.18 -0.06,0.04 -0.15,0.04 -0.19,-0.02 -0.03,-0.05 -0.02,-0.11 -0.02,-0.17z"/>
   </g>
  </g>
 </g>
</svg>
