<?xml version="1.0" encoding="UTF-8"?>
<!DOCTYPE svg PUBLIC "-//W3C//DTD SVG 1.1//EN" "http://www.w3.org/Graphics/SVG/1.1/DTD/svg11.dtd">
<!-- Creator: CorelDRAW 2019 (64-Bit) -->
<svg xmlns="http://www.w3.org/2000/svg" xml:space="preserve" width="8.83mm" height="8.83mm" version="1.1" style="shape-rendering:geometricPrecision; text-rendering:geometricPrecision; image-rendering:optimizeQuality; fill-rule:evenodd; clip-rule:evenodd"
viewBox="0 0 9.35 9.35"
 xmlns:xlink="http://www.w3.org/1999/xlink">
 <defs>
  <style type="text/css">
   <![CDATA[
    .fil0 {fill:#EBECEC}
    .fil6 {fill:#434242}
    .fil8 {fill:#E44D26}
    .fil4 {fill:#EAEAEA}
    .fil3 {fill:#EF6429}
    .fil7 {fill:#F16529}
    .fil5 {fill:white}
    .fil1 {fill:url(#id0)}
    .fil2 {fill:url(#id1)}
   ]]>
  </style>
  <linearGradient id="id0" gradientUnits="userSpaceOnUse" x1="0.28" y1="4.67" x2="9.07" y2="4.67">
   <stop offset="0" style="stop-opacity:1; stop-color:#D9DADA"/>
   <stop offset="1" style="stop-opacity:1; stop-color:white"/>
  </linearGradient>
  <linearGradient id="id1" gradientUnits="userSpaceOnUse" x1="2.21" y1="5.36" x2="7.14" y2="5.36">
   <stop offset="0" style="stop-opacity:1; stop-color:#EB603D"/>
   <stop offset="1" style="stop-opacity:1; stop-color:#CC3812"/>
  </linearGradient>
 </defs>
 <g id="Capa_x0020_1">
  <metadata id="CorelCorpID_0Corel-Layer"/>
  <g id="_2748124690432">
   <g>
    <rect class="fil0" width="9.35" height="9.35" rx="0.52" ry="0.52"/>
    <path class="fil1" d="M0.52 0.28c-0.14,0 -0.25,0.11 -0.25,0.25l0 8.3c0,0.14 0.11,0.25 0.25,0.25l8.3 0c0.14,0 0.25,-0.11 0.25,-0.25l0 -8.3c0,-0.14 -0.11,-0.25 -0.25,-0.25l-8.3 0z"/>
   </g>
   <g>
    <path class="fil2" d="M4.68 7.08l-1.26 -0.35c-0.03,-0.08 -0.09,-0.84 -0.09,-0.97l0.63 0c-0,0.11 0.01,0.41 0.05,0.49 0.09,0.03 0.58,0.17 0.66,0.17 0.04,-0.03 0.02,-0.16 0.02,-0.22l0 -0.72c-0.2,-0.04 -1.11,0.01 -1.32,-0.01l-0.07 -0.02 -0.17 -1.86c0.08,-0.06 1.3,0.01 1.55,-0.03 0,-0.12 -0.02,-0.5 0.01,-0.59l2 0c0.02,0.11 -0.07,0.89 -0.08,1.07 -0.09,1.06 -0.21,2.17 -0.29,3.22l-1.63 0.46 -0 -0.64zm-2.02 0.51l2.01 0.55 1.96 -0.54c0.11,-0.03 0.07,-0.05 0.08,-0.17 0.01,-0.07 0.02,-0.17 0.02,-0.23 0.01,-0.24 0.1,-1.09 0.12,-1.39 0.01,-0.14 0.04,-0.32 0.04,-0.47 0.01,-0.14 0.03,-0.31 0.04,-0.45 0.02,-0.16 0.02,-0.31 0.04,-0.47l0.08 -0.92c0.01,-0.31 0.08,-0.62 0.08,-0.94l-4.93 0 0.23 2.52c0.01,0.19 0.04,0.42 0.06,0.62l0.17 1.9z"/>
    <path class="fil3" d="M3.13 3.59l1.54 0 1.55 0 -0.05 0.61 -1.49 -0 -0 0.63 1.44 0 -0.18 1.9c-0.21,0.05 -0.42,0.12 -0.62,0.17 -0.12,0.03 -0.53,0.16 -0.62,0.16l-0.02 0.02 0 0.64 1.63 -0.46c0.08,-1.05 0.2,-2.16 0.29,-3.22 0.02,-0.18 0.11,-0.96 0.08,-1.07l-2 0c-0.03,0.09 -0.01,0.47 -0.01,0.59 -0.25,0.04 -1.46,-0.03 -1.55,0.03z"/>
    <polygon class="fil4" points="3.29,5.46 4.67,5.46 4.67,4.84 3.86,4.84 3.81,4.21 4.67,4.21 4.67,3.59 3.13,3.59 "/>
    <path class="fil5" d="M4.67 5.46l0.76 -0c0,0.1 -0.05,0.74 -0.08,0.79 -0.05,0.04 -0.57,0.17 -0.68,0.19 0,0.11 0,0.21 0,0.32 0,0.06 0,0.11 -0,0.17 -0,0.06 -0.02,0.11 0.02,0.14 0.08,0 0.5,-0.13 0.62,-0.16 0.2,-0.06 0.42,-0.12 0.62,-0.17l0.18 -1.9 -1.44 -0 -0 0.62z"/>
    <path class="fil4" d="M4.68 7.08l0.02 -0.02c-0.04,-0.04 -0.02,-0.08 -0.02,-0.14 0,-0.05 0,-0.11 0,-0.17 0,-0.11 0,-0.21 0,-0.32l-0.02 -0.02c-0.07,0 -0.56,-0.13 -0.66,-0.17 -0.03,-0.08 -0.05,-0.38 -0.05,-0.49l-0.63 0c0.01,0.14 0.06,0.9 0.09,0.97l1.26 0.35z"/>
    <polygon class="fil5" points="4.67,4.21 4.68,4.21 6.17,4.21 6.22,3.6 4.67,3.59 "/>
    <path class="fil6" d="M4.73 2.14l0.31 0 0 -0.43c0.07,0.09 0.16,0.27 0.21,0.3 0.05,-0.04 0.12,-0.16 0.15,-0.22l0.06 -0.08 0 0.43 0.33 0 0 -0.94c-0.34,0 -0.32,-0.03 -0.38,0.06 -0.04,0.06 -0.13,0.2 -0.15,0.26 -0.05,-0.03 -0.07,-0.1 -0.11,-0.15 -0.03,-0.04 -0.08,-0.11 -0.09,-0.17l-0.34 0 0 0.94z"/>
    <path class="fil6" d="M2.67 2.14c0.41,0 0.33,0.07 0.33,-0.31l0.27 0 0 0.31c0.2,0 0.33,0.03 0.33,-0.04l0 -0.9 -0.33 0 0 0.3 -0.27 0 0 -0.3 -0.33 0 0 0.94z"/>
    <path class="fil7" d="M4.66 6.42l0.02 0.02c0.11,-0.02 0.63,-0.15 0.68,-0.19 0.03,-0.05 0.08,-0.69 0.08,-0.79l-0.76 0 -1.38 -0 0.07 0.02c0.2,0.02 1.12,-0.03 1.32,0.01l0 0.72c0,0.06 0.02,0.19 -0.02,0.22z"/>
    <polygon class="fil8" points="4.67,4.84 4.68,4.21 4.67,4.21 3.81,4.21 3.86,4.84 "/>
    <polygon class="fil6" points="3.72,1.51 3.99,1.51 3.99,2.14 4.32,2.14 4.32,1.51 4.59,1.51 4.59,1.2 3.72,1.2 "/>
    <path class="fil6" d="M5.92 2.1c0,0.03 0.01,0.04 0.04,0.04l0.69 0c0.07,0 0.04,-0.12 0.04,-0.31l-0.45 0 0 -0.63 -0.33 0 0 0.9z"/>
   </g>
  </g>
 </g>
</svg>
