<?xml version="1.0" encoding="UTF-8"?>
<!DOCTYPE svg PUBLIC "-//W3C//DTD SVG 1.1//EN" "http://www.w3.org/Graphics/SVG/1.1/DTD/svg11.dtd">
<!-- Creator: CorelDRAW 2019 (64-Bit) -->
<svg xmlns="http://www.w3.org/2000/svg" xml:space="preserve" width="8.83mm" height="8.83mm" version="1.1" style="shape-rendering:geometricPrecision; text-rendering:geometricPrecision; image-rendering:optimizeQuality; fill-rule:evenodd; clip-rule:evenodd"
viewBox="0 0 9.79 9.79"
 xmlns:xlink="http://www.w3.org/1999/xlink">
 <defs>
  <style type="text/css">
   <![CDATA[
    .fil0 {fill:#EBECEC}
    .fil6 {fill:#434242}
    .fil3 {fill:#8ACF17}
    .fil5 {fill:#EAEAEA}
    .fil4 {fill:white}
    .fil1 {fill:url(#id0)}
    .fil2 {fill:url(#id1)}
   ]]>
  </style>
  <linearGradient id="id0" gradientUnits="userSpaceOnUse" x1="0.29" y1="4.9" x2="9.51" y2="4.9">
   <stop offset="0" style="stop-opacity:1; stop-color:#D9DADA"/>
   <stop offset="1" style="stop-opacity:1; stop-color:white"/>
  </linearGradient>
  <linearGradient id="id1" gradientUnits="userSpaceOnUse" x1="2.31" y1="5.61" x2="7.48" y2="5.61">
   <stop offset="0" style="stop-opacity:1; stop-color:#63A814"/>
   <stop offset="1" style="stop-opacity:1; stop-color:#8AF016"/>
  </linearGradient>
 </defs>
 <g id="Capa_x0020_1">
  <metadata id="CorelCorpID_0Corel-Layer"/>
  <g id="_2749597606048">
   <g>
    <rect class="fil0" width="9.79" height="9.79" rx="0.55" ry="0.55"/>
    <path class="fil1" d="M0.55 0.29c-0.14,0 -0.26,0.12 -0.26,0.26l0 8.69c0,0.14 0.12,0.26 0.26,0.26l8.69 0c0.14,0 0.26,-0.12 0.26,-0.26l0 -8.69c0,-0.14 -0.12,-0.26 -0.26,-0.26l-8.69 0z"/>
   </g>
   <g>
    <path class="fil2" d="M4.9 7.42l-1.34 -0.36 -0.07 -1.02 0.5 -0c0.02,-0 0.06,-0 0.08,-0 0.09,0.01 0.03,-0.01 0.06,0.02 0.04,0.06 0.04,0.39 0.06,0.5l0.73 0.19c0,-0.3 -0.02,-2.22 0.01,-2.34l0.71 -0c0.21,-0 0.21,-0.03 0.2,0.05 -0.01,-0.07 0,-0.03 -0.03,-0.04l-0.9 -0 -1.57 -0 -0.04 -0.64 1.62 -0 0 -0.64c0.1,-0.03 1.85,-0.01 2.11,-0.01l-0.4 4.5c-0.05,0.03 -1.65,0.47 -1.71,0.47l0 -0.66zm-2.12 0.54c0.33,0.08 0.71,0.21 1.05,0.29 0.18,0.05 0.35,0.09 0.53,0.15 0.09,0.03 0.16,0.05 0.26,0.07 0.34,0.09 0.2,0.1 0.53,0.01 0.1,-0.03 0.18,-0.05 0.27,-0.07l1.07 -0.3c0.1,-0.03 0.47,-0.12 0.53,-0.16l0.43 -4.92c0.02,-0.11 0.02,-0.22 0.02,-0.34l-5.16 0c0,0.1 0.02,0.22 0.03,0.32l0.14 1.66c0.02,0.21 0.05,0.45 0.06,0.66l0.11 1.31c0.03,0.2 0.05,0.45 0.06,0.66 0.01,0.1 0.03,0.22 0.03,0.33 0,0.1 0.03,0.23 0.03,0.33z"/>
    <path class="fil3" d="M4.9 3.75l1.62 0c-0,0.06 0,0.03 -0.01,0.05 0.02,0.11 -0.12,1.41 -0.14,1.64 -0.03,0.32 -0.11,1.38 -0.15,1.61l-1.32 0.36 -0 0.66c0.06,0 1.67,-0.44 1.71,-0.47l0.4 -4.5c-0.26,-0 -2.01,-0.02 -2.11,0.01l0 0.64z"/>
    <path class="fil4" d="M4.88 4.4l0.9 0c0.03,0.01 0.02,-0.02 0.03,0.04l-0.2 2.1 -0.69 0.19 -0.02 0.02c-0,0 -0.01,0.01 -0.01,0.02 0,0.14 -0.02,0.54 0.02,0.64l1.32 -0.36c0.04,-0.23 0.12,-1.3 0.15,-1.61 0.02,-0.23 0.15,-1.53 0.14,-1.64l-0.01 -0.03 -1.61 0 0 0.62z"/>
    <path class="fil3" d="M4.9 6.74l0.02 -0 0.69 -0.19 0.2 -2.1c0.01,-0.08 0.01,-0.05 -0.2,-0.05l-0.71 0c-0.03,0.13 -0.01,2.04 -0.01,2.34z"/>
    <path class="fil5" d="M4.9 7.42c-0.04,-0.1 -0.02,-0.5 -0.02,-0.64 0,-0 0.01,-0.02 0.01,-0.02l0.02 -0.02 -0.02 0 -0.73 -0.19c-0.02,-0.1 -0.02,-0.44 -0.06,-0.5 -0.03,-0.03 0.03,-0.01 -0.06,-0.02 -0.02,-0 -0.06,0 -0.08,0l-0.5 0 0.07 1.02 1.34 0.36z"/>
    <path class="fil5" d="M4.88 4.4l0 -0.62 1.61 -0 0.01 0.03c0.02,-0.02 0.01,0.01 0.01,-0.05l-1.62 -0 -1.62 0 0.04 0.64 1.57 0z"/>
    <path class="fil6" d="M4.95 1.58c0,0.05 0.05,0.07 0.08,0.09l0.3 0.24 -0.38 0 0 0.33 0.93 0c0,-0.4 0.05,-0.29 -0.18,-0.46 -0.05,-0.04 -0.17,-0.13 -0.2,-0.16l0.38 0 0 -0.36 -0.93 0 0 0.33z"/>
    <path class="fil6" d="M4.4 1.88l-0.47 0c-0.08,0 -0.05,0.11 -0.05,0.31 0,0.04 0.01,0.05 0.05,0.05l0.88 0 0 -0.99 -0.41 0 0 0.63z"/>
   </g>
  </g>
 </g>
</svg>
