<?xml version="1.0" encoding="UTF-8"?>
<!DOCTYPE svg PUBLIC "-//W3C//DTD SVG 1.1//EN" "http://www.w3.org/Graphics/SVG/1.1/DTD/svg11.dtd">
<!-- Creator: CorelDRAW (Versión de evaluación) -->
<svg xmlns="http://www.w3.org/2000/svg" xml:space="preserve" width="7.342mm" height="6.7808mm" version="1.1" style="shape-rendering:geometricPrecision; text-rendering:geometricPrecision; image-rendering:optimizeQuality; fill-rule:evenodd; clip-rule:evenodd"
viewBox="0 0 3.61 3.33"
 xmlns:xlink="http://www.w3.org/1999/xlink"
 xmlns:xodm="http://www.corel.com/coreldraw/odm/2003">
 <defs>
  <style type="text/css">
   <![CDATA[
    .fil2 {fill:#FECC00}
    .fil0 {fill:#F08143}
    .fil1 {fill:#B0CB1F}
   ]]>
  </style>
 </defs>
 <g id="Capa_x0020_1">
  <metadata id="CorelCorpID_0Corel-Layer"/>
  <path class="fil0" d="M0.7 1.87l-0 0.03c0.03,0.4 -0.11,0.66 0.26,0.88 0.13,0.07 0.29,0.11 0.46,0.07 0.21,-0.05 0.38,-0.3 0.63,-0.51 0.1,-0.08 0.2,-0.2 0.29,-0.29 0.12,-0.12 0.47,-0.5 0.57,-0.57l0 -0.04c-0,-0.16 0.02,-0.43 -0,-0.58 -0.01,-0.11 -0.18,-0.26 -0.27,-0.31 -0.15,-0.08 -0.31,-0.1 -0.48,-0.05 -0.17,0.05 -0.23,0.15 -0.32,0.24 -0.05,0.06 -0.09,0.1 -0.15,0.15 -0.05,0.05 -0.1,0.08 -0.15,0.13l-0.84 0.85z"/>
  <path class="fil1" d="M0.7 1.87l0.84 -0.85c0.05,-0.05 0.1,-0.08 0.15,-0.13 0.05,-0.05 0.09,-0.1 0.15,-0.15 0.09,-0.09 0.15,-0.19 0.32,-0.24 0.17,-0.05 0.33,-0.02 0.48,0.05 0.09,0.05 0.25,0.2 0.27,0.31 0.02,0.15 -0,0.42 0,0.58 0.1,-0.06 0.34,-0.32 0.44,-0.43 0.14,-0.14 0.34,-0.25 0.23,-0.59 -0.18,-0.53 -0.82,-0.42 -1.29,-0.42 -0.29,-0 -0.57,-0 -0.86,-0 -0.14,0 -0.24,0.01 -0.35,0.07 -0.08,0.04 -0.19,0.13 -0.24,0.19 -0.23,0.31 -0.11,1.14 -0.14,1.59z"/>
  <path class="fil2" d="M0.7 1.89c-0.1,0.07 -0.34,0.33 -0.44,0.44 -0.13,0.13 -0.34,0.26 -0.22,0.59 0.07,0.2 0.25,0.34 0.47,0.39 0.14,0.03 1.46,0.02 1.7,0.02 0.27,-0.01 0.47,-0.11 0.58,-0.28 0.15,-0.23 0.13,-0.42 0.13,-0.73 0,-0.28 -0.01,-0.57 0,-0.84 -0.1,0.06 -0.46,0.45 -0.57,0.57 -0.09,0.09 -0.19,0.21 -0.29,0.29 -0.25,0.21 -0.42,0.46 -0.63,0.51 -0.17,0.04 -0.33,0 -0.46,-0.07 -0.37,-0.22 -0.23,-0.48 -0.26,-0.88z"/>
 </g>
</svg>
