<?xml version="1.0" encoding="UTF-8"?>
<!DOCTYPE svg PUBLIC "-//W3C//DTD SVG 1.1//EN" "http://www.w3.org/Graphics/SVG/1.1/DTD/svg11.dtd">
<!-- Creator: CorelDRAW 2019 (64-Bit) -->
<svg xmlns="http://www.w3.org/2000/svg" xml:space="preserve" width="8.83mm" height="8.83mm" version="1.1" style="shape-rendering:geometricPrecision; text-rendering:geometricPrecision; image-rendering:optimizeQuality; fill-rule:evenodd; clip-rule:evenodd"
viewBox="0 0 10.29 10.29"
 xmlns:xlink="http://www.w3.org/1999/xlink">
 <defs>
  <style type="text/css">
   <![CDATA[
    .fil0 {fill:#EBECEC}
    .fil2 {fill:#8CC84B}
    .fil1 {fill:url(#id0)}
   ]]>
  </style>
  <linearGradient id="id0" gradientUnits="userSpaceOnUse" x1="0.3" y1="5.14" x2="9.98" y2="5.14">
   <stop offset="0" style="stop-opacity:1; stop-color:#D9DADA"/>
   <stop offset="1" style="stop-opacity:1; stop-color:white"/>
  </linearGradient>
 </defs>
 <g id="Capa_x0020_1">
  <metadata id="CorelCorpID_0Corel-Layer"/>
  <g id="_2749714041600">
   <g>
    <rect class="fil0" width="10.29" height="10.29" rx="0.58" ry="0.58"/>
    <path class="fil1" d="M0.58 0.3c-0.15,0 -0.27,0.12 -0.27,0.27l0 9.13c0,0.15 0.12,0.27 0.27,0.27l9.13 0c0.15,0 0.27,-0.12 0.27,-0.27l0 -9.13c0,-0.15 -0.12,-0.27 -0.27,-0.27l-9.13 0z"/>
   </g>
   <g>
    <g>
     <path class="fil2" d="M4.88 1.97c0.16,-0.09 0.37,-0.09 0.53,0 0.81,0.46 1.61,0.91 2.42,1.37 0.15,0.09 0.25,0.25 0.25,0.43l0 2.74c0,0.18 -0.11,0.36 -0.27,0.44 -0.8,0.45 -1.61,0.91 -2.41,1.36 -0.16,0.09 -0.38,0.09 -0.54,-0.01 -0.24,-0.14 -0.48,-0.28 -0.72,-0.42 -0.05,-0.03 -0.1,-0.05 -0.14,-0.1 0.03,-0.04 0.09,-0.05 0.13,-0.06 0.1,-0.03 0.19,-0.08 0.29,-0.13 0.02,-0.02 0.05,-0.01 0.07,0 0.21,0.12 0.41,0.24 0.62,0.36 0.04,0.03 0.09,-0.01 0.13,-0.03 0.79,-0.45 1.58,-0.89 2.37,-1.34 0.03,-0.01 0.05,-0.05 0.04,-0.08 0,-0.9 0,-1.81 0,-2.71 0,-0.04 -0.02,-0.07 -0.05,-0.08 -0.8,-0.45 -1.6,-0.9 -2.4,-1.35 -0.01,-0.01 -0.03,-0.01 -0.05,-0.01 -0.02,0 -0.03,0.01 -0.05,0.01 -0.8,0.45 -1.6,0.9 -2.4,1.36 -0.03,0.01 -0.05,0.05 -0.05,0.08 0,0.9 0,1.81 0,2.72 -0,0 -0,0 -0,0.01 0,0.03 0.02,0.06 0.04,0.07 0.21,0.12 0.43,0.24 0.64,0.36 0.12,0.06 0.27,0.1 0.4,0.05 0.12,-0.04 0.2,-0.16 0.2,-0.29 0,-0.9 -0,-1.8 0,-2.7 -0,-0.04 0.03,-0.07 0.07,-0.07 0.1,-0 0.21,-0 0.31,0 0.04,-0 0.07,0.04 0.07,0.08 -0,0.91 0,1.81 -0,2.72 0,0.24 -0.1,0.5 -0.32,0.62 -0.28,0.14 -0.61,0.11 -0.89,-0.02 -0.24,-0.12 -0.46,-0.26 -0.69,-0.38 -0.16,-0.08 -0.27,-0.26 -0.27,-0.44l0 -2.74c-0,-0.18 0.1,-0.35 0.26,-0.43 0.8,-0.45 1.61,-0.91 2.41,-1.36z"/>
     <path class="fil2" d="M5.58 3.87c0.35,-0.02 0.73,-0.01 1.04,0.16 0.24,0.13 0.38,0.41 0.38,0.68 -0.01,0.04 -0.05,0.06 -0.08,0.05 -0.1,-0 -0.2,0 -0.31,-0 -0.04,0 -0.07,-0.04 -0.07,-0.08 -0.03,-0.13 -0.1,-0.26 -0.22,-0.32 -0.19,-0.09 -0.41,-0.09 -0.61,-0.09 -0.15,0.01 -0.31,0.02 -0.44,0.11 -0.1,0.07 -0.13,0.2 -0.09,0.31 0.03,0.08 0.12,0.1 0.2,0.13 0.42,0.11 0.87,0.1 1.29,0.24 0.17,0.06 0.34,0.17 0.4,0.35 0.08,0.24 0.04,0.53 -0.13,0.72 -0.14,0.16 -0.34,0.25 -0.54,0.29 -0.27,0.06 -0.55,0.06 -0.82,0.03 -0.26,-0.03 -0.52,-0.1 -0.72,-0.27 -0.17,-0.15 -0.25,-0.38 -0.24,-0.6 0,-0.04 0.04,-0.06 0.07,-0.06 0.1,-0 0.2,-0 0.31,0 0.04,-0 0.07,0.03 0.07,0.07 0.02,0.12 0.07,0.25 0.17,0.33 0.21,0.13 0.47,0.13 0.71,0.13 0.2,-0.01 0.42,-0.01 0.58,-0.14 0.09,-0.07 0.11,-0.2 0.09,-0.31 -0.02,-0.09 -0.12,-0.13 -0.2,-0.16 -0.42,-0.13 -0.87,-0.08 -1.28,-0.23 -0.17,-0.06 -0.33,-0.17 -0.39,-0.34 -0.09,-0.24 -0.05,-0.55 0.14,-0.73 0.18,-0.19 0.45,-0.26 0.7,-0.28l0 0z"/>
    </g>
   </g>
  </g>
 </g>
</svg>
