<?xml version="1.0" encoding="UTF-8"?>
<!DOCTYPE svg PUBLIC "-//W3C//DTD SVG 1.1//EN" "http://www.w3.org/Graphics/SVG/1.1/DTD/svg11.dtd">
<!-- Creator: CorelDRAW 2019 (64-Bit) -->
<svg xmlns="http://www.w3.org/2000/svg" xml:space="preserve" width="8.83mm" height="8.83mm" version="1.1" style="shape-rendering:geometricPrecision; text-rendering:geometricPrecision; image-rendering:optimizeQuality; fill-rule:evenodd; clip-rule:evenodd"
viewBox="0 0 10.56 10.56"
 xmlns:xlink="http://www.w3.org/1999/xlink">
 <defs>
  <style type="text/css">
   <![CDATA[
    .fil0 {fill:#EBECEC}
    .fil2 {fill:#00D8FF}
    .fil3 {fill:#00D8FF;fill-rule:nonzero}
    .fil1 {fill:url(#id0)}
   ]]>
  </style>
  <linearGradient id="id0" gradientUnits="userSpaceOnUse" x1="0.31" y1="5.28" x2="10.25" y2="5.28">
   <stop offset="0" style="stop-opacity:1; stop-color:#D9DADA"/>
   <stop offset="1" style="stop-opacity:1; stop-color:white"/>
  </linearGradient>
 </defs>
 <g id="Capa_x0020_1">
  <metadata id="CorelCorpID_0Corel-Layer"/>
  <g id="_2749029860656">
   <g>
    <rect class="fil0" width="10.56" height="10.56" rx="0.59" ry="0.59"/>
    <path class="fil1" d="M0.59 0.31c-0.15,0 -0.28,0.13 -0.28,0.28l0 9.37c0,0.15 0.13,0.28 0.28,0.28l9.37 0c0.15,0 0.28,-0.13 0.28,-0.28l0 -9.37c0,-0.15 -0.13,-0.28 -0.28,-0.28l-9.37 0z"/>
   </g>
   <g>
    <path class="fil2" d="M5.93 5.27c0,-0.36 -0.29,-0.65 -0.65,-0.65 -0.36,0 -0.65,0.29 -0.65,0.65 0,0.36 0.29,0.65 0.65,0.65 0.36,0 0.65,-0.29 0.65,-0.65z"/>
    <path class="fil3" d="M5.28 3.79c0.44,0 0.86,0.03 1.25,0.09 0.4,0.06 0.78,0.15 1.09,0.26 0.38,0.13 0.7,0.3 0.92,0.48 0.24,0.2 0.38,0.43 0.38,0.65 0,0.23 -0.14,0.47 -0.41,0.68 -0.23,0.19 -0.57,0.36 -0.97,0.5 -0.3,0.1 -0.66,0.18 -1.04,0.23 -0.39,0.05 -0.8,0.08 -1.22,0.08 -0.44,0 -0.87,-0.03 -1.27,-0.08 -0.38,-0.05 -0.74,-0.13 -1.04,-0.23 -0.39,-0.13 -0.71,-0.31 -0.94,-0.5 -0.25,-0.21 -0.39,-0.45 -0.39,-0.68 0,-0.22 0.13,-0.45 0.37,-0.65 0.21,-0.18 0.52,-0.35 0.9,-0.48 0.32,-0.11 0.7,-0.2 1.11,-0.26 0.4,-0.06 0.83,-0.09 1.27,-0.09zm1.21 0.4c-0.38,-0.06 -0.78,-0.08 -1.21,-0.08 -0.43,0 -0.85,0.03 -1.23,0.09 -0.39,0.06 -0.75,0.14 -1.05,0.25 -0.34,0.12 -0.61,0.27 -0.8,0.42 -0.17,0.14 -0.26,0.28 -0.26,0.41 0,0.13 0.1,0.29 0.28,0.44 0.2,0.16 0.48,0.32 0.84,0.44 0.29,0.1 0.62,0.17 0.98,0.22 0.38,0.05 0.8,0.08 1.23,0.08 0.41,0 0.81,-0.03 1.18,-0.08 0.36,-0.05 0.7,-0.12 0.98,-0.22 0.37,-0.12 0.67,-0.28 0.88,-0.45 0.19,-0.15 0.29,-0.31 0.29,-0.44 0,-0.13 -0.09,-0.27 -0.27,-0.41 -0.19,-0.16 -0.47,-0.31 -0.82,-0.43 -0.3,-0.1 -0.65,-0.19 -1.04,-0.24z"/>
    <path class="fil3" d="M3.99 4.54c0.22,-0.38 0.46,-0.73 0.7,-1.04 0.25,-0.32 0.51,-0.6 0.77,-0.82l-0 -0c0.31,-0.27 0.61,-0.45 0.88,-0.55 0.3,-0.11 0.56,-0.11 0.75,-0 0.2,0.12 0.34,0.36 0.39,0.69 0.05,0.3 0.03,0.67 -0.05,1.09 -0.07,0.32 -0.17,0.66 -0.32,1.02 -0.15,0.36 -0.33,0.73 -0.54,1.1 -0.22,0.38 -0.46,0.74 -0.7,1.06 -0.24,0.31 -0.48,0.57 -0.72,0.79 -0.31,0.27 -0.63,0.46 -0.9,0.56 -0.31,0.11 -0.59,0.12 -0.79,0 -0.19,-0.11 -0.32,-0.34 -0.38,-0.64 -0.05,-0.27 -0.04,-0.62 0.03,-1.01 0.06,-0.33 0.17,-0.71 0.33,-1.09 0.15,-0.37 0.34,-0.76 0.56,-1.15zm0.95 -0.85c-0.24,0.3 -0.47,0.64 -0.68,1 -0.21,0.37 -0.39,0.74 -0.54,1.11 -0.15,0.37 -0.25,0.72 -0.31,1.03 -0.07,0.36 -0.08,0.66 -0.03,0.9 0.04,0.22 0.12,0.37 0.23,0.43 0.12,0.07 0.3,0.06 0.52,-0.02 0.24,-0.09 0.52,-0.26 0.8,-0.51 0.23,-0.2 0.46,-0.45 0.68,-0.74 0.24,-0.31 0.47,-0.66 0.68,-1.03 0.21,-0.36 0.38,-0.72 0.52,-1.06 0.14,-0.34 0.24,-0.66 0.3,-0.96 0.08,-0.38 0.09,-0.72 0.05,-0.98 -0.04,-0.24 -0.12,-0.4 -0.24,-0.47 -0.11,-0.06 -0.28,-0.05 -0.49,0.02 -0.23,0.09 -0.5,0.25 -0.78,0.5l-0 0c-0.24,0.21 -0.49,0.47 -0.73,0.78z"/>
    <path class="fil3" d="M3.99 6.02c-0.22,-0.38 -0.4,-0.76 -0.55,-1.13 -0.15,-0.38 -0.26,-0.75 -0.33,-1.08 -0.08,-0.4 -0.09,-0.75 -0.04,-1.03 0.05,-0.31 0.18,-0.54 0.37,-0.65 0.2,-0.12 0.48,-0.11 0.79,0.01 0.28,0.11 0.6,0.31 0.92,0.59 0.24,0.21 0.49,0.48 0.72,0.79 0.24,0.31 0.47,0.65 0.68,1.02 0.22,0.38 0.41,0.77 0.57,1.14 0.15,0.36 0.26,0.7 0.32,1.02 0.08,0.41 0.09,0.77 0.04,1.06 -0.06,0.33 -0.19,0.57 -0.39,0.68 -0.19,0.11 -0.45,0.11 -0.75,0.01 -0.26,-0.09 -0.56,-0.27 -0.86,-0.53 -0.26,-0.22 -0.52,-0.5 -0.78,-0.83 -0.25,-0.32 -0.49,-0.67 -0.72,-1.06zm-0.26 -1.24c0.14,0.35 0.32,0.72 0.53,1.09 0.21,0.37 0.45,0.72 0.69,1.02 0.25,0.31 0.5,0.58 0.74,0.78 0.27,0.24 0.54,0.4 0.77,0.48 0.21,0.07 0.38,0.08 0.49,0.02 0.12,-0.07 0.2,-0.23 0.24,-0.47 0.04,-0.25 0.04,-0.58 -0.04,-0.95 -0.06,-0.3 -0.16,-0.62 -0.3,-0.96 -0.15,-0.36 -0.33,-0.73 -0.55,-1.1 -0.21,-0.36 -0.43,-0.69 -0.66,-0.99 -0.22,-0.29 -0.46,-0.54 -0.68,-0.74 -0.29,-0.26 -0.58,-0.44 -0.83,-0.53 -0.23,-0.09 -0.41,-0.1 -0.53,-0.03 -0.11,0.06 -0.19,0.22 -0.22,0.44 -0.04,0.25 -0.03,0.56 0.04,0.92 0.06,0.31 0.17,0.66 0.31,1.02z"/>
   </g>
  </g>
 </g>
</svg>
