<?xml version="1.0" encoding="UTF-8"?>
<!DOCTYPE svg PUBLIC "-//W3C//DTD SVG 1.1//EN" "http://www.w3.org/Graphics/SVG/1.1/DTD/svg11.dtd">
<!-- Creator: CorelDRAW 2019 (64-Bit) -->
<svg xmlns="http://www.w3.org/2000/svg" xml:space="preserve" width="87.7457mm" height="7.5499mm" version="1.1" style="shape-rendering:geometricPrecision; text-rendering:geometricPrecision; image-rendering:optimizeQuality; fill-rule:evenodd; clip-rule:evenodd"
viewBox="0 0 161.97 13.94"
 xmlns:xlink="http://www.w3.org/1999/xlink">
 <defs>
  <style type="text/css">
   <![CDATA[
    .fil22 {fill:none}
    .fil11 {fill:#FEFEFC}
    .fil5 {fill:#00D8FF}
    .fil21 {fill:#053100}
    .fil8 {fill:#28A8E0}
    .fil13 {fill:#8ACF17}
    .fil4 {fill:#8CC84B}
    .fil17 {fill:#E44D26}
    .fil10 {fill:#EAEAEA}
    .fil15 {fill:#EF6429}
    .fil16 {fill:#F16529}
    .fil9 {fill:white}
    .fil6 {fill:#00D8FF;fill-rule:nonzero}
    .fil3 {fill:#923B00;fill-rule:nonzero}
    .fil1 {fill:#FF6B00;fill-rule:nonzero}
    .fil2 {fill:#FF9447;fill-rule:nonzero}
    .fil0 {fill:white;fill-rule:nonzero}
    .fil12 {fill:url(#id3)}
    .fil7 {fill:url(#id4)}
    .fil14 {fill:url(#id5)}
    .fil23 {fill:url(#id6)}
    .fil24 {fill:url(#id7)}
    .fil20 {fill:url(#id8)}
    .fil19 {fill:url(#id9)}
    .fil18 {fill:url(#id10)}
   ]]>
  </style>
     <clipPath id="id0">
      <path d="M154.75 1.14l7.22 0 0 7.22c0,1.99 -1.63,3.62 -3.62,3.62l-3.61 0c-1.99,0 -3.62,-1.63 -3.62,-3.62l0 -3.6c0,-1.99 1.63,-3.62 3.62,-3.62z"/>
     </clipPath>
       <mask id="id1">
  <linearGradient id="id2" gradientUnits="userSpaceOnUse" x1="156.35" y1="7.55" x2="151.92" y2="9.93">
   <stop offset="0" style="stop-opacity:1; stop-color:white"/>
   <stop offset="1" style="stop-opacity:0; stop-color:white"/>
  </linearGradient>
        <rect style="fill:url(#id2)" x="147.7" y="4.03" width="11.95" height="12.03"/>
       </mask>
  <linearGradient id="id3" gradientUnits="userSpaceOnUse" x1="42.84" y1="8.01" x2="53.3" y2="8.01">
   <stop offset="0" style="stop-opacity:1; stop-color:#63A814"/>
   <stop offset="1" style="stop-opacity:1; stop-color:#8AF016"/>
  </linearGradient>
  <linearGradient id="id4" gradientUnits="userSpaceOnUse" x1="21.78" y1="8.01" x2="32.23" y2="8.01">
   <stop offset="0" style="stop-opacity:1; stop-color:#0070BA"/>
   <stop offset="1" style="stop-opacity:1; stop-color:#2B9BE6"/>
  </linearGradient>
  <linearGradient id="id5" gradientUnits="userSpaceOnUse" x1="-0" y1="8.01" x2="10.45" y2="8.01">
   <stop offset="0" style="stop-opacity:1; stop-color:#EB603D"/>
   <stop offset="1" style="stop-opacity:1; stop-color:#CC3812"/>
  </linearGradient>
  <linearGradient id="id6" gradientUnits="userSpaceOnUse" x1="156.52" y1="6.34" x2="155.51" y2="7.35">
   <stop offset="0" style="stop-opacity:1; stop-color:white"/>
   <stop offset="1" style="stop-opacity:1; stop-color:#91C796"/>
  </linearGradient>
  <linearGradient id="id7" gradientUnits="userSpaceOnUse" xlink:href="#id6" x1="159.22" y1="9.6" x2="158.82" y2="10.01">
  </linearGradient>
  <linearGradient id="id8" gradientUnits="userSpaceOnUse" x1="155.62" y1="3.51" x2="155.62" y2="11.65">
   <stop offset="0" style="stop-opacity:1; stop-color:#14EA32"/>
   <stop offset="1" style="stop-opacity:1; stop-color:#08590C"/>
  </linearGradient>
  <linearGradient id="id9" gradientUnits="userSpaceOnUse" x1="69.73" y1="1.27" x2="71.1" y2="10.64">
   <stop offset="0" style="stop-opacity:1; stop-color:#FFEA83"/>
   <stop offset="0.0784314" style="stop-opacity:1; stop-color:#FFDD35"/>
   <stop offset="1" style="stop-opacity:1; stop-color:#FFA800"/>
  </linearGradient>
  <linearGradient id="id10" gradientUnits="userSpaceOnUse" x1="63.48" y1="3.59" x2="70.12" y2="12.6">
   <stop offset="0" style="stop-opacity:1; stop-color:#41D1FF"/>
   <stop offset="1" style="stop-opacity:1; stop-color:#BD34FE"/>
  </linearGradient>
 </defs>
 <g id="Capa_x0020_1">
  <metadata id="CorelCorpID_0Corel-Layer"/>
  <g id="_2430458371808">
   <g>
    <path class="fil0" d="M133.26 2.71c0.93,0 1.86,-0 2.79,0 -0.01,0.26 0.01,0.53 -0.01,0.78 -0.56,0 -1.13,0 -1.69,0 0,0.35 -0,0.7 0,1.04 0.48,-0 0.96,-0 1.43,-0l0 0.77c-0.48,0 -0.96,0 -1.44,0l0 1.76c-0.36,0 -0.73,0 -1.09,-0l0 -4.36z"/>
    <path class="fil0" d="M132.45 9.76c0.19,-0.17 0.48,-0.2 0.72,-0.13 0.15,0.04 0.3,0.15 0.33,0.31 0.01,0.09 0.02,0.2 -0.04,0.28 -0.06,0.09 -0.16,0.13 -0.26,0.16 0.15,0.03 0.31,0.11 0.35,0.27 0.03,0.15 0.02,0.33 -0.09,0.45 -0.13,0.15 -0.34,0.2 -0.53,0.2 -0.17,-0 -0.35,-0.03 -0.48,-0.14 -0.1,-0.08 -0.16,-0.21 -0.18,-0.33 0.13,-0.01 0.26,-0 0.39,-0.01 0.03,0.19 0.28,0.24 0.42,0.14 0.08,-0.07 0.08,-0.19 0.05,-0.29 -0.07,-0.15 -0.26,-0.13 -0.4,-0.13 -0,-0.09 -0,-0.19 0,-0.28 0.09,-0 0.19,0.01 0.28,-0.03 0.1,-0.05 0.11,-0.2 0.06,-0.29 -0.11,-0.13 -0.37,-0.07 -0.38,0.12 -0.13,0 -0.26,0 -0.39,-0 0.02,-0.11 0.06,-0.23 0.15,-0.31z"/>
    <path class="fil0" d="M134.16 10.61c0.01,0.1 -0.02,0.22 0.04,0.31 0.08,0.11 0.25,0.11 0.35,0.04 0.09,-0.08 0.08,-0.22 0.07,-0.32 -0.01,-0.1 -0.12,-0.15 -0.21,-0.14 -0.09,0 -0.18,0.05 -0.24,0.11zm-0.13 -0.92c0.21,-0.11 0.46,-0.11 0.68,-0.03 0.17,0.06 0.28,0.23 0.29,0.4 -0.12,0 -0.24,0 -0.36,-0 -0.02,-0.19 -0.29,-0.22 -0.41,-0.1 -0.09,0.11 -0.05,0.25 -0.06,0.38 0.22,-0.21 0.64,-0.17 0.8,0.09 0.07,0.12 0.07,0.26 0.07,0.39 -0.01,0.19 -0.15,0.36 -0.33,0.43 -0.21,0.08 -0.45,0.08 -0.65,-0.01 -0.17,-0.08 -0.29,-0.25 -0.29,-0.44 -0,-0.21 -0,-0.42 -0,-0.63 0,-0.19 0.1,-0.39 0.28,-0.48z"/>
    <path class="fil0" d="M135.79 9.91c-0.1,0.03 -0.14,0.14 -0.14,0.23 -0,0.19 -0,0.38 -0,0.57 -0,0.09 0.01,0.2 0.1,0.26 0.11,0.07 0.3,0.05 0.34,-0.09 0.04,-0.15 0.02,-0.31 0.02,-0.46 -0.01,-0.14 0.02,-0.29 -0.04,-0.42 -0.05,-0.1 -0.18,-0.12 -0.28,-0.08zm-0.1 -0.29c0.2,-0.04 0.43,-0.02 0.61,0.09 0.16,0.11 0.22,0.3 0.22,0.48 -0,0.2 0,0.4 -0,0.6 -0.01,0.2 -0.13,0.39 -0.32,0.46 -0.23,0.09 -0.5,0.08 -0.71,-0.05 -0.16,-0.1 -0.24,-0.28 -0.24,-0.46 -0,-0.17 0,-0.35 -0,-0.52 -0,-0.14 0.02,-0.29 0.11,-0.4 0.08,-0.11 0.21,-0.17 0.34,-0.2z"/>
    <path class="fil1" d="M133.26 2.71l0 4.36c0.36,0 0.73,0 1.09,0l0 -1.76c0.48,-0 0.96,0 1.44,-0l0 -0.77c-0.48,0 -0.96,-0 -1.43,0 -0,-0.35 -0,-0.7 -0,-1.04 0.56,-0 1.13,0 1.69,-0 0.02,-0.26 0,-0.52 0.01,-0.78 -0.93,-0 -1.86,-0 -2.79,-0zm-2.85 -1.76c0.08,0.01 0.15,0.01 0.23,0 2.38,0 4.76,0 7.13,0 0.1,0 0.2,-0.01 0.3,0.02 0.24,0.06 0.41,0.3 0.41,0.54 0,0.4 0,0.79 0,1.19 -0,2.04 0,4.09 -0,6.13 -2.69,0 -5.38,-0 -8.07,0 -0,-2 0,-4 -0,-6 0.03,-0.45 0.01,-0.9 0.01,-1.35 -0,-0.18 0.01,-0.35 -0.01,-0.53l-0 -0.01z"/>
    <path class="fil2" d="M130.16 1.1c0.08,-0.05 0.16,-0.11 0.25,-0.13 0.01,0.18 0,0.35 0.01,0.53 -0.01,0.45 0.01,0.9 -0.01,1.35 0,2 0,4 0,6 -0.26,0.15 -0.52,0.31 -0.77,0.46 -0.31,0.19 -0.62,0.37 -0.93,0.56 0,-2.63 0,-5.26 -0,-7.88 0.49,-0.3 0.98,-0.59 1.47,-0.89z"/>
    <path class="fil3" d="M135.69 9.62c-0.13,0.03 -0.26,0.09 -0.34,0.2 -0.09,0.11 -0.11,0.26 -0.11,0.4 0,0.17 -0,0.35 0,0.52 0,0.18 0.08,0.37 0.24,0.46 0.21,0.13 0.48,0.13 0.71,0.05 0.19,-0.07 0.31,-0.26 0.32,-0.46 0.01,-0.2 0,-0.4 0,-0.6 0,-0.18 -0.06,-0.38 -0.22,-0.48 -0.18,-0.12 -0.4,-0.13 -0.61,-0.09zm-1.66 0.07c-0.17,0.09 -0.27,0.29 -0.28,0.48 -0,0.21 -0,0.42 0,0.63 0.01,0.19 0.12,0.36 0.29,0.44 0.2,0.09 0.44,0.09 0.65,0.01 0.18,-0.07 0.31,-0.24 0.33,-0.43 0.01,-0.13 0.01,-0.28 -0.07,-0.39 -0.16,-0.27 -0.58,-0.3 -0.8,-0.09 0.01,-0.13 -0.03,-0.27 0.06,-0.38 0.12,-0.12 0.39,-0.09 0.41,0.1 0.12,0 0.24,0 0.36,0 -0,-0.18 -0.12,-0.34 -0.29,-0.4 -0.22,-0.08 -0.47,-0.08 -0.68,0.03zm-1.57 0.08c-0.09,0.08 -0.13,0.19 -0.15,0.31 0.13,0 0.26,0 0.39,0 0.01,-0.18 0.27,-0.25 0.38,-0.12 0.05,0.09 0.04,0.24 -0.06,0.29 -0.09,0.04 -0.19,0.02 -0.28,0.03 -0,0.09 -0,0.19 0,0.28 0.14,-0 0.33,-0.02 0.4,0.13 0.03,0.09 0.03,0.22 -0.05,0.29 -0.14,0.11 -0.39,0.05 -0.42,-0.14 -0.13,0 -0.26,-0.01 -0.39,0.01 0.03,0.13 0.08,0.25 0.18,0.33 0.13,0.11 0.32,0.14 0.48,0.14 0.19,-0.01 0.4,-0.06 0.53,-0.2 0.11,-0.12 0.11,-0.29 0.09,-0.45 -0.04,-0.16 -0.2,-0.24 -0.35,-0.27 0.1,-0.02 0.2,-0.07 0.26,-0.16 0.06,-0.08 0.05,-0.19 0.04,-0.28 -0.03,-0.16 -0.18,-0.27 -0.33,-0.31 -0.24,-0.07 -0.53,-0.04 -0.72,0.13zm6.02 -7.06c0.26,-0 0.52,-0 0.78,0 0,3.15 0,6.3 -0,9.45 -3.03,0 -6.05,0 -9.08,-0 -0.3,0.01 -0.56,-0.26 -0.55,-0.56 0,-0.77 -0.01,-1.53 0,-2.3 0.26,-0.15 0.51,-0.31 0.77,-0.46 2.69,-0.01 5.38,0 8.07,-0 0,-2.04 0,-4.09 0,-6.13z"/>
    <path class="fil3" d="M135.79 9.91c0.1,-0.04 0.23,-0.02 0.28,0.08 0.06,0.13 0.03,0.28 0.04,0.42 -0.01,0.15 0.02,0.31 -0.02,0.46 -0.05,0.14 -0.23,0.16 -0.34,0.09 -0.08,-0.06 -0.1,-0.17 -0.1,-0.26 0,-0.19 -0,-0.38 0,-0.57 0,-0.09 0.04,-0.2 0.14,-0.23z"/>
    <path class="fil3" d="M134.16 10.61c0.07,-0.06 0.15,-0.11 0.24,-0.11 0.09,-0.01 0.2,0.04 0.21,0.14 0.01,0.11 0.02,0.25 -0.07,0.32 -0.1,0.07 -0.27,0.07 -0.35,-0.04 -0.06,-0.09 -0.03,-0.21 -0.04,-0.31z"/>
   </g>
   <g>
    <g>
     <path class="fil4" d="M90.26 0.46c0.31,-0.18 0.71,-0.18 1.02,0 1.56,0.88 3.11,1.76 4.67,2.64 0.29,0.16 0.49,0.49 0.49,0.83l0 5.29c0,0.35 -0.21,0.68 -0.52,0.85 -1.55,0.87 -3.1,1.75 -4.65,2.62 -0.32,0.18 -0.73,0.17 -1.03,-0.03 -0.46,-0.27 -0.93,-0.54 -1.39,-0.81 -0.09,-0.06 -0.2,-0.1 -0.27,-0.19 0.06,-0.08 0.17,-0.09 0.25,-0.12 0.19,-0.06 0.37,-0.16 0.55,-0.26 0.05,-0.03 0.1,-0.02 0.14,0.01 0.4,0.23 0.79,0.46 1.19,0.69 0.08,0.05 0.17,-0.02 0.24,-0.06 1.52,-0.86 3.04,-1.72 4.56,-2.58 0.06,-0.03 0.09,-0.09 0.08,-0.15 0,-1.74 0,-3.49 0,-5.23 0.01,-0.07 -0.03,-0.13 -0.1,-0.16 -1.54,-0.87 -3.09,-1.74 -4.63,-2.61 -0.03,-0.02 -0.06,-0.03 -0.09,-0.03 -0.03,0 -0.06,0.01 -0.09,0.03 -1.54,0.87 -3.09,1.74 -4.63,2.61 -0.06,0.03 -0.11,0.09 -0.1,0.16 0,1.74 0,3.49 0,5.23 -0,0 -0,0.01 -0,0.01 0,0.06 0.03,0.11 0.08,0.13 0.41,0.23 0.82,0.47 1.24,0.7 0.23,0.12 0.52,0.2 0.77,0.1 0.23,-0.08 0.38,-0.31 0.38,-0.55 0,-1.73 -0,-3.47 0,-5.2 -0.01,-0.08 0.07,-0.14 0.14,-0.13 0.2,-0 0.4,-0 0.59,0 0.08,-0 0.14,0.08 0.13,0.16 -0,1.74 0,3.49 -0,5.23 0,0.46 -0.19,0.97 -0.62,1.2 -0.53,0.27 -1.18,0.22 -1.71,-0.05 -0.45,-0.23 -0.89,-0.49 -1.33,-0.74 -0.31,-0.16 -0.52,-0.49 -0.52,-0.85l0 -5.29c-0,-0.34 0.2,-0.68 0.5,-0.84 1.55,-0.87 3.1,-1.75 4.65,-2.62z"/>
     <path class="fil4" d="M91.62 4.12c0.68,-0.04 1.4,-0.03 2.01,0.31 0.47,0.26 0.73,0.79 0.74,1.31 -0.01,0.07 -0.09,0.11 -0.15,0.1 -0.2,-0 -0.39,0 -0.59,-0 -0.08,0 -0.13,-0.07 -0.14,-0.15 -0.06,-0.25 -0.19,-0.5 -0.43,-0.62 -0.36,-0.18 -0.78,-0.17 -1.18,-0.17 -0.29,0.02 -0.6,0.04 -0.84,0.21 -0.19,0.13 -0.24,0.39 -0.18,0.6 0.06,0.15 0.24,0.2 0.38,0.24 0.81,0.21 1.68,0.19 2.48,0.47 0.33,0.11 0.65,0.34 0.77,0.68 0.15,0.46 0.08,1.02 -0.25,1.39 -0.27,0.31 -0.66,0.47 -1.05,0.56 -0.52,0.12 -1.05,0.12 -1.58,0.07 -0.49,-0.06 -1.01,-0.19 -1.39,-0.52 -0.33,-0.28 -0.49,-0.72 -0.47,-1.15 0,-0.07 0.08,-0.12 0.14,-0.12 0.2,-0 0.4,-0 0.59,0 0.08,-0.01 0.14,0.06 0.14,0.14 0.04,0.24 0.13,0.49 0.33,0.63 0.4,0.26 0.9,0.24 1.36,0.25 0.38,-0.02 0.81,-0.02 1.12,-0.27 0.16,-0.14 0.21,-0.38 0.17,-0.59 -0.05,-0.17 -0.23,-0.26 -0.39,-0.31 -0.8,-0.25 -1.68,-0.16 -2.47,-0.45 -0.32,-0.11 -0.64,-0.33 -0.76,-0.66 -0.17,-0.47 -0.09,-1.05 0.27,-1.41 0.36,-0.36 0.87,-0.5 1.36,-0.55l0 0z"/>
    </g>
   </g>
   <g>
    <path class="fil5" d="M113.81 6.55c0,-0.68 -0.55,-1.22 -1.22,-1.22 -0.68,0 -1.22,0.55 -1.22,1.22 0,0.68 0.55,1.22 1.22,1.22 0.68,0 1.22,-0.55 1.22,-1.22z"/>
    <path class="fil6" d="M112.59 3.77c0.82,0 1.62,0.06 2.36,0.17 0.76,0.11 1.46,0.27 2.06,0.48 0.72,0.25 1.31,0.56 1.72,0.91 0.46,0.38 0.71,0.8 0.71,1.22 0,0.44 -0.27,0.88 -0.76,1.28 -0.44,0.36 -1.06,0.68 -1.83,0.94 -0.57,0.19 -1.24,0.33 -1.95,0.43 -0.73,0.1 -1.51,0.15 -2.3,0.15 -0.83,0 -1.63,-0.05 -2.38,-0.15 -0.72,-0.1 -1.38,-0.24 -1.96,-0.44 -0.74,-0.25 -1.34,-0.58 -1.76,-0.94 -0.48,-0.4 -0.74,-0.85 -0.74,-1.28 0,-0.42 0.24,-0.84 0.69,-1.22 0.4,-0.34 0.97,-0.65 1.68,-0.9 0.6,-0.21 1.31,-0.38 2.08,-0.49 0.75,-0.11 1.56,-0.17 2.39,-0.17zm2.27 0.74c-0.71,-0.1 -1.47,-0.16 -2.27,-0.16 -0.81,0 -1.59,0.06 -2.31,0.16 -0.74,0.11 -1.41,0.27 -1.97,0.46 -0.64,0.22 -1.15,0.5 -1.5,0.79 -0.31,0.27 -0.49,0.53 -0.49,0.77 0,0.25 0.19,0.54 0.53,0.83 0.37,0.31 0.9,0.6 1.58,0.83 0.54,0.18 1.16,0.32 1.85,0.41 0.72,0.1 1.5,0.14 2.31,0.14 0.78,0 1.53,-0.05 2.22,-0.14 0.68,-0.09 1.31,-0.23 1.85,-0.41 0.7,-0.23 1.26,-0.52 1.64,-0.84 0.35,-0.29 0.54,-0.57 0.54,-0.83 0,-0.24 -0.18,-0.51 -0.5,-0.77 -0.36,-0.3 -0.88,-0.58 -1.54,-0.8 -0.57,-0.19 -1.23,-0.35 -1.95,-0.46z"/>
    <path class="fil6" d="M110.17 5.17c0.41,-0.71 0.86,-1.37 1.32,-1.96 0.48,-0.6 0.97,-1.12 1.44,-1.54l-0 -0c0.57,-0.5 1.14,-0.85 1.64,-1.04 0.56,-0.21 1.05,-0.22 1.42,-0.01 0.38,0.22 0.63,0.67 0.73,1.3 0.09,0.56 0.06,1.26 -0.1,2.05 -0.12,0.59 -0.33,1.24 -0.6,1.91 -0.28,0.68 -0.62,1.38 -1.02,2.07 -0.42,0.72 -0.86,1.4 -1.32,1.99 -0.44,0.57 -0.9,1.08 -1.36,1.48 -0.59,0.52 -1.18,0.87 -1.69,1.06 -0.59,0.21 -1.1,0.22 -1.47,0 -0.36,-0.21 -0.61,-0.63 -0.71,-1.21 -0.09,-0.52 -0.08,-1.17 0.06,-1.9 0.12,-0.63 0.33,-1.32 0.61,-2.05 0.28,-0.7 0.63,-1.43 1.05,-2.16zm1.78 -1.6c-0.44,0.56 -0.88,1.2 -1.27,1.89 -0.4,0.69 -0.74,1.4 -1.01,2.08 -0.27,0.69 -0.47,1.35 -0.58,1.94 -0.13,0.67 -0.14,1.25 -0.06,1.69 0.07,0.41 0.22,0.69 0.43,0.81 0.22,0.13 0.56,0.11 0.99,-0.05 0.45,-0.16 0.97,-0.48 1.51,-0.95 0.43,-0.37 0.86,-0.85 1.28,-1.39 0.45,-0.58 0.88,-1.23 1.28,-1.93 0.39,-0.67 0.72,-1.35 0.99,-2 0.26,-0.64 0.45,-1.25 0.57,-1.81 0.15,-0.72 0.18,-1.35 0.1,-1.84 -0.07,-0.45 -0.23,-0.76 -0.45,-0.89 -0.21,-0.12 -0.53,-0.1 -0.92,0.05 -0.44,0.16 -0.94,0.48 -1.46,0.93l-0 0c-0.45,0.39 -0.92,0.89 -1.37,1.46z"/>
    <path class="fil6" d="M110.18 7.96c-0.41,-0.71 -0.76,-1.43 -1.04,-2.12 -0.29,-0.72 -0.49,-1.4 -0.61,-2.02 -0.15,-0.75 -0.17,-1.42 -0.08,-1.94 0.1,-0.59 0.34,-1.02 0.7,-1.23 0.38,-0.22 0.9,-0.21 1.49,0.02 0.53,0.2 1.12,0.58 1.73,1.11 0.45,0.4 0.91,0.9 1.35,1.47 0.45,0.58 0.88,1.22 1.28,1.92 0.42,0.72 0.78,1.44 1.07,2.14 0.28,0.67 0.48,1.32 0.6,1.91 0.15,0.77 0.17,1.45 0.07,2 -0.11,0.61 -0.36,1.06 -0.74,1.28 -0.36,0.21 -0.85,0.21 -1.4,0.01 -0.49,-0.18 -1.05,-0.51 -1.62,-1 -0.48,-0.42 -0.98,-0.94 -1.46,-1.55 -0.47,-0.59 -0.93,-1.26 -1.35,-1.99zm-0.49 -2.34c0.26,0.66 0.6,1.35 1,2.04 0.4,0.7 0.84,1.34 1.3,1.91 0.46,0.58 0.93,1.08 1.39,1.47 0.52,0.44 1.01,0.75 1.44,0.9 0.39,0.14 0.71,0.15 0.91,0.03 0.22,-0.13 0.37,-0.43 0.45,-0.87 0.08,-0.48 0.07,-1.09 -0.07,-1.78 -0.11,-0.56 -0.31,-1.17 -0.57,-1.8 -0.28,-0.67 -0.63,-1.37 -1.03,-2.07 -0.39,-0.67 -0.81,-1.3 -1.24,-1.85 -0.42,-0.54 -0.85,-1.02 -1.28,-1.39 -0.55,-0.49 -1.09,-0.83 -1.55,-1 -0.42,-0.16 -0.77,-0.18 -0.99,-0.06 -0.21,0.12 -0.35,0.41 -0.42,0.82 -0.08,0.46 -0.06,1.06 0.08,1.74 0.12,0.59 0.31,1.24 0.58,1.92z"/>
   </g>
   <path class="fil7" d="M27.01 11.66l-2.75 -0.75 -0.18 -2.09 1.35 -0.01 0.09 1.05c0.12,0.06 1.28,0.37 1.41,0.37 0.05,-0.01 0.07,0.04 0.08,-0.18l-0 -1.82c-0.38,0 -2.8,0.07 -2.93,-0.03l-0.11 -1.29c0.17,-0.07 2.62,-0.02 3.04,-0.02l0 -1.31 -3.15 -0.01 -0.1 -1.28 3.25 0 -0 -1.06c-0.01,-0.38 -0.14,-0.27 1.45,-0.27 0.94,0 1.87,0 2.81,0 0.05,0.28 -0.15,1.86 -0.18,2.27 -0.07,0.75 -0.13,1.51 -0.2,2.26 -0.14,1.52 -0.24,3.05 -0.41,4.56 -0.1,0.07 -3.33,0.97 -3.46,0.96l0 -1.34zm-4.27 1.09c0.71,0.17 2.42,0.66 3.19,0.88l1.07 0.3 2.17 -0.59c0.18,-0.04 2.01,-0.54 2.15,-0.62 0,-0.47 0.28,-3.33 0.34,-3.98l0.17 -1.99c0.05,-0.6 0.16,-1.45 0.19,-2 0.04,-0.67 0.22,-2.13 0.22,-2.67l-10.45 0c0,0.2 0.05,0.45 0.06,0.64l0.48 5.34c0.02,0.24 0.03,0.47 0.06,0.67l0.23 2.69c0.01,0.21 0.05,0.45 0.06,0.67 0.01,0.2 0.06,0.47 0.06,0.67z"/>
   <path class="fil8" d="M27.01 4.28l3.1 -0.01c0.04,0 0.05,0 0.09,0.01 0.08,0.02 0.03,-0 0.07,0.03l-0.59 6.62c-0.42,0.09 -0.9,0.25 -1.32,0.36 -0.25,0.07 -1.11,0.35 -1.31,0.34 -0.02,0.04 0.04,0.03 -0.05,0.03l0 1.34c0.13,0.01 3.36,-0.89 3.46,-0.96 0.17,-1.51 0.27,-3.04 0.41,-4.56 0.07,-0.75 0.13,-1.51 0.2,-2.26 0.04,-0.41 0.23,-1.99 0.18,-2.27 -0.94,0 -1.87,0 -2.81,0 -1.59,0 -1.45,-0.11 -1.45,0.27l0 1.06z"/>
   <path class="fil9" d="M27.01 5.57l1.85 0.01 -0.14 1.32 -1.71 0 0 1.32 1.6 0 -0.17 1.66 -1.42 0.39c-0.03,0.23 -0.01,0.47 -0.01,0.7 0,0.17 -0.06,0.54 0.04,0.66 0.19,0.01 1.06,-0.27 1.31,-0.34 0.42,-0.12 0.9,-0.27 1.32,-0.36l0.59 -6.62 -3.25 0 0 1.26z"/>
   <path class="fil10" d="M27.01 11.66c0.08,0 0.02,0.01 0.05,-0.03 -0.1,-0.11 -0.04,-0.49 -0.04,-0.66 0,-0.23 -0.02,-0.48 0.01,-0.7l-0.09 -0.04c-0.13,-0.01 -1.29,-0.31 -1.41,-0.37l-0.09 -1.05 -1.35 0.01 0.18 2.09 2.75 0.75z"/>
   <path class="fil10" d="M27.01 5.57l0.01 0 0 -1.26 3.25 0c-0.05,-0.03 0,-0.01 -0.07,-0.03 -0.04,-0.01 -0.05,-0.01 -0.09,-0.01l-3.1 0.01 -3.25 -0 0.1 1.28 3.15 0.01z"/>
   <polygon class="fil10" points="24.08,8.2 27.01,8.22 27.01,6.9 23.97,6.91 "/>
   <path class="fil11" d="M27.71 3.14c0,0.05 0.13,0.14 0.21,0.2 0.08,0.06 0.19,0.12 0.23,0.19l-0.45 0 0 0.39 1.06 0c0.09,0 0.06,-0.11 0.06,-0.34 0,-0.06 -0.38,-0.34 -0.47,-0.41 0.56,0 0.47,0.1 0.47,-0.43l-1.12 0 0 0.39z"/>
   <path class="fil11" d="M26.47 3.14c0,0.06 0.24,0.22 0.32,0.29 0.04,0.03 0.09,0.06 0.12,0.1l-0.45 0 0 0.39 1.1 0 0 -0.35c0,-0.05 -0.01,-0.04 -0.1,-0.11 -0.08,-0.06 -0.31,-0.22 -0.35,-0.29l0.45 0 0 -0.43 -1.1 0 0 0.39z"/>
   <polygon class="fil11" points="25.22,3.92 26.3,3.92 26.3,3.53 25.7,3.53 25.7,3.18 26.3,3.18 26.3,2.75 25.22,2.75 "/>
   <path class="fil8" d="M26.93 10.24l0.09 0.04 1.42 -0.39 0.17 -1.66 -1.6 -0 -2.93 -0.02c0.13,0.1 2.55,0.03 2.93,0.03l0 1.82c-0,0.22 -0.03,0.17 -0.08,0.18z"/>
   <path class="fil8" d="M23.97 6.91l3.04 -0.01 1.71 -0 0.14 -1.32 -1.85 -0.01 -0.01 0 0 1.31c-0.41,0 -2.86,-0.05 -3.04,0.02z"/>
   <path class="fil12" d="M48.08 11.67l-2.72 -0.74 -0.15 -2.07 1 -0c0.04,-0 0.12,-0 0.16,-0 0.18,0.02 0.06,-0.01 0.11,0.04 0.08,0.11 0.08,0.8 0.12,1l1.47 0.39c0,-0.61 -0.04,-4.48 0.02,-4.74l1.43 -0c0.42,-0 0.42,-0.06 0.4,0.1 -0.01,-0.14 0.01,-0.06 -0.06,-0.09l-1.82 -0 -3.17 -0 -0.08 -1.3 3.28 -0 0 -1.3c0.2,-0.05 3.75,-0.02 4.28,-0.02l-0.81 9.12c-0.09,0.06 -3.34,0.96 -3.46,0.95l0.01 -1.33zm-4.28 1.09c0.67,0.16 1.44,0.42 2.12,0.58 0.37,0.09 0.71,0.19 1.07,0.29 0.19,0.05 0.33,0.09 0.52,0.14 0.68,0.18 0.4,0.21 1.08,0.01 0.2,-0.06 0.36,-0.1 0.55,-0.15l2.16 -0.6c0.21,-0.05 0.95,-0.25 1.08,-0.32l0.87 -9.96c0.03,-0.22 0.05,-0.45 0.05,-0.68l-10.45 0c0,0.2 0.05,0.45 0.06,0.64l0.29 3.36c0.03,0.42 0.11,0.91 0.12,1.34l0.23 2.66c0.05,0.4 0.1,0.91 0.12,1.34 0.01,0.21 0.05,0.45 0.06,0.67 0.01,0.2 0.06,0.47 0.06,0.67z"/>
   <path class="fil13" d="M48.07 4.25l3.28 0.01c-0,0.12 0,0.06 -0.03,0.1 0.04,0.22 -0.23,2.84 -0.28,3.31 -0.06,0.64 -0.22,2.8 -0.3,3.26l-2.66 0.74 -0.01 1.33c0.13,0.01 3.37,-0.89 3.46,-0.95l0.81 -9.12c-0.53,-0 -4.07,-0.03 -4.28,0.02l0 1.3z"/>
   <path class="fil9" d="M48.04 5.55l1.82 0c0.06,0.03 0.04,-0.05 0.06,0.09l-0.41 4.26 -1.39 0.39 -0.05 0.05c-0,0.01 -0.02,0.03 -0.03,0.04 0,0.28 -0.05,1.09 0.03,1.3l2.66 -0.74c0.08,-0.47 0.24,-2.62 0.3,-3.26 0.04,-0.47 0.31,-3.09 0.28,-3.31l-0.02 -0.07 -3.25 0.01 0 1.26z"/>
   <path class="fil13" d="M48.07 10.29l0.05 -0 1.39 -0.39 0.41 -4.26c0.01,-0.16 0.01,-0.1 -0.4,-0.1l-1.43 0c-0.06,0.26 -0.02,4.13 -0.02,4.74z"/>
   <path class="fil10" d="M48.08 11.67c-0.08,-0.21 -0.03,-1.02 -0.03,-1.3 0.01,-0.01 0.02,-0.03 0.03,-0.04l0.05 -0.05 -0.05 0 -1.47 -0.39c-0.03,-0.21 -0.03,-0.89 -0.12,-1 -0.06,-0.05 0.07,-0.02 -0.11,-0.04 -0.03,-0 -0.12,0 -0.16,0l-1 0 0.15 2.07 2.72 0.74z"/>
   <path class="fil10" d="M48.04 5.55l0 -1.26 3.25 -0.01 0.02 0.07c0.03,-0.04 0.03,0.02 0.03,-0.1l-3.28 -0.01 -3.28 0 0.08 1.3 3.17 0z"/>
   <path class="fil11" d="M48.12 2.92c0,0.05 0.06,0.08 0.1,0.11l0.35 0.28 -0.45 0 0 0.39 1.1 0c0,-0.47 0.06,-0.34 -0.21,-0.55 -0.06,-0.04 -0.2,-0.15 -0.23,-0.19l0.45 0 0 -0.43 -1.1 0 0 0.39z"/>
   <path class="fil11" d="M47.47 3.27l-0.56 0c-0.09,0 -0.06,0.14 -0.06,0.37 0,0.04 0.01,0.06 0.06,0.06l1.04 0 0 -1.17 -0.48 0 0 0.75z"/>
   <path class="fil14" d="M5.23 11.67l-2.67 -0.74c-0.06,-0.16 -0.18,-1.77 -0.19,-2.07l1.33 0c-0,0.24 0.03,0.88 0.1,1.05 0.2,0.07 1.23,0.36 1.39,0.35 0.09,-0.06 0.04,-0.35 0.04,-0.46l0 -1.53c-0.42,-0.08 -2.36,0.03 -2.79,-0.01l-0.14 -0.04 -0.35 -3.95c0.18,-0.12 2.75,0.02 3.28,-0.06 0,-0.26 -0.03,-1.06 0.02,-1.26l4.23 0c0.05,0.24 -0.14,1.89 -0.18,2.27 -0.2,2.25 -0.45,4.6 -0.61,6.83l-3.47 0.97 -0 -1.36zm-4.28 1.09l4.26 1.18 4.16 -1.14c0.22,-0.06 0.14,-0.11 0.18,-0.36 0.02,-0.15 0.04,-0.37 0.04,-0.5 0.02,-0.5 0.21,-2.31 0.26,-2.95 0.02,-0.3 0.08,-0.67 0.09,-0.99 0.01,-0.31 0.06,-0.67 0.09,-0.96 0.04,-0.34 0.03,-0.66 0.08,-1l0.18 -1.95c0.03,-0.66 0.16,-1.32 0.16,-2l-10.45 0 0.48 5.34c0.02,0.41 0.09,0.89 0.12,1.31l0.35 4.03z"/>
   <path class="fil15" d="M1.95 4.27l3.27 0 3.29 0.01 -0.11 1.3 -3.16 -0 -0 1.33 3.05 0 -0.37 4.02c-0.44,0.1 -0.89,0.25 -1.32,0.36 -0.24,0.07 -1.13,0.35 -1.3,0.34l-0.04 0.03 0 1.36 3.47 -0.97c0.16,-2.23 0.41,-4.59 0.61,-6.83 0.03,-0.39 0.23,-2.03 0.18,-2.27l-4.23 0c-0.05,0.19 -0.02,1 -0.02,1.26 -0.53,0.07 -3.11,-0.07 -3.28,0.06z"/>
   <polygon class="fil10" points="2.3,8.22 5.23,8.23 5.23,6.91 3.51,6.91 3.4,5.58 5.22,5.58 5.22,4.27 1.95,4.27 "/>
   <path class="fil9" d="M5.23 8.23l1.6 -0c0,0.21 -0.11,1.57 -0.16,1.67 -0.12,0.09 -1.22,0.36 -1.44,0.41 0,0.23 0,0.45 0,0.68 0,0.12 0,0.23 -0,0.35 -0,0.14 -0.03,0.23 0.05,0.31 0.18,0.01 1.06,-0.27 1.3,-0.34 0.43,-0.12 0.89,-0.26 1.32,-0.36l0.37 -4.02 -3.05 -0 -0 1.31z"/>
   <path class="fil10" d="M5.23 11.67l0.04 -0.03c-0.08,-0.08 -0.05,-0.17 -0.05,-0.31 0,-0.12 0,-0.23 0,-0.35 0,-0.23 0,-0.45 0,-0.68l-0.03 -0.03c-0.16,0.01 -1.19,-0.29 -1.39,-0.35 -0.07,-0.17 -0.1,-0.81 -0.1,-1.05l-1.33 0c0.01,0.29 0.13,1.9 0.19,2.07l2.67 0.74z"/>
   <polygon class="fil9" points="5.22,5.58 5.23,5.58 8.4,5.58 8.51,4.28 5.22,4.27 "/>
   <path class="fil11" d="M5.31 3.92l0.39 0 0 -0.54c0.09,0.11 0.2,0.33 0.26,0.37 0.06,-0.04 0.14,-0.2 0.19,-0.27l0.07 -0.1 0 0.54 0.41 0 0 -1.17c-0.41,0 -0.4,-0.04 -0.46,0.07 -0.05,0.08 -0.16,0.25 -0.18,0.32 -0.06,-0.04 -0.09,-0.12 -0.13,-0.18 -0.03,-0.05 -0.09,-0.14 -0.11,-0.2l-0.43 0 0 1.17z"/>
   <path class="fil11" d="M2.77 3.92c0.5,0 0.41,0.09 0.41,-0.39l0.33 0 0 0.39c0.25,0 0.41,0.04 0.41,-0.06l0 -1.11 -0.41 0 0 0.37 -0.33 0 0 -0.37 -0.41 0 0 1.17z"/>
   <path class="fil16" d="M5.19 10.27l0.03 0.03c0.22,-0.04 1.33,-0.32 1.44,-0.41 0.06,-0.1 0.16,-1.45 0.16,-1.67l-1.6 0 -2.92 -0 0.14 0.04c0.43,0.04 2.37,-0.07 2.79,0.01l0 1.53c0,0.12 0.05,0.41 -0.04,0.46z"/>
   <polygon class="fil17" points="5.23,6.91 5.23,5.58 5.22,5.58 3.4,5.58 3.51,6.91 "/>
   <polygon class="fil11" points="4.07,3.14 4.4,3.14 4.4,3.92 4.81,3.92 4.81,3.14 5.14,3.14 5.14,2.75 4.07,2.75 "/>
   <path class="fil11" d="M6.79 3.86c0,0.04 0.01,0.06 0.06,0.06l0.85 0c0.09,0 0.06,-0.15 0.06,-0.39l-0.56 0 0 -0.78 -0.41 0 0 1.11z"/>
   <g>
    <path class="fil18" d="M76.14 1.94l-6.16 11.01c-0.13,0.23 -0.45,0.23 -0.58,0l-6.28 -11.01c-0.14,-0.25 0.07,-0.54 0.35,-0.5l6.16 1.1c0.02,0 0.04,0.01 0.06,0.01 0.02,0 0.04,-0 0.06,-0.01l6.03 -1.1c0.28,-0.05 0.49,0.25 0.35,0.49l0 0z"/>
    <path class="fil19" d="M72.57 0l-4.56 0.89c-0.07,0.01 -0.13,0.08 -0.13,0.15l-0.28 4.73c-0,0 -0,0.01 -0,0.01 0,0.09 0.07,0.17 0.17,0.17 0.01,0 0.03,-0 0.04,-0l1.27 -0.29c0.12,-0.03 0.23,0.08 0.2,0.2l-0.38 1.85c-0.03,0.12 0.09,0.23 0.21,0.19l0.78 -0.24c0.12,-0.04 0.24,0.07 0.21,0.19l-0.6 2.9c-0.04,0.18 0.2,0.28 0.3,0.12l0.07 -0.1 3.71 -7.41c0.06,-0.12 -0.05,-0.27 -0.18,-0.24l-1.31 0.25c-0.12,0.02 -0.23,-0.09 -0.19,-0.21l0.85 -2.95c0.03,-0.12 -0.07,-0.23 -0.19,-0.21l0 0z"/>
   </g>
   <g>
    <path class="fil20" d="M154.75 1.14l7.22 0 0 7.22c0,1.99 -1.63,3.62 -3.62,3.62l-3.61 0c-1.99,0 -3.62,-1.63 -3.62,-3.62l0 -3.6c0,-1.99 1.63,-3.62 3.62,-3.62z"/>
    <g style="clip-path:url(#id0)">
     <g>
      <polygon id="1" class="fil21" style="mask:url(#id1)" points="153.53,4.22 153.08,4.44 147.89,9.64 153.53,15.88 159.47,9.88 159.27,8.82 "/>
     </g>
    </g>
    <path class="fil22" d="M154.75 1.14l7.22 0 0 7.22c0,1.99 -1.63,3.62 -3.62,3.62l-3.61 0c-1.99,0 -3.62,-1.63 -3.62,-3.62l0 -3.6c0,-1.99 1.63,-3.62 3.62,-3.62z"/>
    <g>
     <path class="fil23" d="M155 6.84l2.83 2.84c0.06,0.06 0.15,0.07 0.22,0.03 0.14,-0.07 0.3,-0.07 0.44,0 0.07,0.04 0.16,0.03 0.22,-0.03l0.55 -0.55c0.06,-0.06 0.07,-0.15 0.03,-0.22 -0.07,-0.14 -0.07,-0.3 0,-0.44 0.04,-0.07 0.03,-0.16 -0.03,-0.22l-2.83 -2.84 -0 0 -1.89 -1.99c-0.1,-0.11 -0.27,-0.11 -0.38,-0.01l-1.07 1.02c-0.11,0.1 -0.11,0.27 -0.01,0.38l1.93 2.03 -0.01 0.01z"/>
     <path class="fil24" d="M159.43 9.39l0.03 0.46c0,0.01 -0,0.03 -0.01,0.04 -0.01,0.01 -0.02,0.01 -0.04,0.01l-0.46 -0.03c-0.02,-0 -0.03,-0.01 -0.04,-0.03 -0.01,-0.02 -0,-0.04 0.01,-0.05l0.42 -0.42c0.01,-0.01 0.03,-0.02 0.05,-0.01 0.02,0.01 0.03,0.02 0.03,0.04z"/>
    </g>
   </g>
  </g>
 </g>
</svg>
