<?xml version="1.0" encoding="UTF-8"?>
<!DOCTYPE svg PUBLIC "-//W3C//DTD SVG 1.1//EN" "http://www.w3.org/Graphics/SVG/1.1/DTD/svg11.dtd">
<!-- Creator: CorelDRAW 2019 (64-Bit) -->
<svg xmlns="http://www.w3.org/2000/svg" xml:space="preserve" width="175.462mm" height="15.8148mm" version="1.1" style="shape-rendering:geometricPrecision; text-rendering:geometricPrecision; image-rendering:optimizeQuality; fill-rule:evenodd; clip-rule:evenodd"
viewBox="0 0 4823.98 434.8"
 xmlns:xlink="http://www.w3.org/1999/xlink">
 <defs>
  <style type="text/css">
   <![CDATA[
    .fil22 {fill:none}
    .fil4 {fill:#EBECEC}
    .fil18 {fill:#00D8FF}
    .fil21 {fill:#053100}
    .fil1 {fill:#28A8E0}
    .fil6 {fill:#8ACF17}
    .fil17 {fill:#8CC84B}
    .fil10 {fill:#E44D26}
    .fil3 {fill:#EAEAEA}
    .fil8 {fill:#EF6429}
    .fil9 {fill:#F16529}
    .fil2 {fill:white}
    .fil19 {fill:#00D8FF;fill-rule:nonzero}
    .fil16 {fill:#923B00;fill-rule:nonzero}
    .fil14 {fill:#FF6B00;fill-rule:nonzero}
    .fil15 {fill:#FF9447;fill-rule:nonzero}
    .fil13 {fill:white;fill-rule:nonzero}
    .fil7 {fill:url(#id3)}
    .fil0 {fill:url(#id4)}
    .fil5 {fill:url(#id5)}
    .fil20 {fill:url(#id6)}
    .fil24 {fill:url(#id7)}
    .fil23 {fill:url(#id8)}
    .fil12 {fill:url(#id9)}
    .fil11 {fill:url(#id10)}
   ]]>
  </style>
    <clipPath id="id0">
     <path d="M4535.65 1.15l288.34 0 0 288.16c0,79.38 -64.94,144.32 -144.32,144.32l-144.01 0c-79.38,0 -144.32,-64.94 -144.32,-144.32l0 -143.84c0,-79.38 64.95,-144.32 144.32,-144.32z"/>
    </clipPath>
      <mask id="id1">
  <linearGradient id="id2" gradientUnits="userSpaceOnUse" x1="4599.67" y1="256.94" x2="4422.88" y2="351.84">
   <stop offset="0" style="stop-opacity:1; stop-color:white"/>
   <stop offset="1" style="stop-opacity:0; stop-color:white"/>
  </linearGradient>
       <rect style="fill:url(#id2)" x="4259.02" y="121.16" width="467.83" height="470.87"/>
      </mask>
  <linearGradient id="id3" gradientUnits="userSpaceOnUse" x1="-0" y1="217.4" x2="383.51" y2="217.4">
   <stop offset="0" style="stop-opacity:1; stop-color:#EB603D"/>
   <stop offset="1" style="stop-opacity:1; stop-color:#CC3812"/>
  </linearGradient>
  <linearGradient id="id4" gradientUnits="userSpaceOnUse" x1="630.84" y1="217.4" x2="1014.35" y2="217.4">
   <stop offset="0" style="stop-opacity:1; stop-color:#0070BA"/>
   <stop offset="1" style="stop-opacity:1; stop-color:#2B9BE6"/>
  </linearGradient>
  <linearGradient id="id5" gradientUnits="userSpaceOnUse" x1="1261.69" y1="217.4" x2="1645.19" y2="217.4">
   <stop offset="0" style="stop-opacity:1; stop-color:#63A814"/>
   <stop offset="1" style="stop-opacity:1; stop-color:#8AF016"/>
  </linearGradient>
  <linearGradient id="id6" gradientUnits="userSpaceOnUse" x1="4570.3" y1="95.67" x2="4570.3" y2="420.51">
   <stop offset="0" style="stop-opacity:1; stop-color:#14EA32"/>
   <stop offset="1" style="stop-opacity:1; stop-color:#08590C"/>
  </linearGradient>
  <linearGradient id="id7" gradientUnits="userSpaceOnUse" x1="4714.06" y1="338.88" x2="4698.32" y2="355.06">
   <stop offset="0" style="stop-opacity:1; stop-color:white"/>
   <stop offset="1" style="stop-opacity:1; stop-color:#91C796"/>
  </linearGradient>
  <linearGradient id="id8" gradientUnits="userSpaceOnUse" xlink:href="#id7" x1="4606.33" y1="208.65" x2="4566.06" y2="248.91">
  </linearGradient>
  <linearGradient id="id9" gradientUnits="userSpaceOnUse" x1="2087.55" y1="46.14" x2="2131.77" y2="349.5">
   <stop offset="0" style="stop-opacity:1; stop-color:#FFEA83"/>
   <stop offset="0.0784314" style="stop-opacity:1; stop-color:#FFDD35"/>
   <stop offset="1" style="stop-opacity:1; stop-color:#FFA800"/>
  </linearGradient>
  <linearGradient id="id10" gradientUnits="userSpaceOnUse" x1="1885.18" y1="121.13" x2="2100.11" y2="413.1">
   <stop offset="0" style="stop-opacity:1; stop-color:#41D1FF"/>
   <stop offset="1" style="stop-opacity:1; stop-color:#BD34FE"/>
  </linearGradient>
 </defs>
 <g id="Capa_x0020_1">
  <metadata id="CorelCorpID_0Corel-Layer"/>
  <g id="_1490816587248">
   <path class="fil0" d="M822.58 351.55l-100.73 -27.55 -6.78 -76.59 49.53 -0.27 3.41 38.48c4.46,2.2 47.01,13.43 51.9,13.69 1.67,-0.43 2.75,1.5 2.81,-6.58l-0.15 -66.89c-13.95,0 -102.58,2.55 -107.41,-1.27l-4.01 -47.43c6.39,-2.63 96.19,-0.81 111.42,-0.81l0 -48.15 -115.47 -0.51 -3.71 -46.94 119.18 0.09 -0.03 -38.89c-0.21,-13.89 -5.1,-9.86 53.08,-9.86 34.39,0 68.78,0 103.17,0 1.71,10.16 -5.41,68.28 -6.76,83.31 -2.46,27.41 -4.95,55.52 -7.4,82.92 -4.99,55.63 -8.83,111.95 -14.98,167.31 -3.82,2.49 -122.23,35.5 -127.08,35.12l0 -49.16zm-156.77 40.11c26.05,6.07 88.93,24.09 116.98,32.22l39.22 10.9 79.74 -21.68c6.58,-1.65 73.81,-19.98 78.79,-22.62 0,-17.35 10.16,-122.28 12.64,-145.89l6.08 -73.18c1.66,-21.94 5.75,-53.05 6.88,-73.55 1.36,-24.53 8.19,-78.01 8.19,-97.88l-383.5 0c0,7.16 1.72,16.64 2.24,23.4l17.5 195.82c0.67,8.85 1.11,17.18 2.08,24.73l8.51 98.73c0.38,7.63 1.97,16.38 2.32,24.49 0.32,7.52 2.32,17.25 2.32,24.49z"/>
   <path class="fil1" d="M822.58 80.8l113.74 -0.31c1.34,0.07 1.93,0.1 3.23,0.37 2.77,0.59 0.95,-0.1 2.71,1.1l-21.67 242.75c-15.38,3.25 -33.15,9.05 -48.42,13.3 -9.19,2.56 -40.9,12.66 -47.91,12.41 -0.81,1.45 1.33,1.26 -1.68,1.12l0 49.16c4.85,0.38 123.26,-32.63 127.08,-35.12 6.15,-55.36 9.99,-111.69 14.98,-167.31 2.46,-27.4 4.95,-55.51 7.4,-82.92 1.34,-15.03 8.47,-73.15 6.76,-83.31 -34.39,0 -68.78,0 -103.17,0 -58.18,0 -53.29,-4.02 -53.08,9.86l0.03 38.89z"/>
   <path class="fil2" d="M822.85 128.17l67.83 0.21 -5.14 48.48 -62.69 0.07 0 48.31 58.54 0.06 -6.14 61.05 -51.96 14.26c-1.2,8.32 -0.45,17.31 -0.45,25.79 0,6.13 -2.27,19.89 1.41,24.05 7.01,0.25 38.72,-9.85 47.91,-12.41 15.26,-4.25 33.04,-10.05 48.42,-13.3l21.67 -242.75 -119.42 0 0 46.2z"/>
   <path class="fil3" d="M822.58 351.55c3.01,0.14 0.87,0.33 1.68,-1.12 -3.68,-4.16 -1.41,-17.91 -1.41,-24.05 0,-8.48 -0.75,-17.46 0.45,-25.79l-3.38 -1.29c-4.89,-0.26 -47.44,-11.49 -51.9,-13.69l-3.41 -38.48 -49.53 0.27 6.78 76.59 100.73 27.55z"/>
   <path class="fil3" d="M822.58 128.17l0.26 -0 0 -46.2 119.42 0c-1.76,-1.2 0.07,-0.51 -2.71,-1.1 -1.3,-0.27 -1.89,-0.3 -3.23,-0.37l-113.74 0.31 -119.18 -0.09 3.71 46.94 115.47 0.51z"/>
   <polygon class="fil3" points="715.18,224.56 822.85,225.23 822.85,176.92 711.17,177.13 "/>
   <g>
    <path class="fil4" d="M854.23 37.08c0,2.36 6.06,6.12 9.57,8.86 3.4,2.65 8.44,5.6 10.54,8.73l-20.11 0 0 17.59 47.76 0c3.93,0 2.52,-5.15 2.52,-15.08 0,-2.72 -17.31,-15.27 -20.95,-18.43 25.22,0 20.95,4.6 20.95,-19.27l-50.27 0 0 17.59z"/>
    <path class="fil4" d="M798.1 37.08c0,2.72 10.8,10.1 14.6,13.05 2.01,1.56 4.24,2.81 5.51,4.54l-20.11 0 0 17.59 49.43 0 0 -15.92c0,-2.03 -0.42,-1.59 -4.44,-4.77 -3.63,-2.88 -13.79,-10.01 -15.67,-12.82l20.11 0 0 -19.27 -49.43 0 0 17.59z"/>
    <polygon class="fil4" points="741.96,72.27 790.56,72.27 790.56,54.68 763.75,54.68 763.75,38.76 790.56,38.76 790.56,19.49 741.96,19.49 "/>
   </g>
   <path class="fil1" d="M819.92 299.3l3.38 1.29 51.96 -14.26 6.14 -61.05 -58.54 -0.06 -107.67 -0.67c4.83,3.82 93.45,1.27 107.41,1.27l0.15 66.89c-0.06,8.07 -1.14,6.15 -2.81,6.58z"/>
   <path class="fil1" d="M711.17 177.13l111.68 -0.2 62.69 -0.07 5.14 -48.48 -67.83 -0.21 -0.26 0 0 48.15c-15.22,0 -105.02,-1.82 -111.42,0.81z"/>
  </g>
  <g id="_1490816593296">
   <path class="fil5" d="M1453.72 351.83l-99.73 -27.06 -5.47 -75.88 36.76 -0.02c1.43,-0.02 4.58,-0.15 5.83,-0.02 6.72,0.66 2.05,-0.54 4.2,1.36 2.98,4.18 2.97,29.22 4.22,36.86l53.89 14.13c0,-22.42 -1.5,-164.54 0.6,-173.94l52.45 -0.16c15.23,-0.11 15.37,-2.09 14.86,3.62 -0.5,-5.06 0.31,-2.24 -2.03,-3.22l-66.78 -0.05 -116.44 -0.05 -3.01 -47.8 120.34 -0.04 0 -47.63c7.38,-1.98 137.45,-0.71 156.85,-0.71l-29.76 334.48c-3.44,2.23 -122.42,35.15 -127.11,34.91l0.31 -48.77zm-157.06 39.86c24.49,5.7 52.91,15.27 77.63,21.45 13.61,3.4 25.88,6.87 39.35,10.77 6.93,2.01 12.14,3.41 19.16,5.32 24.97,6.79 14.56,7.73 39.46,0.51 7.23,-2.09 13.2,-3.53 20.09,-5.56l79.4 -22.01c7.66,-2.01 34.81,-9.09 39.64,-11.65l31.97 -365.53c1.14,-7.96 1.84,-16.65 1.84,-24.97l-383.5 0c0,7.16 1.72,16.64 2.24,23.4l10.67 123.38c1.21,15.54 3.9,33.47 4.57,49.05l8.49 97.58c1.9,14.73 3.57,33.3 4.36,49.26 0.38,7.63 1.97,16.38 2.32,24.49 0.32,7.52 2.32,17.25 2.32,24.49z"/>
   <path class="fil6" d="M1453.42 79.55l120.16 0.25c-0.11,4.43 0.03,2.21 -1.1,3.82 1.38,8.04 -8.62,104.34 -10.11,121.55 -2.03,23.46 -8.1,102.6 -10.97,119.66l-97.68 27 -0.31 48.77c4.69,0.24 123.67,-32.68 127.11,-34.91l29.76 -334.48c-19.4,-0 -149.47,-1.27 -156.85,0.71l0 47.63z"/>
   <path class="fil2" d="M1452.52 127.43l66.78 0.05c2.35,0.98 1.53,-1.83 2.03,3.22l-15.04 156.27 -51.11 14.15 -1.65 1.81c-0.17,0.19 -0.72,1.07 -1.01,1.33 0,10.19 -1.77,39.9 1.19,47.56l97.68 -27c2.87,-17.06 8.94,-96.2 10.97,-119.66 1.49,-17.21 11.49,-113.51 10.11,-121.55l-0.73 -2.5 -119.23 0.19 0 46.12z"/>
   <path class="fil6" d="M1453.42 301.2l1.76 -0.07 51.11 -14.15 15.04 -156.27c0.51,-5.71 0.38,-3.72 -14.86,-3.62l-52.45 0.16c-2.1,9.41 -0.6,151.52 -0.6,173.94z"/>
   <path class="fil3" d="M1453.72 351.83c-2.96,-7.67 -1.19,-37.37 -1.19,-47.56 0.29,-0.26 0.84,-1.14 1.01,-1.33l1.65 -1.81 -1.76 0.07 -53.89 -14.13c-1.25,-7.64 -1.24,-32.68 -4.22,-36.86 -2.15,-1.91 2.52,-0.7 -4.2,-1.36 -1.25,-0.12 -4.4,0.01 -5.83,0.02l-36.76 0.02 5.47 75.88 99.73 27.06z"/>
   <path class="fil3" d="M1452.52 127.43l0 -46.12 119.23 -0.19 0.73 2.5c1.12,-1.61 0.99,0.62 1.1,-3.82l-120.16 -0.25 -120.34 0.04 3.01 47.8 116.44 0.05z"/>
   <path class="fil4" d="M1456.03 34.65c0,2.44 2.69,3.76 4.3,4.92l15.81 12.67 -20.11 0 0 17.59 49.43 0c0,-21.32 2.48,-15.29 -9.58,-24.77 -2.5,-1.97 -9.16,-6.86 -10.53,-8.74l20.11 0 0 -19.27 -49.43 0 0 17.59z"/>
   <path class="fil4" d="M1426.7 50.57l-25.13 0c-4.07,0 -2.52,6.1 -2.52,16.76 0,1.93 0.58,2.51 2.52,2.51l46.92 0 0 -52.78 -21.79 0 0 33.51z"/>
  </g>
  <g id="_1490816600208">
   <path class="fil7" d="M191.95 351.72l-97.81 -27.06c-2.23,-6.04 -6.63,-65 -7.08,-75.8l48.75 0c-0.05,8.65 1.07,32.2 3.73,38.47 7.3,2.45 45.27,13.22 51.03,12.91 3.21,-2.1 1.5,-12.67 1.5,-16.98l0 -55.96c-15.26,-2.97 -86.67,1.1 -102.36,-0.52l-5.25 -1.57 -12.9 -145.03c6.43,-4.55 101.05,0.65 120.41,-2.08 0,-9.45 -1.22,-39.05 0.75,-46.1l155.25 0c1.94,8.88 -5.23,69.22 -6.45,83.36 -7.16,82.48 -16.46,168.82 -22.33,250.73l-127.14 35.55 -0.08 -49.93zm-156.98 39.95l156.2 43.13 152.79 -41.88c8.17,-2.27 5.14,-3.85 6.42,-13.39 0.73,-5.4 1.5,-13.43 1.65,-18.17 0.58,-18.41 7.58,-84.64 9.42,-108.32 0.87,-11.18 2.9,-24.69 3.4,-36.23 0.48,-11.25 2.21,-24.5 3.32,-35.15 1.31,-12.52 1.23,-24.24 3.01,-36.62l6.49 -71.61c1.04,-24.27 5.84,-48.39 5.84,-73.43l-383.51 0 17.52 195.8c0.84,15.17 3.35,32.67 4.54,47.91l12.91 147.95z"/>
   <path class="fil8" d="M71.54 80.19l120.13 0.04 120.54 0.28 -4.17 47.72 -116.08 -0.02 -0.11 48.93 111.74 0.04 -13.69 147.54c-15.99,3.68 -32.65,9.03 -48.54,13.38 -8.96,2.46 -41.3,12.68 -47.87,12.37l-1.53 1.25 0.08 49.93 127.14 -35.55c5.87,-81.92 15.17,-168.26 22.33,-250.73 1.23,-14.15 8.39,-74.48 6.45,-83.36l-155.25 0c-1.97,7.06 -0.75,36.65 -0.75,46.1 -19.36,2.74 -113.98,-2.46 -120.41,2.08z"/>
   <polygon class="fil3" points="84.44,225.21 191.73,225.29 191.84,177.14 128.82,177.12 124.57,128.24 191.67,128.21 191.67,80.22 71.54,80.19 "/>
   <path class="fil2" d="M191.73 225.29l58.82 -0.02c0.15,7.86 -3.86,57.52 -5.9,61.19 -4.26,3.33 -44.73,13.3 -52.92,14.95 0,8.32 0,16.65 0,24.98 0,4.28 0.04,8.57 -0.02,12.84 -0.07,5 -1.2,8.48 1.77,11.24 6.57,0.32 38.91,-9.91 47.87,-12.37 15.89,-4.36 32.55,-9.71 48.54,-13.38l13.69 -147.54 -111.74 -0.04 -0.11 48.16z"/>
   <path class="fil3" d="M191.95 351.72l1.53 -1.25c-2.98,-2.76 -1.84,-6.24 -1.77,-11.24 0.06,-4.27 0.02,-8.57 0.02,-12.84 0,-8.32 0,-16.65 0,-24.98l-1.17 -1.18c-5.76,0.32 -43.72,-10.46 -51.03,-12.91 -2.66,-6.27 -3.78,-29.82 -3.73,-38.47l-48.75 0c0.45,10.8 4.85,69.76 7.08,75.8l97.81 27.06z"/>
   <polygon class="fil2" points="191.67,128.21 191.95,128.21 308.03,128.23 312.21,80.51 191.67,80.22 "/>
   <path class="fil4" d="M195.06 70.39l17.47 0 0 -24.13c4.13,4.75 9.11,14.79 11.65,16.64 2.65,-1.94 6.39,-9.05 8.48,-12.33l3.18 -4.31 0 24.13 18.31 0 0 -52.43c-18.62,0 -17.95,-1.73 -20.89,3.24 -2.03,3.42 -7.41,11.15 -8.23,14.23 -2.61,-1.75 -4.14,-5.38 -5.87,-8.28 -1.46,-2.44 -4.26,-6.25 -4.95,-9.2l-19.14 0 0 52.43z"/>
   <path class="fil4" d="M81.06 70.39c22.53,0 18.31,4.15 18.31,-17.48l14.98 0 0 17.48c11.22,0 18.31,1.67 18.31,-2.5l0 -49.93 -18.31 0 0 16.64 -14.98 0 0 -16.64 -18.31 0 0 52.43z"/>
   <path class="fil9" d="M190.55 300.24l1.17 1.18c8.19,-1.64 48.65,-11.61 52.92,-14.95 2.04,-3.67 6.05,-53.33 5.9,-61.19l-58.82 0.02 -107.29 -0.08 5.25 1.57c15.69,1.62 87.1,-2.46 102.36,0.52l0 55.96c0,4.3 1.71,14.88 -1.5,16.98z"/>
   <polygon class="fil10" points="191.84,177.14 191.95,128.21 191.67,128.21 124.57,128.24 128.82,177.12 "/>
   <polygon class="fil4" points="139.31,35.44 154.29,35.44 154.29,70.39 172.59,70.39 172.59,35.44 187.57,35.44 187.57,17.96 139.31,17.96 "/>
   <path class="fil4" d="M261.63 67.89c0,1.92 0.58,2.5 2.5,2.5l38.28 0c4.1,0 2.5,-6.56 2.5,-17.48l-24.96 0 0 -34.95 -18.31 0 0 49.93z"/>
  </g>
  <g id="_1490816539792">
   <path class="fil11" d="M2295.05 67.84l-199.34 356.46c-4.12,7.36 -14.69,7.4 -18.87,0.08l-203.29 -356.51c-4.55,-7.98 2.27,-17.65 11.32,-16.03l199.55 35.67c0.63,0.11 1.27,0.17 1.91,0.17 0.65,0 1.3,-0.06 1.94,-0.18l195.38 -35.61c9.01,-1.64 15.87,7.95 11.4,15.95l0 0z"/>
   <path class="fil12" d="M2179.48 5.05l-147.52 28.91c-2.42,0.48 -4.22,2.53 -4.37,5l-9.07 153.26c-0.01,0.1 -0.01,0.21 -0.01,0.32 0,2.99 2.43,5.42 5.42,5.42 0.41,0 0.82,-0.05 1.22,-0.14l41.07 -9.48c3.84,-0.89 7.31,2.5 6.52,6.36l-12.2 59.75c-0.82,4.02 2.95,7.46 6.88,6.27l25.37 -7.71c3.93,-1.19 7.71,2.25 6.88,6.28l-19.39 93.86c-1.22,5.87 6.6,9.07 9.85,4.04l2.18 -3.36 120.21 -239.9c2.01,-4.02 -1.46,-8.59 -5.87,-7.74l-42.28 8.16c-3.97,0.77 -7.35,-2.93 -6.23,-6.82l27.59 -95.66c1.12,-3.9 -2.27,-7.6 -6.25,-6.82l-0 0z"/>
  </g>
  <g id="_1490816542864">
   <path class="fil13" d="M3949.43 69.58c35.71,0 71.41,-0.04 107.12,0.01 -0.25,10.02 0.42,20.26 -0.31,30.14 -21.62,0.14 -43.25,0.01 -64.88,0.05 0.04,13.39 -0.08,26.76 0.06,40.14 18.37,-0.07 36.72,-0.02 55.08,-0.02l0 29.67c-18.38,0.02 -36.76,0 -55.15,0.01l0 67.71c-13.98,0 -27.95,0.01 -41.93,-0.01l0 -167.69z"/>
   <path class="fil13" d="M3918.56 340.5c7.38,-6.7 18.46,-7.66 27.73,-5.01 5.76,1.61 11.44,5.84 12.52,12.03 0.42,3.62 0.8,7.77 -1.48,10.9 -2.31,3.35 -6.23,5.11 -10.07,6.07 5.69,1.09 11.79,4.32 13.42,10.3 1.07,5.79 0.86,12.54 -3.33,17.13 -5,5.68 -12.87,7.66 -20.18,7.85 -6.48,-0.12 -13.39,-1.19 -18.58,-5.39 -4.01,-3.1 -5.96,-8.05 -6.98,-12.86 4.95,-0.46 9.93,-0.09 14.9,-0.24 1.17,7.3 10.82,9.41 16.19,5.33 3.17,-2.63 3.02,-7.45 2.06,-11.06 -2.76,-5.65 -10.07,-4.97 -15.34,-4.94 -0.01,-3.57 -0.01,-7.14 0,-10.7 3.57,-0.09 7.34,0.45 10.71,-1.03 3.97,-1.9 4.19,-7.55 2.35,-10.99 -4.27,-5.09 -14.33,-2.64 -14.76,4.44 -4.99,0.02 -9.98,0.05 -14.97,-0.03 0.75,-4.39 2.41,-8.79 5.82,-11.8z"/>
   <path class="fil13" d="M3984.07 372.92c0.21,3.96 -0.84,8.36 1.39,11.94 3.02,4.07 9.46,4.22 13.39,1.47 3.54,-3.04 3.18,-8.28 2.69,-12.48 -0.51,-3.77 -4.63,-5.86 -8.15,-5.31 -3.62,0.04 -6.79,1.93 -9.32,4.39zm-5 -35.49c7.9,-4.21 17.66,-4.1 25.96,-1.12 6.46,2.33 10.88,8.71 11.01,15.55 -4.59,0 -9.2,0.05 -13.79,-0.03 -0.95,-7.27 -11.27,-8.39 -15.86,-3.96 -3.4,4.1 -2.08,9.76 -2.34,14.65 8.47,-8.07 24.54,-6.68 30.73,3.55 2.8,4.46 2.86,9.96 2.52,15.04 -0.51,7.34 -5.78,13.78 -12.52,16.45 -7.94,3.12 -17.21,3.06 -25.01,-0.45 -6.55,-2.97 -10.97,-9.77 -11.27,-16.92 -0.13,-8.06 -0.05,-16.12 -0.04,-24.18 0.09,-7.45 3.95,-14.98 10.62,-18.59z"/>
   <path class="fil13" d="M4046.77 345.93c-3.69,1.23 -5.25,5.33 -5.35,8.93 -0.16,7.32 -0.01,14.66 -0.07,21.99 -0.02,3.53 0.54,7.7 3.66,9.9 4.27,2.58 11.41,1.79 13.14,-3.52 1.71,-5.76 0.62,-11.86 0.92,-17.78 -0.29,-5.41 0.95,-11.24 -1.51,-16.3 -1.98,-3.81 -7.05,-4.57 -10.78,-3.21zm-3.77 -11c7.79,-1.47 16.48,-0.92 23.26,3.54 6.02,4.05 8.55,11.6 8.44,18.62 -0.12,7.68 0.19,15.38 -0.16,23.05 -0.48,7.53 -5.11,14.9 -12.36,17.53 -8.7,3.27 -19.13,3 -27.2,-1.83 -6.13,-3.7 -9.18,-10.91 -9.24,-17.86 -0.05,-6.63 0.02,-13.26 -0.03,-19.9 -0.05,-5.42 0.93,-11.15 4.35,-15.5 3.13,-4.08 7.96,-6.6 12.94,-7.65z"/>
   <path class="fil14" d="M3949.43 69.58l0 167.69c13.98,0.02 27.95,0.01 41.93,0.01l0 -67.71c18.39,-0.01 36.76,0.01 55.15,-0.01l0 -29.67c-18.36,0 -36.72,-0.05 -55.08,0.02 -0.15,-13.38 -0.02,-26.75 -0.06,-40.14 21.63,-0.04 43.26,0.09 64.88,-0.05 0.73,-9.88 0.06,-20.11 0.31,-30.14 -35.71,-0.05 -71.41,-0.01 -107.12,-0.01zm-109.67 -67.44c2.95,0.26 5.89,0.22 8.85,0.19 91.35,0 182.69,0.01 274.05,0 3.78,0.05 7.62,-0.23 11.35,0.65 9.05,2.45 15.78,11.41 15.67,20.79 0.03,15.21 0,30.4 0.01,45.61 -0.02,78.55 0.03,157.1 -0.02,235.65 -103.4,0.12 -206.79,-0.09 -310.17,0.1 -0.01,-76.82 0,-153.62 -0.01,-230.42 1.09,-17.31 0.34,-34.69 0.56,-52.03 -0.1,-6.74 0.26,-13.49 -0.27,-20.22l-0.02 -0.32z"/>
   <path class="fil15" d="M3830.34 7.54c3.11,-1.74 5.96,-4.09 9.44,-5.07 0.53,6.73 0.18,13.48 0.27,20.22 -0.22,17.34 0.53,34.72 -0.56,52.03 0.01,76.8 0,153.61 0.01,230.42 -10,5.8 -19.81,11.95 -29.77,17.84 -11.86,7.2 -23.77,14.34 -35.66,21.52 0.01,-100.96 0.07,-201.92 -0.03,-302.88 18.65,-11.55 37.55,-22.7 56.3,-34.08z"/>
   <path class="fil16" d="M4043 334.93c-4.98,1.04 -9.8,3.56 -12.94,7.65 -3.43,4.35 -4.41,10.08 -4.35,15.5 0.05,6.63 -0.02,13.27 0.03,19.9 0.06,6.96 3.11,14.17 9.24,17.86 8.07,4.83 18.5,5.1 27.2,1.83 7.25,-2.64 11.89,-10 12.36,-17.53 0.34,-7.68 0.04,-15.38 0.16,-23.05 0.11,-7.01 -2.42,-14.56 -8.44,-18.62 -6.78,-4.46 -15.47,-5.01 -23.26,-3.54zm-63.93 2.5c-6.67,3.6 -10.53,11.13 -10.62,18.59 -0.01,8.06 -0.09,16.11 0.04,24.18 0.3,7.15 4.72,13.95 11.27,16.92 7.8,3.51 17.07,3.57 25.01,0.45 6.74,-2.67 12.01,-9.11 12.52,-16.45 0.34,-5.08 0.28,-10.58 -2.52,-15.04 -6.19,-10.23 -22.26,-11.62 -30.73,-3.55 0.26,-4.89 -1.06,-10.54 2.35,-14.65 4.58,-4.43 14.9,-3.31 15.85,3.96 4.59,0.08 9.2,0.03 13.79,0.03 -0.13,-6.85 -4.55,-13.22 -11.01,-15.55 -8.3,-2.98 -18.06,-3.08 -25.96,1.12zm-60.51 3.07c-3.42,3.01 -5.08,7.42 -5.83,11.8 4.99,0.08 9.98,0.05 14.97,0.03 0.43,-7.08 10.49,-9.53 14.76,-4.44 1.84,3.44 1.62,9.09 -2.35,10.99 -3.37,1.48 -7.13,0.95 -10.71,1.03 -0.01,3.56 -0.01,7.12 0,10.7 5.26,-0.03 12.58,-0.71 15.33,4.94 0.96,3.61 1.11,8.44 -2.06,11.06 -5.36,4.07 -15.02,1.97 -16.19,-5.33 -4.97,0.15 -9.95,-0.22 -14.9,0.24 1.02,4.81 2.97,9.76 6.98,12.86 5.19,4.2 12.11,5.27 18.59,5.39 7.3,-0.2 15.18,-2.18 20.17,-7.85 4.19,-4.58 4.41,-11.33 3.33,-17.13 -1.62,-5.98 -7.73,-9.21 -13.42,-10.3 3.84,-0.96 7.76,-2.72 10.07,-6.07 2.28,-3.13 1.89,-7.28 1.48,-10.9 -1.08,-6.2 -6.76,-10.43 -12.52,-12.03 -9.27,-2.64 -20.36,-1.69 -27.73,5.01zm231.13 -271.12c9.96,-0.01 19.92,-0.03 29.88,0.01 0,121.09 0.01,242.17 -0.01,363.25 -116.24,0 -232.47,0.02 -348.71,-0.01 -11.47,0.49 -21.4,-10.13 -21.24,-21.38 0.02,-29.42 -0.21,-58.85 0.12,-88.27 9.96,-5.89 19.77,-12.04 29.77,-17.84 103.38,-0.2 206.77,0.01 310.17,-0.1 0.05,-78.55 0,-157.1 0.02,-235.65z"/>
   <path class="fil16" d="M4046.77 345.93c3.73,-1.36 8.8,-0.6 10.78,3.21 2.46,5.06 1.22,10.9 1.51,16.3 -0.3,5.92 0.79,12.02 -0.92,17.78 -1.74,5.31 -8.87,6.11 -13.14,3.52 -3.11,-2.2 -3.68,-6.36 -3.66,-9.9 0.06,-7.33 -0.08,-14.66 0.07,-21.99 0.1,-3.59 1.67,-7.7 5.35,-8.93z"/>
   <path class="fil16" d="M3984.07 372.92c2.53,-2.46 5.71,-4.34 9.32,-4.39 3.52,-0.55 7.63,1.54 8.15,5.31 0.49,4.2 0.85,9.44 -2.69,12.48 -3.94,2.75 -10.37,2.6 -13.39,-1.47 -2.23,-3.58 -1.18,-7.98 -1.39,-11.94z"/>
  </g>
  <g id="_1490816545744">
   <g>
    <path class="fil17" d="M2697.84 10.79c10.47,-5.99 24.11,-6.02 34.57,0 52.62,29.73 105.27,59.42 157.88,89.18 9.9,5.58 16.52,16.59 16.42,27.99l0 178.9c0.07,11.87 -7.2,23.15 -17.64,28.6 -52.45,29.57 -104.88,59.18 -157.32,88.75 -10.68,6.11 -24.6,5.64 -34.95,-0.97 -15.73,-9.11 -31.48,-18.19 -47.2,-27.29 -3.21,-1.92 -6.84,-3.44 -9.11,-6.56 2.01,-2.7 5.59,-3.04 8.51,-4.22 6.57,-2.09 12.59,-5.44 18.62,-8.69 1.52,-1.04 3.38,-0.64 4.85,0.29 13.45,7.71 26.78,15.64 40.27,23.28 2.88,1.66 5.79,-0.54 8.25,-1.92 51.47,-29.09 103.01,-58.07 154.47,-87.17 1.91,-0.92 2.96,-2.94 2.8,-5.03 0.04,-59.02 0.01,-118.04 0.02,-177.06 0.22,-2.37 -1.15,-4.55 -3.3,-5.52 -52.27,-29.44 -104.51,-58.92 -156.77,-88.36 -0.91,-0.62 -1.98,-0.96 -3.08,-0.96 -1.1,0 -2.17,0.33 -3.07,0.95 -52.26,29.45 -104.49,58.96 -156.75,88.4 -2.13,0.97 -3.57,3.11 -3.31,5.49 0.01,59.02 0,118.04 0,177.07 -0.01,0.15 -0.02,0.3 -0.02,0.44 0,1.94 1.11,3.7 2.86,4.53 13.94,7.91 27.91,15.76 41.86,23.64 7.86,4.23 17.52,6.75 26.18,3.51 7.64,-2.74 13,-10.54 12.86,-18.66 0.07,-58.67 -0.04,-117.35 0.05,-176.01 -0.19,-2.6 2.28,-4.76 4.81,-4.51 6.7,-0.05 13.41,-0.09 20.11,0.02 2.8,-0.06 4.72,2.74 4.38,5.37 -0.03,59.04 0.07,118.09 -0.05,177.13 0.02,15.74 -6.44,32.86 -21,40.56 -17.93,9.29 -40.1,7.32 -57.81,-1.59 -15.34,-7.65 -29.97,-16.69 -45.03,-24.89 -10.47,-5.42 -17.71,-16.74 -17.63,-28.61l0 -178.9c-0.11,-11.64 6.77,-22.85 16.98,-28.35 52.44,-29.59 104.88,-59.21 157.31,-88.82z"/>
    <path class="fil17" d="M2743.59 134.72c22.87,-1.47 47.36,-0.87 67.94,10.4 15.93,8.64 24.77,26.76 25.05,44.46 -0.45,2.39 -2.94,3.7 -5.22,3.54 -6.63,-0.01 -13.27,0.09 -19.91,-0.05 -2.82,0.11 -4.45,-2.49 -4.81,-4.97 -1.91,-8.47 -6.53,-16.86 -14.5,-20.95 -12.24,-6.13 -26.43,-5.82 -39.77,-5.69 -9.74,0.52 -20.22,1.36 -28.47,7.09 -6.34,4.34 -8.26,13.1 -6,20.16 2.13,5.07 7.98,6.7 12.77,8.21 27.56,7.21 56.77,6.49 83.81,15.98 11.2,3.87 22.15,11.39 25.98,23.11 5.01,15.71 2.82,34.48 -8.36,47.1 -9.06,10.38 -22.26,16.03 -35.43,19.09 -17.52,3.9 -35.69,4 -53.48,2.27 -16.73,-1.91 -34.13,-6.3 -47.04,-17.7 -11.04,-9.59 -16.44,-24.52 -15.9,-38.94 0.13,-2.43 2.55,-4.13 4.89,-3.93 6.68,-0.05 13.36,-0.07 20.05,0.01 2.67,-0.19 4.65,2.12 4.78,4.63 1.23,8.07 4.27,16.54 11.31,21.33 13.58,8.76 30.62,8.16 46.17,8.41 12.89,-0.57 27.35,-0.75 37.86,-9.26 5.55,-4.86 7.19,-12.98 5.69,-19.98 -1.62,-5.9 -7.8,-8.65 -13.1,-10.45 -27.21,-8.61 -56.75,-5.48 -83.69,-15.22 -10.94,-3.87 -21.52,-11.18 -25.72,-22.42 -5.86,-15.91 -3.18,-35.58 9.17,-47.77 12.04,-12.12 29.42,-16.79 45.94,-18.46l0 0z"/>
   </g>
  </g>
  <g id="_1490816548880">
   <path class="fil18" d="M3388.04 217c0,-23.23 -18.83,-42.06 -42.06,-42.06 -23.23,0 -42.06,18.83 -42.06,42.06 0,23.23 18.83,42.06 42.06,42.06 23.23,0 42.06,-18.83 42.06,-42.06z"/>
   <path class="fil19" d="M3345.97 121.42c28.29,0 55.67,2.01 81.03,5.72 26.15,3.82 50.11,9.45 70.71,16.55 24.83,8.55 45.06,19.4 59.23,31.16 15.8,13.09 24.52,27.69 24.52,42.14 0,15 -9.28,30.34 -26.18,44.08 -15.08,12.26 -36.54,23.56 -62.96,32.31 -19.69,6.52 -42.5,11.51 -67.23,14.87 -25,3.41 -51.79,5.15 -79.11,5.15 -28.42,0 -56.22,-1.68 -82.06,-5.16 -24.76,-3.33 -47.58,-8.31 -67.28,-15.05 -25.48,-8.71 -46.16,-20.05 -60.72,-32.29 -16.44,-13.82 -25.44,-29.18 -25.44,-43.91 0,-14.35 8.41,-28.88 23.87,-41.95 13.75,-11.63 33.43,-22.39 57.86,-30.91 20.74,-7.22 45.05,-12.96 71.49,-16.85 25.8,-3.79 53.67,-5.85 82.29,-5.85zm78.12 25.61c-24.31,-3.55 -50.7,-5.49 -78.12,-5.49 -27.74,0 -54.62,1.98 -79.38,5.62 -25.31,3.72 -48.36,9.14 -67.8,15.9 -22.03,7.68 -39.53,17.18 -51.49,27.29 -10.82,9.15 -16.71,18.39 -16.71,26.63 0,8.69 6.44,18.69 18.21,28.59 12.68,10.66 31.13,20.69 54.28,28.6 18.52,6.33 40.07,11.03 63.51,14.18 24.66,3.32 51.57,4.92 79.39,4.92 26.7,0 52.59,-1.66 76.44,-4.91 23.36,-3.18 44.94,-7.9 63.62,-14.08 24.13,-7.99 43.39,-18.04 56.59,-28.77 12.08,-9.82 18.72,-19.76 18.72,-28.52 0,-8.21 -6.12,-17.47 -17.21,-26.65 -12.37,-10.25 -30.43,-19.87 -52.94,-27.62 -19.48,-6.71 -42.23,-12.04 -67.1,-15.68z"/>
   <path class="fil19" d="M3262.86 169.5c14.16,-24.57 29.57,-47.28 45.42,-67.35 16.38,-20.75 33.24,-38.7 49.66,-52.99l-0.02 -0.02c19.77,-17.21 39.28,-29.29 56.59,-35.72 19.22,-7.14 36.2,-7.4 48.71,-0.19 13.02,7.52 21.68,23.22 25.14,44.71 3.07,19.13 2.14,43.34 -3.48,70.62 -4.2,20.38 -11.28,42.63 -20.7,65.69 -9.5,23.27 -21.38,47.34 -35.09,71.1 -14.3,24.8 -29.64,48.06 -45.44,68.54 -15.23,19.75 -30.95,37.04 -46.67,50.78 -20.3,17.76 -40.44,30 -58.26,36.48 -20.15,7.32 -37.94,7.43 -50.73,0.06 -12.45,-7.18 -20.85,-21.73 -24.45,-41.63 -3.21,-17.74 -2.71,-40.15 2.09,-65.52 4.1,-21.62 11.27,-45.55 21.11,-70.38 9.53,-24.05 21.68,-49.2 36.1,-74.18zm61.14 -54.93c-15.26,19.32 -30.11,41.21 -43.77,64.91 -13.75,23.83 -25.46,48.12 -34.76,71.59 -9.43,23.81 -16.25,46.49 -20.08,66.69 -4.36,22.99 -4.88,42.9 -2.1,58.29 2.53,13.96 7.58,23.69 14.7,27.79 7.49,4.32 19.4,3.72 33.9,-1.55 15.61,-5.67 33.53,-16.64 51.9,-32.71 14.69,-12.84 29.52,-29.17 44,-47.95 15.31,-19.86 30.15,-42.35 43.94,-66.26 13.29,-23.04 24.77,-46.29 33.91,-68.67 8.93,-21.86 15.63,-42.92 19.59,-62.15 5.13,-24.87 6.03,-46.61 3.32,-63.47 -2.47,-15.4 -7.76,-26.12 -15.31,-30.48 -7.12,-4.1 -18.21,-3.42 -31.74,1.6 -15.01,5.58 -32.37,16.43 -50.38,32.1l-0.04 0c-15.55,13.52 -31.53,30.55 -47.1,50.26z"/>
   <path class="fil19" d="M3262.92 265.49c-14.16,-24.48 -26.14,-49.19 -35.64,-73.03 -9.81,-24.61 -16.95,-48.16 -21.12,-69.45 -5.04,-25.76 -5.77,-48.7 -2.71,-66.85 3.42,-20.22 11.68,-35.07 24.2,-42.31 13.01,-7.54 30.92,-7.2 51.25,0.53 18.08,6.88 38.59,19.79 59.46,38.32 15.61,13.86 31.37,31.11 46.61,50.75 15.4,19.84 30.32,42.15 44.06,65.89 14.29,24.68 26.77,49.59 36.68,73.61 9.54,23.13 16.67,45.39 20.7,65.79 5.23,26.44 5.78,49.99 2.49,68.66 -3.73,21.13 -12.53,36.61 -25.32,44.01 -12.42,7.19 -29.2,7.19 -48.25,0.37 -16.99,-6.09 -36.15,-17.71 -55.72,-34.55 -16.62,-14.3 -33.76,-32.46 -50.38,-53.41 -16.17,-20.38 -31.93,-43.49 -46.31,-68.32zm-17.02 -80.42c9.09,22.8 20.64,46.6 34.39,70.36 13.87,23.95 29.06,46.22 44.66,65.88 15.88,20.01 32.11,37.23 47.71,50.66 17.74,15.26 34.72,25.66 49.43,30.93 13.35,4.79 24.31,5.25 31.44,1.12 7.48,-4.33 12.9,-14.92 15.57,-30.1 2.88,-16.36 2.33,-37.38 -2.42,-61.35 -3.8,-19.21 -10.52,-40.19 -19.52,-62.02 -9.52,-23.08 -21.6,-47.17 -35.5,-71.18 -13.33,-23.02 -27.73,-44.59 -42.57,-63.69 -14.51,-18.7 -29.4,-35.01 -44.02,-47.99 -18.96,-16.83 -37.34,-28.46 -53.33,-34.54 -14.57,-5.54 -26.49,-6.32 -34.04,-1.94 -7.1,4.11 -12.05,14.04 -14.45,28.24 -2.68,15.84 -1.95,36.31 2.62,59.7 3.97,20.29 10.74,42.64 20.02,65.92z"/>
  </g>
  <g id="_1490816550448">
   <path class="fil20" d="M4535.65 1.15l288.34 0 0 288.16c0,79.38 -64.94,144.32 -144.32,144.32l-144.01 0c-79.38,0 -144.32,-64.94 -144.32,-144.32l0 -143.84c0,-79.38 64.95,-144.32 144.32,-144.32z"/>
   <g style="clip-path:url(#id0)">
    <g>
     <polygon id="1" class="fil21" style="mask:url(#id1)" points="4486.88,123.91 4469.22,132.7 4261.76,340.16 4486.88,589.28 4724.1,350.1 4715.99,307.57 "/>
    </g>
   </g>
   <path class="fil22" d="M4535.65 1.15l288.34 0 0 288.16c0,79.38 -64.94,144.32 -144.32,144.32l-144.01 0c-79.38,0 -144.32,-64.94 -144.32,-144.32l0 -143.84c0,-79.38 64.95,-144.32 144.32,-144.32z"/>
   <g>
    <path class="fil23" d="M4545.84 228.62l113.04 113.43c2.39,2.4 5.93,2.94 8.93,1.36 5.41,-2.86 11.97,-2.85 17.37,0.03 2.99,1.59 6.54,1.07 8.94,-1.32l21.99 -21.91c2.4,-2.39 2.94,-5.93 1.35,-8.93 -2.86,-5.41 -2.85,-11.97 0.03,-17.37 1.59,-2.99 1.07,-6.54 -1.33,-8.94l-113.03 -113.43 -0.07 0.07 -75.62 -79.52c-4.06,-4.26 -10.86,-4.43 -15.13,-0.38l-42.71 40.62c-4.26,4.06 -4.43,10.86 -0.38,15.12l76.91 80.88 -0.29 0.3z"/>
    <path class="fil24" d="M4722.55 330.42l1.36 18.24c0.04,0.56 -0.14,1.05 -0.54,1.44 -0.4,0.4 -0.89,0.58 -1.45,0.54l-18.24 -1.36c-0.74,-0.05 -1.34,-0.51 -1.6,-1.2 -0.26,-0.69 -0.1,-1.43 0.43,-1.95l16.88 -16.88c0.52,-0.52 1.26,-0.68 1.95,-0.43 0.69,0.26 1.15,0.86 1.2,1.6z"/>
   </g>
  </g>
 </g>
</svg>
