<?xml version="1.0" encoding="UTF-8"?>
<!DOCTYPE svg PUBLIC "-//W3C//DTD SVG 1.1//EN" "http://www.w3.org/Graphics/SVG/1.1/DTD/svg11.dtd">
<!-- Creator: CorelDRAW 2019 (64-Bit) -->
<svg xmlns="http://www.w3.org/2000/svg" xml:space="preserve" width="25.0562mm" height="27.9884mm" version="1.1" style="shape-rendering:geometricPrecision; text-rendering:geometricPrecision; image-rendering:optimizeQuality; fill-rule:evenodd; clip-rule:evenodd"
viewBox="0 0 54.95 61.38"
 xmlns:xlink="http://www.w3.org/1999/xlink">
 <defs>
  <style type="text/css">
   <![CDATA[
    .fil0 {fill:#D9DADA}
    .fil2 {fill:#D9DADA;fill-opacity:0.039216}
    .fil1 {fill:#C5C6C6;fill-opacity:0.058824}
   ]]>
  </style>
 </defs>
 <g id="Capa_x0020_1">
  <metadata id="CorelCorpID_0Corel-Layer"/>
  <g id="_2089466996672">
   <circle class="fil0" cx="7.83" cy="26.92" r="0.12"/>
   <circle class="fil0" cx="15.73" cy="30.46" r="0.14"/>
   <circle class="fil0" cx="7.72" cy="38.09" r="0.39"/>
   <circle class="fil0" cx="18.28" cy="22.25" r="0.23"/>
   <circle class="fil0" cx="7.43" cy="18.77" r="0.23"/>
   <circle class="fil0" cx="13.93" cy="12.73" r="0.11"/>
   <circle class="fil0" cx="0.23" cy="30.72" r="0.23"/>
   <circle class="fil0" cx="2.79" cy="9.48" r="0.23"/>
   <circle class="fil0" cx="23.85" cy="0.14" r="0.14"/>
   <path class="fil1" d="M16.55 41.28c0.62,0.42 0.78,1.27 0.36,1.89 -0.42,0.62 -1.27,0.78 -1.89,0.36 -0.62,-0.42 -0.78,-1.27 -0.36,-1.89 0.42,-0.62 1.27,-0.78 1.89,-0.36z"/>
   <path class="fil1" d="M15.71 41.25c-1.37,-0.93 -1.73,-2.81 -0.8,-4.18 0.93,-1.37 2.81,-1.73 4.18,-0.8 1.37,0.93 1.73,2.81 0.8,4.18 -0.93,1.37 -2.81,1.73 -4.18,0.8z"/>
   <circle class="fil0" cx="11.2" cy="60.31" r="0.23"/>
   <circle class="fil0" cx="23.85" cy="59.04" r="0.23"/>
   <circle class="fil0" cx="23.85" cy="59.04" r="0.23"/>
   <circle class="fil0" cx="36.38" cy="47.43" r="0.23"/>
   <circle class="fil0" cx="42.55" cy="61.15" r="0.23"/>
   <circle class="fil0" cx="54.72" cy="39.08" r="0.23"/>
   <circle class="fil0" cx="18.05" cy="47.2" r="0.14"/>
   <circle class="fil0" cx="5.4" cy="50.56" r="0.46"/>
   <circle class="fil0" cx="54.02" cy="52.54" r="0.23"/>
   <g>
    <path class="fil2" d="M37.15 38.7c0.73,0 1.33,0.59 1.33,1.33 0,0.73 -0.59,1.33 -1.33,1.33 -0.73,0 -1.33,-0.59 -1.33,-1.33 0,-0.73 0.59,-1.33 1.33,-1.33z"/>
    <path class="fil2" d="M38.06 40.83c0.51,0 0.91,0.41 0.91,0.91 0,0.51 -0.41,0.91 -0.91,0.91 -0.51,0 -0.91,-0.41 -0.91,-0.91 0,-0.51 0.41,-0.91 0.91,-0.91z"/>
    <path class="fil2" d="M36.27 41.81c0.26,0 0.48,0.21 0.48,0.48 0,0.26 -0.21,0.48 -0.48,0.48 -0.26,0 -0.48,-0.21 -0.48,-0.48 0,-0.26 0.21,-0.48 0.48,-0.48z"/>
   </g>
  </g>
 </g>
</svg>
