<?xml version="1.0" encoding="UTF-8"?>
<!DOCTYPE svg PUBLIC "-//W3C//DTD SVG 1.1//EN" "http://www.w3.org/Graphics/SVG/1.1/DTD/svg11.dtd">
<!-- Creator: CorelDRAW 2019 (64-Bit) -->
<svg xmlns="http://www.w3.org/2000/svg" xml:space="preserve" width="8.83mm" height="8.83mm" version="1.1" style="shape-rendering:geometricPrecision; text-rendering:geometricPrecision; image-rendering:optimizeQuality; fill-rule:evenodd; clip-rule:evenodd"
viewBox="0 0 10.04 10.04"
 xmlns:xlink="http://www.w3.org/1999/xlink">
 <defs>
  <style type="text/css">
   <![CDATA[
    .fil0 {fill:#EBECEC}
    .fil1 {fill:url(#id0)}
    .fil2 {fill:url(#id1)}
    .fil3 {fill:url(#id2)}
   ]]>
  </style>
  <linearGradient id="id0" gradientUnits="userSpaceOnUse" x1="0.3" y1="5.02" x2="9.74" y2="5.02">
   <stop offset="0" style="stop-opacity:1; stop-color:#D9DADA"/>
   <stop offset="1" style="stop-opacity:1; stop-color:white"/>
  </linearGradient>
  <linearGradient id="id1" gradientUnits="userSpaceOnUse" x1="1.9" y1="3.51" x2="5.27" y2="8.08">
   <stop offset="0" style="stop-opacity:1; stop-color:#41D1FF"/>
   <stop offset="1" style="stop-opacity:1; stop-color:#BD34FE"/>
  </linearGradient>
  <linearGradient id="id2" gradientUnits="userSpaceOnUse" x1="5.07" y1="2.34" x2="5.76" y2="7.08">
   <stop offset="0" style="stop-opacity:1; stop-color:#FFEA83"/>
   <stop offset="0.0784314" style="stop-opacity:1; stop-color:#FFDD35"/>
   <stop offset="1" style="stop-opacity:1; stop-color:#FFA800"/>
  </linearGradient>
 </defs>
 <g id="Capa_x0020_1">
  <metadata id="CorelCorpID_0Corel-Layer"/>
  <g id="_2748873986656">
   <g>
    <rect class="fil0" width="10.04" height="10.04" rx="0.56" ry="0.56"/>
    <path class="fil1" d="M0.56 0.3c-0.15,0 -0.27,0.12 -0.27,0.27l0 8.91c0,0.15 0.12,0.27 0.27,0.27l8.91 0c0.15,0 0.27,-0.12 0.27,-0.27l0 -8.91c0,-0.15 -0.12,-0.27 -0.27,-0.27l-8.91 0z"/>
   </g>
   <g>
    <path class="fil2" d="M8.31 2.68l-3.12 5.57c-0.06,0.12 -0.23,0.12 -0.3,0l-3.18 -5.57c-0.07,-0.12 0.04,-0.28 0.18,-0.25l3.12 0.56c0.01,0 0.02,0 0.03,0 0.01,0 0.02,-0 0.03,-0l3.05 -0.56c0.14,-0.03 0.25,0.12 0.18,0.25l0 0z"/>
    <path class="fil3" d="M6.51 1.7l-2.31 0.45c-0.04,0.01 -0.07,0.04 -0.07,0.08l-0.14 2.4c0,0 -0,0 -0,0.01 0,0.05 0.04,0.08 0.08,0.08 0.01,0 0.01,-0 0.02,-0l0.64 -0.15c0.06,-0.01 0.11,0.04 0.1,0.1l-0.19 0.93c-0.01,0.06 0.05,0.12 0.11,0.1l0.4 -0.12c0.06,-0.02 0.12,0.04 0.11,0.1l-0.3 1.47c-0.02,0.09 0.1,0.14 0.15,0.06l0.03 -0.05 1.88 -3.75c0.03,-0.06 -0.02,-0.13 -0.09,-0.12l-0.66 0.13c-0.06,0.01 -0.11,-0.05 -0.1,-0.11l0.43 -1.5c0.02,-0.06 -0.04,-0.12 -0.1,-0.11l-0 0z"/>
   </g>
  </g>
 </g>
</svg>
